<svg xmlns="http://www.w3.org/2000/svg" xmlns:xlink="http://www.w3.org/1999/xlink" width="1920.472" height="1922.013" viewBox="0 0 1920.472 1922.013"><defs><style>.a{opacity:0.2;}.a,.c{fill:url(#a);}.b{opacity:0.38;}</style><radialGradient id="a" cx="1.004" cy="-0.001" r="1.003" gradientTransform="translate(-0.001)" gradientUnits="objectBoundingBox"><stop offset="0" stop-color="#0fc" stop-opacity="0.698"/><stop offset="1" stop-color="#0cf" stop-opacity="0"/></radialGradient></defs><g transform="translate(0 0.07)"><g transform="translate(0 -0.07)"><path class="a" d="M1917.754,1304.114a1268.263,1268.263,0,0,1-236.1-22.136,1252.009,1252.009,0,0,1-220.952-63.532,2.661,2.661,0,1,0,1.939-4.957,1246.464,1246.464,0,0,0,220.235,63.283,1262.591,1262.591,0,0,0,234.871,22h2.661v-90.52h-2.661c-141.552,0-279.844-25.151-411.044-74.845h0a2.786,2.786,0,0,0,.941.17,2.661,2.661,0,0,0,.949-5.152h0a1151.466,1151.466,0,0,0,409.153,74.5h2.661v-42.587h-2.661a1113.42,1113.42,0,0,1-331.071-50.059,2.661,2.661,0,1,1,1.582-5.079,1108.147,1108.147,0,0,0,329.489,49.808h2.669v-90.552h-2.661a1024.016,1024.016,0,0,1-214.191-22.579,1012.188,1012.188,0,0,1-198.548-64.566,2.662,2.662,0,1,0,2.158-4.868,1006.746,1006.746,0,0,0,197.526,64.273,1018.929,1018.929,0,0,0,213.047,22.466h2.661v-42.595h-2.661c-17.646,0-35.5-.479-53.053-1.42h.146a2.662,2.662,0,1,0,.138-5.322c17.468.941,35.22,1.42,52.736,1.42h2.661V920.736h-2.661c-174.37,0-342.721-51.211-486.8-148.1A877.637,877.637,0,0,1,1245.471,605.1,873.178,873.178,0,0,1,1114.287,390.85a2.661,2.661,0,1,0,4.868-2.093A868.046,868.046,0,0,0,1249.536,601.7a872.521,872.521,0,0,0,184.326,166.525c143.24,96.288,310.56,147.191,483.868,147.191h2.661V0H0C1.225,1061.672,860.552,1921.957,1920.415,1921.957V1687.483h-2.661c-37.224,0-74.853-1.266-111.834-3.756a2.661,2.661,0,0,1,.357-5.306c36.867,2.474,74.366,3.74,111.476,3.74h2.661v-42.595h-2.661a1594.771,1594.771,0,0,1-445.379-63.154,1584.317,1584.317,0,0,1-396.739-177.486,2.661,2.661,0,1,1,2.815-4.511,1579.437,1579.437,0,0,0,395.377,176.87,1589.375,1589.375,0,0,0,443.894,62.9h2.693V1543.7h-2.661a1498.724,1498.724,0,0,1-421.664-60.209A1489.661,1489.661,0,0,1,1121,1314.231a2.662,2.662,0,0,0,2.84-4.5,1484.046,1484.046,0,0,0,373.747,168.651,1493.267,1493.267,0,0,0,420.187,60.038h2.645v-42.595h-2.661a1461.742,1461.742,0,0,1-267.416-24.632,1441.9,1441.9,0,0,1-250.641-70.74,2.662,2.662,0,0,1,1.9-4.974,1436.848,1436.848,0,0,0,249.979,70.529,1456.168,1456.168,0,0,0,266.181,24.494h2.661v-42.6h-2.661A1406.234,1406.234,0,0,1,1572.4,1405a2.6,2.6,0,0,0,.657.081,2.661,2.661,0,0,0,.649-5.241,1400.769,1400.769,0,0,0,344,42.733h2.661v-41.167a1343.686,1343.686,0,0,1-581.86-136.546,2.661,2.661,0,1,1,2.336-4.779,1337.981,1337.981,0,0,0,579.564,135.946V1304.1Z" transform="translate(0 0.057)"/><g class="b" transform="translate(277.304)"><path class="a" d="M2179.7,86.236a2.669,2.669,0,0,1,3.245,1.907,150.829,150.829,0,0,1-1.81-68.087,2.663,2.663,0,1,0-5.217-1.071,156.262,156.262,0,0,0,1.875,70.5,2.661,2.661,0,0,1,1.906-3.253Z" transform="translate(-687.243 -3.124)"/><path class="c" d="M2179.7,86.236a2.669,2.669,0,0,1,3.245,1.907,150.829,150.829,0,0,1-1.81-68.087,2.663,2.663,0,1,0-5.217-1.071,156.262,156.262,0,0,0,1.875,70.5,2.661,2.661,0,0,1,1.906-3.253Z" transform="translate(-687.243 -3.124)"/><path class="a" d="M2326.2,219.044a2.662,2.662,0,0,1,2.661-2.661,148.968,148.968,0,0,1-92.143-31.739,149.719,149.719,0,0,1-52.606-79.924h0a2.663,2.663,0,1,1-5.152,1.347h0a153.853,153.853,0,0,0,20.64,46.14,155.408,155.408,0,0,0,33.832,36.631,154.308,154.308,0,0,0,95.429,32.867,2.662,2.662,0,0,1-2.661-2.661Z" transform="translate(-688.411 -19.701)"/><path class="c" d="M2326.2,219.044a2.662,2.662,0,0,1,2.661-2.661,148.968,148.968,0,0,1-92.143-31.739,149.719,149.719,0,0,1-52.606-79.924h0a2.663,2.663,0,1,1-5.152,1.347h0a153.853,153.853,0,0,0,20.64,46.14,155.408,155.408,0,0,0,33.832,36.631,154.308,154.308,0,0,0,95.429,32.867,2.662,2.662,0,0,1-2.661-2.661Z" transform="translate(-688.411 -19.701)"/><path class="a" d="M2365.762,245.011a2.661,2.661,0,1,0-2.661,2.661A2.661,2.661,0,0,0,2365.762,245.011Z" transform="translate(-722.651 -45.668)"/><path class="c" d="M2365.762,245.011a2.661,2.661,0,1,0-2.661,2.661A2.661,2.661,0,0,0,2365.762,245.011Z" transform="translate(-722.651 -45.668)"/><path class="c" d="M2365.762,245.011a2.661,2.661,0,1,0-2.661,2.661A2.661,2.661,0,0,0,2365.762,245.011Z" transform="translate(-722.651 -45.668)"/><path class="a" d="M2181.512,107.592a2.693,2.693,0,0,0,.674-.089,2.661,2.661,0,0,0,1.906-3.245h0a2.662,2.662,0,1,0-5.152,1.347h0A2.669,2.669,0,0,0,2181.512,107.592Z" transform="translate(-688.391 -19.238)"/><path class="c" d="M2181.512,107.592a2.693,2.693,0,0,0,.674-.089,2.661,2.661,0,0,0,1.906-3.245h0a2.662,2.662,0,1,0-5.152,1.347h0A2.669,2.669,0,0,0,2181.512,107.592Z" transform="translate(-688.391 -19.238)"/><path class="c" d="M2181.512,107.592a2.693,2.693,0,0,0,.674-.089,2.661,2.661,0,0,0,1.906-3.245h0a2.662,2.662,0,1,0-5.152,1.347h0A2.669,2.669,0,0,0,2181.512,107.592Z" transform="translate(-688.391 -19.238)"/><path class="a" d="M2316.55,245.455a196.17,196.17,0,0,1-76.849-15.521A197.826,197.826,0,0,1,2123.04,8.158a2.661,2.661,0,1,0-5.208-1.063,203.132,203.132,0,0,0,119.76,227.748,201.71,201.71,0,0,0,78.959,15.959,2.661,2.661,0,0,0,0-5.322Z" transform="translate(-676.1 -0.856)"/><path class="c" d="M2316.55,245.455a196.17,196.17,0,0,1-76.849-15.521A197.826,197.826,0,0,1,2123.04,8.158a2.661,2.661,0,1,0-5.208-1.063,203.132,203.132,0,0,0,119.76,227.748,201.71,201.71,0,0,0,78.959,15.959,2.661,2.661,0,0,0,0-5.322Z" transform="translate(-676.1 -0.856)"/><path class="a" d="M2074.347,144.636a249.9,249.9,0,0,0,53.743,79.705,249.9,249.9,0,0,0,79.705,53.742,249.166,249.166,0,0,0,97.611,19.675,2.661,2.661,0,1,0,0-5.322,243.942,243.942,0,0,1-95.51-19.253,244.51,244.51,0,0,1-78.017-52.607A245.745,245.745,0,0,1,2064.473,0h-5.419a252.016,252.016,0,0,0-4.414,47.057,249.178,249.178,0,0,0,19.707,97.578Z" transform="translate(-664.955 0.057)"/><path class="c" d="M2074.347,144.636a249.9,249.9,0,0,0,53.743,79.705,249.9,249.9,0,0,0,79.705,53.742,249.166,249.166,0,0,0,97.611,19.675,2.661,2.661,0,1,0,0-5.322,243.942,243.942,0,0,1-95.51-19.253,244.51,244.51,0,0,1-78.017-52.607A245.745,245.745,0,0,1,2064.473,0h-5.419a252.016,252.016,0,0,0-4.414,47.057,249.178,249.178,0,0,0,19.707,97.578Z" transform="translate(-664.955 0.057)"/><path class="a" d="M2019.052,163.288a297.76,297.76,0,0,0,64.006,94.925,297.757,297.757,0,0,0,94.925,64.006,296.787,296.787,0,0,0,116.263,23.472,2.661,2.661,0,1,0,0-5.322,291.532,291.532,0,0,1-114.153-23.034A293.772,293.772,0,0,1,2004.658,0h-5.4a300.72,300.72,0,0,0-3.683,47.057,296.782,296.782,0,0,0,23.472,116.231Z" transform="translate(-653.812 0.057)"/><path class="c" d="M2019.052,163.288a297.76,297.76,0,0,0,64.006,94.925,297.757,297.757,0,0,0,94.925,64.006,296.787,296.787,0,0,0,116.263,23.472,2.661,2.661,0,1,0,0-5.322,291.532,291.532,0,0,1-114.153-23.034A293.772,293.772,0,0,1,2004.658,0h-5.4a300.72,300.72,0,0,0-3.683,47.057,296.782,296.782,0,0,0,23.472,116.231Z" transform="translate(-653.812 0.057)"/><path class="a" d="M1963.762,181.94a345.381,345.381,0,0,0,74.277,110.138,345.377,345.377,0,0,0,110.171,74.277A344.415,344.415,0,0,0,2283.125,393.6a2.669,2.669,0,0,0,0-5.33,339.138,339.138,0,0,1-132.831-26.782,340.213,340.213,0,0,1-108.483-73.141,340.184,340.184,0,0,1-99.964-241.289A344.177,344.177,0,0,1,1945.093,0h-5.363a349.5,349.5,0,0,0-3.18,47.057,344.421,344.421,0,0,0,27.212,134.884Z" transform="translate(-642.675 0.057)"/><path class="c" d="M1963.762,181.94a345.381,345.381,0,0,0,74.277,110.138,345.377,345.377,0,0,0,110.171,74.277A344.415,344.415,0,0,0,2283.125,393.6a2.669,2.669,0,0,0,0-5.33,339.138,339.138,0,0,1-132.831-26.782,340.213,340.213,0,0,1-108.483-73.141,340.184,340.184,0,0,1-99.964-241.289A344.177,344.177,0,0,1,1945.093,0h-5.363a349.5,349.5,0,0,0-3.18,47.057,344.421,344.421,0,0,0,27.212,134.884Z" transform="translate(-642.675 0.057)"/><path class="a" d="M1908.457,200.591a393.025,393.025,0,0,0,84.549,125.4,393.1,393.1,0,0,0,125.4,84.541,392.008,392.008,0,0,0,153.568,31.009,2.661,2.661,0,0,0,0-5.322,386.637,386.637,0,0,1-151.491-30.555,387.954,387.954,0,0,1-123.72-83.4,388.05,388.05,0,0,1-114-275.2A393.407,393.407,0,0,1,1885.586-.01L1880.223,0a398.593,398.593,0,0,0-2.783,47.057,392.016,392.016,0,0,0,31.017,153.536Z" transform="translate(-631.523 0.059)"/><path class="c" d="M1908.457,200.591a393.025,393.025,0,0,0,84.549,125.4,393.1,393.1,0,0,0,125.4,84.541,392.008,392.008,0,0,0,153.568,31.009,2.661,2.661,0,0,0,0-5.322,386.637,386.637,0,0,1-151.491-30.555,387.954,387.954,0,0,1-123.72-83.4,388.05,388.05,0,0,1-114-275.2A393.407,393.407,0,0,1,1885.586-.01L1880.223,0a398.593,398.593,0,0,0-2.783,47.057,392.016,392.016,0,0,0,31.017,153.536Z" transform="translate(-631.523 0.059)"/><path class="a" d="M2284.823,560.277a439.315,439.315,0,0,1-97.6-10.937,435.142,435.142,0,0,1-89.887-31.2,438.18,438.18,0,0,1-79.762-49.053,440.17,440.17,0,0,1-67.211-64.476,2.661,2.661,0,1,0-4.057,3.424,445.542,445.542,0,0,0,68.03,65.263,443.053,443.053,0,0,0,80.727,49.645,439.9,439.9,0,0,0,91.007,31.585,445.108,445.108,0,0,0,98.787,11.066,2.661,2.661,0,0,0,0-5.322Z" transform="translate(-644.373 -76.076)"/><path class="c" d="M2284.823,560.277a439.315,439.315,0,0,1-97.6-10.937,435.142,435.142,0,0,1-89.887-31.2,438.18,438.18,0,0,1-79.762-49.053,440.17,440.17,0,0,1-67.211-64.476,2.661,2.661,0,1,0-4.057,3.424,445.542,445.542,0,0,0,68.03,65.263,443.053,443.053,0,0,0,80.727,49.645,439.9,439.9,0,0,0,91.007,31.585,445.108,445.108,0,0,0,98.787,11.066,2.661,2.661,0,0,0,0-5.322Z" transform="translate(-644.373 -76.076)"/><path class="a" d="M1821.061,49.682a2.661,2.661,0,0,0,2.7-2.629A441.29,441.29,0,0,1,1826.279-.02L1820.923,0a447.608,447.608,0,0,0-2.483,47.057,2.661,2.661,0,0,0,2.621,2.629Z" transform="translate(-620.391 0.061)"/><path class="c" d="M1821.061,49.682a2.661,2.661,0,0,0,2.7-2.629A441.29,441.29,0,0,1,1826.279-.02L1820.923,0a447.608,447.608,0,0,0-2.483,47.057,2.661,2.661,0,0,0,2.621,2.629Z" transform="translate(-620.391 0.061)"/><path class="a" d="M2310.544,642.913a487.071,487.071,0,0,1-117.505-14.336,482.341,482.341,0,0,1-107.095-40.68,2.661,2.661,0,1,0-2.434,4.714,487.931,487.931,0,0,0,108.264,41.134,492.359,492.359,0,0,0,118.794,14.49,2.661,2.661,0,0,0,0-5.322Z" transform="translate(-670.094 -110.787)"/><path class="c" d="M2310.544,642.913a487.071,487.071,0,0,1-117.505-14.336,482.341,482.341,0,0,1-107.095-40.68,2.661,2.661,0,1,0-2.434,4.714,487.931,487.931,0,0,0,108.264,41.134,492.359,492.359,0,0,0,118.794,14.49,2.661,2.661,0,0,0,0-5.322Z" transform="translate(-670.094 -110.787)"/><path class="a" d="M1761.981,49.678a2.661,2.661,0,0,0,2.661-2.661q0-23.561,2.264-47.057h-5.347q-2.227,23.415-2.239,47.057A2.661,2.661,0,0,0,1761.981,49.678Z" transform="translate(-609.237 0.064)"/><path class="c" d="M1761.981,49.678a2.661,2.661,0,0,0,2.661-2.661q0-23.561,2.264-47.057h-5.347q-2.227,23.415-2.239,47.057A2.661,2.661,0,0,0,1761.981,49.678Z" transform="translate(-609.237 0.064)"/><path class="a" d="M1951.188,489.287a2.66,2.66,0,1,0,3.383-4.105,488.789,488.789,0,0,1-66.529-66.683,487.3,487.3,0,0,1-52.607-78.545,2.661,2.661,0,1,0-4.69,2.515,492.47,492.47,0,0,0,53.183,79.4A494.44,494.44,0,0,0,1951.188,489.287Z" transform="translate(-622.654 -63.818)"/><path class="c" d="M1951.188,489.287a2.66,2.66,0,1,0,3.383-4.105,488.789,488.789,0,0,1-66.529-66.683,487.3,487.3,0,0,1-52.607-78.545,2.661,2.661,0,1,0-4.69,2.515,492.47,492.47,0,0,0,53.183,79.4A494.44,494.44,0,0,0,1951.188,489.287Z" transform="translate(-622.654 -63.818)"/><path class="a" d="M2267.984,670.724a535.684,535.684,0,0,1-118.722-13.273A529.8,529.8,0,0,1,2039.9,619.594a533.863,533.863,0,0,1-97.092-59.527,536.69,536.69,0,0,1-81.887-78.269,2.661,2.661,0,0,0-4.057,3.44,541.569,541.569,0,0,0,82.756,79.048,538.7,538.7,0,0,0,98.057,60.128,535.314,535.314,0,0,0,110.463,38.238,541.34,541.34,0,0,0,119.9,13.4,2.661,2.661,0,0,0,0-5.322Z" transform="translate(-627.534 -90.681)"/><path class="c" d="M2267.984,670.724a535.684,535.684,0,0,1-118.722-13.273A529.8,529.8,0,0,1,2039.9,619.594a533.863,533.863,0,0,1-97.092-59.527,536.69,536.69,0,0,1-81.887-78.269,2.661,2.661,0,0,0-4.057,3.44,541.569,541.569,0,0,0,82.756,79.048,538.7,538.7,0,0,0,98.057,60.128,535.314,535.314,0,0,0,110.463,38.238,541.34,541.34,0,0,0,119.9,13.4,2.661,2.661,0,0,0,0-5.322Z" transform="translate(-627.534 -90.681)"/><path class="a" d="M1795.551,352.928a2.652,2.652,0,0,0,2.191,1.152,2.619,2.619,0,0,0,1.509-.479,2.661,2.661,0,0,0,.673-3.7,529.865,529.865,0,0,1-94.341-302.845q0-23.549,2.061-47.057H1702.3q-2.032,23.427-2.045,47.057A535.28,535.28,0,0,0,1795.551,352.928Z" transform="translate(-598.094 0.057)"/><path class="c" d="M1795.551,352.928a2.652,2.652,0,0,0,2.191,1.152,2.619,2.619,0,0,0,1.509-.479,2.661,2.661,0,0,0,.673-3.7,529.865,529.865,0,0,1-94.341-302.845q0-23.549,2.061-47.057H1702.3q-2.032,23.427-2.045,47.057A535.28,535.28,0,0,0,1795.551,352.928Z" transform="translate(-598.094 0.057)"/><path class="a" d="M1694.526,323.328a2.6,2.6,0,0,1-.973.187,2.669,2.669,0,0,1-2.483-1.688h0a584.872,584.872,0,0,0,86.5,149.918,2.662,2.662,0,1,1,4.17-3.31h0a579.61,579.61,0,0,1-85.717-148.554A2.661,2.661,0,0,1,1694.526,323.328Z" transform="translate(-596.36 -60.295)"/><path class="c" d="M1694.526,323.328a2.6,2.6,0,0,1-.973.187,2.669,2.669,0,0,1-2.483-1.688h0a584.872,584.872,0,0,0,86.5,149.918,2.662,2.662,0,1,1,4.17-3.31h0a579.61,579.61,0,0,1-85.717-148.554A2.661,2.661,0,0,1,1694.526,323.328Z" transform="translate(-596.36 -60.295)"/><path class="a" d="M1801.431,506.724a2.661,2.661,0,0,1-3.74-.43,590.52,590.52,0,0,0,90.869,91.68,588.242,588.242,0,0,0,109.229,69.92,583.331,583.331,0,0,0,123.971,44.574A589.338,589.338,0,0,0,2256.9,728.119a2.661,2.661,0,0,0,0-5.322,583.683,583.683,0,0,1-133.918-15.513,577.284,577.284,0,0,1-122.843-44.169,582.19,582.19,0,0,1-108.207-69.247A585.254,585.254,0,0,1,1801.876,503,2.669,2.669,0,0,1,1801.431,506.724Z" transform="translate(-616.477 -94.845)"/><path class="c" d="M1801.431,506.724a2.661,2.661,0,0,1-3.74-.43,590.52,590.52,0,0,0,90.869,91.68,588.242,588.242,0,0,0,109.229,69.92,583.331,583.331,0,0,0,123.971,44.574A589.338,589.338,0,0,0,2256.9,728.119a2.661,2.661,0,0,0,0-5.322,583.683,583.683,0,0,1-133.918-15.513,577.284,577.284,0,0,1-122.843-44.169,582.19,582.19,0,0,1-108.207-69.247A585.254,585.254,0,0,1,1801.876,503,2.669,2.669,0,0,1,1801.431,506.724Z" transform="translate(-616.477 -94.845)"/><path class="a" d="M1797.986,502.316a2.661,2.661,0,1,0,3.74.43h0a2.669,2.669,0,0,0-3.74-.43Z" transform="translate(-616.342 -94.608)"/><path class="c" d="M1797.986,502.316a2.661,2.661,0,1,0,3.74.43h0a2.669,2.669,0,0,0-3.74-.43Z" transform="translate(-616.342 -94.608)"/><path class="c" d="M1797.986,502.316a2.661,2.661,0,1,0,3.74.43h0a2.669,2.669,0,0,0-3.74-.43Z" transform="translate(-616.342 -94.608)"/><path class="a" d="M1681.661,261.475a2.663,2.663,0,0,1,4.957-1.947,578.074,578.074,0,0,1-40.1-212.471q0-23.525,1.882-47.057h-5.339q-1.862,23.451-1.866,47.057a583.559,583.559,0,0,0,40.461,214.418Z" transform="translate(-586.951 0.057)"/><path class="c" d="M1681.661,261.475a2.663,2.663,0,0,1,4.957-1.947,578.074,578.074,0,0,1-40.1-212.471q0-23.525,1.882-47.057h-5.339q-1.862,23.451-1.866,47.057a583.559,583.559,0,0,0,40.461,214.418Z" transform="translate(-586.951 0.057)"/><path class="a" d="M1692.536,317.965a2.662,2.662,0,0,0-1.509,3.448h0a2.669,2.669,0,0,0,2.482,1.688,2.6,2.6,0,0,0,.974-.187,2.661,2.661,0,0,0-1.947-4.949Z" transform="translate(-596.318 -59.906)"/><path class="c" d="M1692.536,317.965a2.662,2.662,0,0,0-1.509,3.448h0a2.669,2.669,0,0,0,2.482,1.688,2.6,2.6,0,0,0,.974-.187,2.661,2.661,0,0,0-1.947-4.949Z" transform="translate(-596.318 -59.906)"/><path class="c" d="M1692.536,317.965a2.662,2.662,0,0,0-1.509,3.448h0a2.669,2.669,0,0,0,2.482,1.688,2.6,2.6,0,0,0,.974-.187,2.661,2.661,0,0,0-1.947-4.949Z" transform="translate(-596.318 -59.906)"/><path class="a" d="M2244.905,773.31a631.4,631.4,0,0,1-150.558-18.141,625.647,625.647,0,0,1-137.415-51.528,630.795,630.795,0,0,1-119.979-80.613,633.415,633.415,0,0,1-98.211-105.367,2.661,2.661,0,0,0-4.284,3.156A638.819,638.819,0,0,0,1833.5,627.1a636.07,636.07,0,0,0,120.994,81.3,630.62,630.62,0,0,0,138.592,51.925,636.889,636.889,0,0,0,151.824,18.3,2.661,2.661,0,1,0,0-5.322Z" transform="translate(-604.456 -97.416)"/><path class="c" d="M2244.905,773.31a631.4,631.4,0,0,1-150.558-18.141,625.647,625.647,0,0,1-137.415-51.528,630.795,630.795,0,0,1-119.979-80.613,633.415,633.415,0,0,1-98.211-105.367,2.661,2.661,0,0,0-4.284,3.156A638.819,638.819,0,0,0,1833.5,627.1a636.07,636.07,0,0,0,120.994,81.3,630.62,630.62,0,0,0,138.592,51.925,636.889,636.889,0,0,0,151.824,18.3,2.661,2.661,0,1,0,0-5.322Z" transform="translate(-604.456 -97.416)"/><path class="a" d="M1602.649,207.643a630.909,630.909,0,0,0,58.075,145.447,2.67,2.67,0,0,0,2.337,1.371,2.625,2.625,0,0,0,1.282-.333,2.661,2.661,0,0,0,1.039-3.619,625.591,625.591,0,0,1-57.6-144.205,630.992,630.992,0,0,1-20.324-159.248c0-15.667.593-31.39,1.745-47.057h-5.339c-1.144,15.642-1.728,31.358-1.728,47.057a636.329,636.329,0,0,0,20.519,160.586Z" transform="translate(-575.806 0.057)"/><path class="c" d="M1602.649,207.643a630.909,630.909,0,0,0,58.075,145.447,2.67,2.67,0,0,0,2.337,1.371,2.625,2.625,0,0,0,1.282-.333,2.661,2.661,0,0,0,1.039-3.619,625.591,625.591,0,0,1-57.6-144.205,630.992,630.992,0,0,1-20.324-159.248c0-15.667.593-31.39,1.745-47.057h-5.339c-1.144,15.642-1.728,31.358-1.728,47.057a636.329,636.329,0,0,0,20.519,160.586Z" transform="translate(-575.806 0.057)"/><path class="a" d="M1536.926,184.48a678.242,678.242,0,0,0,39.755,128.028,682.3,682.3,0,0,0,62.87,115.874,685.872,685.872,0,0,0,184.22,184.172,682.345,682.345,0,0,0,115.858,62.886,678.274,678.274,0,0,0,128.028,39.755,686.623,686.623,0,0,0,137.455,13.858,2.661,2.661,0,0,0,0-5.322,682.351,682.351,0,0,1-136.544-13.776,673.405,673.405,0,0,1-126.87-39.4,676.89,676.89,0,0,1-114.949-62.4,680.54,680.54,0,0,1-182.784-182.784,676.91,676.91,0,0,1-62.4-114.949,673.422,673.422,0,0,1-39.43-127.03A681.98,681.98,0,0,1,1528.39,47.057c0-15.658.56-31.382,1.623-47.057h-5.33c-1.071,15.651-1.622,31.366-1.622,47.057a686.933,686.933,0,0,0,13.892,137.554Z" transform="translate(-564.662 0.057)"/><path class="c" d="M1536.926,184.48a678.242,678.242,0,0,0,39.755,128.028,682.3,682.3,0,0,0,62.87,115.874,685.872,685.872,0,0,0,184.22,184.172,682.345,682.345,0,0,0,115.858,62.886,678.274,678.274,0,0,0,128.028,39.755,686.623,686.623,0,0,0,137.455,13.858,2.661,2.661,0,0,0,0-5.322,682.351,682.351,0,0,1-136.544-13.776,673.405,673.405,0,0,1-126.87-39.4,676.89,676.89,0,0,1-114.949-62.4,680.54,680.54,0,0,1-182.784-182.784,676.91,676.91,0,0,1-62.4-114.949,673.422,673.422,0,0,1-39.43-127.03A681.98,681.98,0,0,1,1528.39,47.057c0-15.658.56-31.382,1.623-47.057h-5.33c-1.071,15.651-1.622,31.366-1.622,47.057a686.933,686.933,0,0,0,13.892,137.554Z" transform="translate(-564.662 0.057)"/><path class="a" d="M1898.249,820.952a2.661,2.661,0,0,1,3.619-1.03h0a727.828,727.828,0,0,1-118-81.879,2.665,2.665,0,1,0-3.456,4.057,733.467,733.467,0,0,0,118.868,82.48,2.661,2.661,0,0,1-1.03-3.627Z" transform="translate(-613.04 -139.07)"/><path class="c" d="M1898.249,820.952a2.661,2.661,0,0,1,3.619-1.03h0a727.828,727.828,0,0,1-118-81.879,2.665,2.665,0,1,0-3.456,4.057,733.467,733.467,0,0,0,118.868,82.48,2.661,2.661,0,0,1-1.03-3.627Z" transform="translate(-613.04 -139.07)"/><path class="a" d="M2281.35,929.979a726.839,726.839,0,0,1-184.618-23.723,720.8,720.8,0,0,1-167-67.146,2.661,2.661,0,0,1-2.588,4.649,726.142,726.142,0,0,0,168.245,67.648,732.545,732.545,0,0,0,185.965,23.9,2.669,2.669,0,0,0,0-5.33Z" transform="translate(-640.9 -158.259)"/><path class="c" d="M2281.35,929.979a726.839,726.839,0,0,1-184.618-23.723,720.8,720.8,0,0,1-167-67.146,2.661,2.661,0,0,1-2.588,4.649,726.142,726.142,0,0,0,168.245,67.648,732.545,732.545,0,0,0,185.965,23.9,2.669,2.669,0,0,0,0-5.33Z" transform="translate(-640.9 -158.259)"/><path class="a" d="M1930.441,842.65a2.661,2.661,0,0,0-1.031-3.619h0a2.661,2.661,0,1,0,1.031,3.619Z" transform="translate(-640.582 -158.181)"/><path class="c" d="M1930.441,842.65a2.661,2.661,0,0,0-1.031-3.619h0a2.661,2.661,0,1,0,1.031,3.619Z" transform="translate(-640.582 -158.181)"/><path class="c" d="M1930.441,842.65a2.661,2.661,0,0,0-1.031-3.619h0a2.661,2.661,0,1,0,1.031,3.619Z" transform="translate(-640.582 -158.181)"/><path class="a" d="M1466.669,49.678a2.661,2.661,0,0,0,2.661-2.661c0-15.659.52-31.374,1.526-47.057h-5.339c-1,15.651-1.517,31.366-1.517,47.057a2.661,2.661,0,0,0,2.669,2.661Z" transform="translate(-553.519 0.064)"/><path class="c" d="M1466.669,49.678a2.661,2.661,0,0,0,2.661-2.661c0-15.659.52-31.374,1.526-47.057h-5.339c-1,15.651-1.517,31.366-1.517,47.057a2.661,2.661,0,0,0,2.669,2.661Z" transform="translate(-553.519 0.064)"/><path class="a" d="M1578.943,470.251a2.653,2.653,0,0,1,3.667.811A724.105,724.105,0,0,1,1519.538,345.1a721.558,721.558,0,0,1-37.767-138.461,2.662,2.662,0,0,0-5.25.884A726.448,726.448,0,0,0,1514.6,347.067a728.958,728.958,0,0,0,63.535,126.892,2.661,2.661,0,0,1,.811-3.708Z" transform="translate(-555.874 -38.51)"/><path class="c" d="M1578.943,470.251a2.653,2.653,0,0,1,3.667.811A724.105,724.105,0,0,1,1519.538,345.1a721.558,721.558,0,0,1-37.767-138.461,2.662,2.662,0,0,0-5.25.884A726.448,726.448,0,0,0,1514.6,347.067a728.958,728.958,0,0,0,63.535,126.892,2.661,2.661,0,0,1,.811-3.708Z" transform="translate(-555.874 -38.51)"/><path class="a" d="M1606.243,533.1a2.661,2.661,0,1,1-4.5,2.831c9.427,14.985,19.537,29.816,30.019,44.08a2.664,2.664,0,1,0,4.292-3.156C1625.642,562.689,1615.605,547.972,1606.243,533.1Z" transform="translate(-579.506 -100.524)"/><path class="c" d="M1606.243,533.1a2.661,2.661,0,1,1-4.5,2.831c9.427,14.985,19.537,29.816,30.019,44.08a2.664,2.664,0,1,0,4.292-3.156C1625.642,562.689,1615.605,547.972,1606.243,533.1Z" transform="translate(-579.506 -100.524)"/><path class="a" d="M1603.9,536.892a2.661,2.661,0,1,0-2.256-1.249,2.661,2.661,0,0,0,2.256,1.249Z" transform="translate(-579.412 -100.235)"/><path class="c" d="M1603.9,536.892a2.661,2.661,0,1,0-2.256-1.249,2.661,2.661,0,0,0,2.256,1.249Z" transform="translate(-579.412 -100.235)"/><path class="c" d="M1603.9,536.892a2.661,2.661,0,1,0-2.256-1.249,2.661,2.661,0,0,0,2.256,1.249Z" transform="translate(-579.412 -100.235)"/><path class="a" d="M2294.808,996.792a779.38,779.38,0,0,1-151.463-14.84,768.736,768.736,0,0,1-141.2-42.529,2.662,2.662,0,0,0-2.02,4.925,773.99,773.99,0,0,0,142.331,42.846,784,784,0,0,0,152.375,14.92,2.661,2.661,0,1,0,0-5.322Z" transform="translate(-654.359 -177.148)"/><path class="c" d="M2294.808,996.792a779.38,779.38,0,0,1-151.463-14.84,768.736,768.736,0,0,1-141.2-42.529,2.662,2.662,0,0,0-2.02,4.925,773.99,773.99,0,0,0,142.331,42.846,784,784,0,0,0,152.375,14.92,2.661,2.661,0,1,0,0-5.322Z" transform="translate(-654.359 -177.148)"/><path class="a" d="M1449.082,305.955h0a2.663,2.663,0,1,1,5.022-1.777,770.715,770.715,0,0,1-43.812-257.191c0-15.651.487-31.366,1.428-47.057h-5.331c-.933,15.659-1.42,31.374-1.42,47.057a776,776,0,0,0,44.112,258.968Z" transform="translate(-542.381 0.07)"/><path class="c" d="M1449.082,305.955h0a2.663,2.663,0,1,1,5.022-1.777,770.715,770.715,0,0,1-43.812-257.191c0-15.651.487-31.366,1.428-47.057h-5.331c-.933,15.659-1.42,31.374-1.42,47.057a776,776,0,0,0,44.112,258.968Z" transform="translate(-542.381 0.07)"/><path class="a" d="M1462.74,378.326a2.605,2.605,0,0,1-.884.154,2.669,2.669,0,0,1-2.515-1.776,779.423,779.423,0,0,0,231.52,335.078,2.661,2.661,0,1,1,3.44-4.057A774.1,774.1,0,0,1,1464.362,374.91h0a2.662,2.662,0,0,1-1.622,3.416Z" transform="translate(-552.64 -70.678)"/><path class="c" d="M1462.74,378.326a2.605,2.605,0,0,1-.884.154,2.669,2.669,0,0,1-2.515-1.776,779.423,779.423,0,0,0,231.52,335.078,2.661,2.661,0,1,1,3.44-4.057A774.1,774.1,0,0,1,1464.362,374.91h0a2.662,2.662,0,0,1-1.622,3.416Z" transform="translate(-552.64 -70.678)"/><path class="a" d="M1460.937,372.895a2.669,2.669,0,0,0-1.622,3.4h0a2.669,2.669,0,0,0,2.515,1.777,2.605,2.605,0,0,0,.884-.154,2.661,2.661,0,0,0,1.623-3.391h0A2.669,2.669,0,0,0,1460.937,372.895Z" transform="translate(-552.606 -70.269)"/><path class="c" d="M1460.937,372.895a2.669,2.669,0,0,0-1.622,3.4h0a2.669,2.669,0,0,0,2.515,1.777,2.605,2.605,0,0,0,.884-.154,2.661,2.661,0,0,0,1.623-3.391h0A2.669,2.669,0,0,0,1460.937,372.895Z" transform="translate(-552.606 -70.269)"/><path class="c" d="M1460.937,372.895a2.669,2.669,0,0,0-1.622,3.4h0a2.669,2.669,0,0,0,2.515,1.777,2.605,2.605,0,0,0,.884-.154,2.661,2.661,0,0,0,1.623-3.391h0A2.669,2.669,0,0,0,1460.937,372.895Z" transform="translate(-552.606 -70.269)"/><path class="a" d="M1748.448,788.9a2.643,2.643,0,0,1-2.036.941,2.6,2.6,0,0,1-1.712-.633,781.441,781.441,0,0,0,106.926,76.046,2.62,2.62,0,0,0,1.346.373,2.661,2.661,0,0,0,1.355-4.949A777.378,777.378,0,0,1,1748.14,785.15,2.661,2.661,0,0,1,1748.448,788.9Z" transform="translate(-606.479 -148.078)"/><path class="c" d="M1748.448,788.9a2.643,2.643,0,0,1-2.036.941,2.6,2.6,0,0,1-1.712-.633,781.441,781.441,0,0,0,106.926,76.046,2.62,2.62,0,0,0,1.346.373,2.661,2.661,0,0,0,1.355-4.949A777.378,777.378,0,0,1,1748.14,785.15,2.661,2.661,0,0,1,1748.448,788.9Z" transform="translate(-606.479 -148.078)"/><path class="a" d="M1744.164,785.311a2.653,2.653,0,0,0,.316,3.748,2.605,2.605,0,0,0,1.712.633,2.661,2.661,0,1,0-2.028-4.381Z" transform="translate(-606.259 -147.931)"/><path class="c" d="M1744.164,785.311a2.653,2.653,0,0,0,.316,3.748,2.605,2.605,0,0,0,1.712.633,2.661,2.661,0,1,0-2.028-4.381Z" transform="translate(-606.259 -147.931)"/><path class="c" d="M1744.164,785.311a2.653,2.653,0,0,0,.316,3.748,2.605,2.605,0,0,0,1.712.633,2.661,2.661,0,1,0-2.028-4.381Z" transform="translate(-606.259 -147.931)"/><path class="a" d="M1740.752,858.612a2.661,2.661,0,0,1-3.732.462,822.241,822.241,0,0,0,508.46,175.044,2.661,2.661,0,0,0,0-5.323A816.9,816.9,0,0,1,1740.322,854.88a2.653,2.653,0,0,1,.43,3.732Z" transform="translate(-605.03 -161.234)"/><path class="c" d="M1740.752,858.612a2.661,2.661,0,0,1-3.732.462,822.241,822.241,0,0,0,508.46,175.044,2.661,2.661,0,0,0,0-5.323A816.9,816.9,0,0,1,1740.322,854.88a2.653,2.653,0,0,1,.43,3.732Z" transform="translate(-605.03 -161.234)"/><path class="a" d="M1383.168,293.109h0a2.661,2.661,0,1,1,5.079-1.582h0A820.537,820.537,0,0,1,1351.2,47.057c0-15.643.462-31.366,1.339-47.057h-5.331c-.876,15.659-1.331,31.382-1.331,47.057a825.776,825.776,0,0,0,37.289,246.052Z" transform="translate(-531.233 0.057)"/><path class="c" d="M1383.168,293.109h0a2.661,2.661,0,1,1,5.079-1.582h0A820.537,820.537,0,0,1,1351.2,47.057c0-15.643.462-31.366,1.339-47.057h-5.331c-.876,15.659-1.331,31.382-1.331,47.057a825.776,825.776,0,0,0,37.289,246.052Z" transform="translate(-531.233 0.057)"/><path class="a" d="M1395.166,362.655a2.645,2.645,0,0,1-3.326-1.752,821.927,821.927,0,0,0,110.008,224.779,829.588,829.588,0,0,0,170.03,179.9,2.661,2.661,0,0,1,3.245-4.195,823.933,823.933,0,0,1-168.951-178.744A816.406,816.406,0,0,1,1396.919,359.32a2.661,2.661,0,0,1-1.753,3.334Z" transform="translate(-539.904 -67.737)"/><path class="c" d="M1395.166,362.655a2.645,2.645,0,0,1-3.326-1.752,821.927,821.927,0,0,0,110.008,224.779,829.588,829.588,0,0,0,170.03,179.9,2.661,2.661,0,0,1,3.245-4.195,823.933,823.933,0,0,1-168.951-178.744A816.406,816.406,0,0,1,1396.919,359.32a2.661,2.661,0,0,1-1.753,3.334Z" transform="translate(-539.904 -67.737)"/><path class="a" d="M1736.328,855.2a2.661,2.661,0,1,0,3.732-.454,2.661,2.661,0,0,0-3.732.454Z" transform="translate(-604.792 -161.103)"/><path class="c" d="M1736.328,855.2a2.661,2.661,0,1,0,3.732-.454,2.661,2.661,0,0,0-3.732.454Z" transform="translate(-604.792 -161.103)"/><path class="c" d="M1736.328,855.2a2.661,2.661,0,1,0,3.732-.454,2.661,2.661,0,0,0-3.732.454Z" transform="translate(-604.792 -161.103)"/><path class="a" d="M1393.566,357.132a2.661,2.661,0,0,0-1.745,3.335h0a2.661,2.661,0,1,0,5.079-1.582h0a2.661,2.661,0,0,0-3.334-1.752Z" transform="translate(-539.877 -67.301)"/><path class="c" d="M1393.566,357.132a2.661,2.661,0,0,0-1.745,3.335h0a2.661,2.661,0,1,0,5.079-1.582h0a2.661,2.661,0,0,0-3.334-1.752Z" transform="translate(-539.877 -67.301)"/><path class="c" d="M1393.566,357.132a2.661,2.661,0,0,0-1.745,3.335h0a2.661,2.661,0,1,0,5.079-1.582h0a2.661,2.661,0,0,0-3.334-1.752Z" transform="translate(-539.877 -67.301)"/><path class="a" d="M1304.984,225.152a869.148,869.148,0,0,0,52.087,165.714h0a2.661,2.661,0,0,1,4.868-2.093,864.305,864.305,0,0,1-51.771-164.7,874.689,874.689,0,0,1-18.035-177.016c0-15.642.438-31.366,1.266-47.057h-5.323c-.811,15.659-1.266,31.382-1.266,47.057a880.474,880.474,0,0,0,18.207,178.254Z" transform="translate(-520.088 0.057)"/><path class="c" d="M1304.984,225.152a869.148,869.148,0,0,0,52.087,165.714h0a2.661,2.661,0,0,1,4.868-2.093,864.305,864.305,0,0,1-51.771-164.7,874.689,874.689,0,0,1-18.035-177.016c0-15.642.438-31.366,1.266-47.057h-5.323c-.811,15.659-1.266,31.382-1.266,47.057a880.474,880.474,0,0,0,18.207,178.254Z" transform="translate(-520.088 0.057)"/><path class="a" d="M1374.756,477.41a2.661,2.661,0,0,0-1.4,3.489h0a2.661,2.661,0,1,0,1.4-3.489Z" transform="translate(-536.377 -89.976)"/><path class="c" d="M1374.756,477.41a2.661,2.661,0,0,0-1.4,3.489h0a2.661,2.661,0,1,0,1.4-3.489Z" transform="translate(-536.377 -89.976)"/><path class="c" d="M1374.756,477.41a2.661,2.661,0,0,0-1.4,3.489h0a2.661,2.661,0,1,0,1.4-3.489Z" transform="translate(-536.377 -89.976)"/><path class="a" d="M1526.127,820.587a2.661,2.661,0,0,1-3.756-.178c16.519,18.2,33.978,35.95,51.925,52.736a2.66,2.66,0,0,0,3.643-3.878c-17.849-16.729-35.179-34.384-51.6-52.477a2.661,2.661,0,0,1-.211,3.8Z" transform="translate(-564.531 -154.048)"/><path class="c" d="M1526.127,820.587a2.661,2.661,0,0,1-3.756-.178c16.519,18.2,33.978,35.95,51.925,52.736a2.66,2.66,0,0,0,3.643-3.878c-17.849-16.729-35.179-34.384-51.6-52.477a2.661,2.661,0,0,1-.211,3.8Z" transform="translate(-564.531 -154.048)"/><path class="a" d="M1688.578,970.7A921.879,921.879,0,0,0,1868.1,1074.489a2.661,2.661,0,0,1,2.134-4.868,916.716,916.716,0,0,1-178.492-103.193,2.662,2.662,0,1,0-3.173,4.276Z" transform="translate(-595.686 -182.181)"/><path class="c" d="M1688.578,970.7A921.879,921.879,0,0,0,1868.1,1074.489a2.661,2.661,0,0,1,2.134-4.868,916.716,916.716,0,0,1-178.492-103.193,2.662,2.662,0,1,0-3.173,4.276Z" transform="translate(-595.686 -182.181)"/><path class="a" d="M1913.607,1097.24a2.669,2.669,0,0,1-2.434,1.623,2.641,2.641,0,0,1-1.063-.227,917.038,917.038,0,0,0,140.133,48.022,2.615,2.615,0,0,0,.657.089,2.661,2.661,0,0,0,.657-5.241,912.756,912.756,0,0,1-139.313-47.747,2.661,2.661,0,0,1,1.363,3.48Z" transform="translate(-637.687 -206.304)"/><path class="c" d="M1913.607,1097.24a2.669,2.669,0,0,1-2.434,1.623,2.641,2.641,0,0,1-1.063-.227,917.038,917.038,0,0,0,140.133,48.022,2.615,2.615,0,0,0,.657.089,2.661,2.661,0,0,0,.657-5.241,912.756,912.756,0,0,1-139.313-47.747,2.661,2.661,0,0,1,1.363,3.48Z" transform="translate(-637.687 -206.304)"/><path class="a" d="M1908.359,1095.057a2.653,2.653,0,1,0,1.465-1.42,2.661,2.661,0,0,0-1.465,1.42Z" transform="translate(-637.315 -206.246)"/><path class="c" d="M1908.359,1095.057a2.653,2.653,0,1,0,1.465-1.42,2.661,2.661,0,0,0-1.465,1.42Z" transform="translate(-637.315 -206.246)"/><path class="c" d="M1908.359,1095.057a2.653,2.653,0,1,0,1.465-1.42,2.661,2.661,0,0,0-1.465,1.42Z" transform="translate(-637.315 -206.246)"/><path class="a" d="M1375.29,610.938a927.565,927.565,0,0,0,104.783,139.995,2.662,2.662,0,1,1,3.943-3.578,920.889,920.889,0,0,1-104.183-139.191,914.885,914.885,0,0,1-76.573-157.876,2.662,2.662,0,0,0-4.99,1.858,920.539,920.539,0,0,0,77.02,158.793Z" transform="translate(-522.219 -84.572)"/><path class="c" d="M1375.29,610.938a927.565,927.565,0,0,0,104.783,139.995,2.662,2.662,0,1,1,3.943-3.578,920.889,920.889,0,0,1-104.183-139.191,914.885,914.885,0,0,1-76.573-157.876,2.662,2.662,0,0,0-4.99,1.858,920.539,920.539,0,0,0,77.02,158.793Z" transform="translate(-522.219 -84.572)"/><path class="a" d="M1522.407,816.45a2.661,2.661,0,1,0,3.765.187A2.661,2.661,0,0,0,1522.407,816.45Z" transform="translate(-564.374 -153.854)"/><path class="c" d="M1522.407,816.45a2.661,2.661,0,1,0,3.765.187A2.661,2.661,0,0,0,1522.407,816.45Z" transform="translate(-564.374 -153.854)"/><path class="c" d="M1522.407,816.45a2.661,2.661,0,1,0,3.765.187A2.661,2.661,0,0,0,1522.407,816.45Z" transform="translate(-564.374 -153.854)"/><path class="a" d="M1566.383,930.208a972.794,972.794,0,0,0,152.781,99.4,965,965,0,0,0,170.858,69.644,2.661,2.661,0,1,1,1.525-5.1,960.03,960.03,0,0,1-169.916-69.222,967.939,967.939,0,0,1-151.946-98.853A973.407,973.407,0,0,1,1439.321,801.2a969.526,969.526,0,0,1-103.7-144.806,1.444,1.444,0,0,1-.138.1,2.636,2.636,0,0,1-1.387.4,2.669,2.669,0,0,1-2.272-1.274c-.511-.811-1.022-1.68-1.525-2.523a2.645,2.645,0,0,0-.746,3.481,974.433,974.433,0,0,0,105.765,148.068,977.156,977.156,0,0,0,131.062,125.569Z" transform="translate(-528.085 -123.163)"/><path class="c" d="M1566.383,930.208a972.794,972.794,0,0,0,152.781,99.4,965,965,0,0,0,170.858,69.644,2.661,2.661,0,1,1,1.525-5.1,960.03,960.03,0,0,1-169.916-69.222,967.939,967.939,0,0,1-151.946-98.853A973.407,973.407,0,0,1,1439.321,801.2a969.526,969.526,0,0,1-103.7-144.806,1.444,1.444,0,0,1-.138.1,2.636,2.636,0,0,1-1.387.4,2.669,2.669,0,0,1-2.272-1.274c-.511-.811-1.022-1.68-1.525-2.523a2.645,2.645,0,0,0-.746,3.481,974.433,974.433,0,0,0,105.765,148.068,977.156,977.156,0,0,0,131.062,125.569Z" transform="translate(-528.085 -123.163)"/><path class="a" d="M2023.75,1199.982a2.668,2.668,0,0,1-2.547,1.9,2.484,2.484,0,0,1-.763-.114,968.655,968.655,0,0,0,225.461,39.179,2.665,2.665,0,1,1,.283-5.322,963.346,963.346,0,0,1-224.218-38.944,2.661,2.661,0,0,1,1.785,3.3Z" transform="translate(-658.503 -225.722)"/><path class="c" d="M2023.75,1199.982a2.668,2.668,0,0,1-2.547,1.9,2.484,2.484,0,0,1-.763-.114,968.655,968.655,0,0,0,225.461,39.179,2.665,2.665,0,1,1,.283-5.322,963.346,963.346,0,0,1-224.218-38.944,2.661,2.661,0,0,1,1.785,3.3Z" transform="translate(-658.503 -225.722)"/><path class="a" d="M2018.2,1198.428a2.652,2.652,0,0,0,1.793,3.31,2.473,2.473,0,0,0,.762.114,2.661,2.661,0,1,0-2.555-3.424Z" transform="translate(-658.06 -225.694)"/><path class="c" d="M2018.2,1198.428a2.652,2.652,0,0,0,1.793,3.31,2.473,2.473,0,0,0,.762.114,2.661,2.661,0,1,0-2.555-3.424Z" transform="translate(-658.06 -225.694)"/><path class="c" d="M2018.2,1198.428a2.652,2.652,0,0,0,1.793,3.31,2.473,2.473,0,0,0,.762.114,2.661,2.661,0,1,0-2.555-3.424Z" transform="translate(-658.06 -225.694)"/><path class="a" d="M2295.229,1247.2a2.669,2.669,0,0,0,2.515,2.807h.146a2.661,2.661,0,1,0-2.661-2.807Z" transform="translate(-710.347 -234.778)"/><path class="c" d="M2295.229,1247.2a2.669,2.669,0,0,0,2.515,2.807h.146a2.661,2.661,0,1,0-2.661-2.807Z" transform="translate(-710.347 -234.778)"/><path class="c" d="M2295.229,1247.2a2.669,2.669,0,0,0,2.515,2.807h.146a2.661,2.661,0,1,0-2.661-2.807Z" transform="translate(-710.347 -234.778)"/><path class="a" d="M1171.381,49.678a2.661,2.661,0,0,0,2.661-2.661c0-15.634.389-31.358,1.144-47.057h-5.33c-.747,15.667-1.136,31.39-1.136,47.057A2.661,2.661,0,0,0,1171.381,49.678Z" transform="translate(-497.808 0.064)"/><path class="c" d="M1171.381,49.678a2.661,2.661,0,0,0,2.661-2.661c0-15.634.389-31.358,1.144-47.057h-5.33c-.747,15.667-1.136,31.39-1.136,47.057A2.661,2.661,0,0,0,1171.381,49.678Z" transform="translate(-497.808 0.064)"/><path class="a" d="M1313.347,607.655c.478.811.981,1.623,1.469,2.491a2.669,2.669,0,0,0,.746-3.562,960.13,960.13,0,0,1-91.477-196.406,2.661,2.661,0,1,0-5.047,1.688,965.569,965.569,0,0,0,90.456,194.978l.211-.154a2.662,2.662,0,0,1,3.643.965Z" transform="translate(-507.275 -76.989)"/><path class="c" d="M1313.347,607.655c.478.811.981,1.623,1.469,2.491a2.669,2.669,0,0,0,.746-3.562,960.13,960.13,0,0,1-91.477-196.406,2.661,2.661,0,1,0-5.047,1.688,965.569,965.569,0,0,0,90.456,194.978l.211-.154a2.662,2.662,0,0,1,3.643.965Z" transform="translate(-507.275 -76.989)"/><path class="a" d="M1334.357,656.717a2.636,2.636,0,0,0,1.387-.4,1.446,1.446,0,0,0,.138-.1c-.487-.811-.99-1.663-1.469-2.491a2.661,2.661,0,0,0-3.643-.966l-.211.154c.5.811,1.014,1.679,1.525,2.523A2.67,2.67,0,0,0,1334.357,656.717Z" transform="translate(-528.342 -123.033)"/><path class="c" d="M1334.357,656.717a2.636,2.636,0,0,0,1.387-.4,1.446,1.446,0,0,0,.138-.1c-.487-.811-.99-1.663-1.469-2.491a2.661,2.661,0,0,0-3.643-.966l-.211.154c.5.811,1.014,1.679,1.525,2.523A2.67,2.67,0,0,0,1334.357,656.717Z" transform="translate(-528.342 -123.033)"/><path class="c" d="M1334.357,656.717a2.636,2.636,0,0,0,1.387-.4,1.446,1.446,0,0,0,.138-.1c-.487-.811-.99-1.663-1.469-2.491a2.661,2.661,0,0,0-3.643-.966l-.211.154c.5.811,1.014,1.679,1.525,2.523A2.67,2.67,0,0,0,1334.357,656.717Z" transform="translate(-528.342 -123.033)"/><path class="a" d="M1777.6,1146.321a2.677,2.677,0,0,1,3.513-1.355,1013.135,1013.135,0,0,1-174.217-99.193,1019.361,1019.361,0,0,1-150.412-130.567,2.663,2.663,0,0,0-3.87,3.659,1024.7,1024.7,0,0,0,151.208,131.249,1017.685,1017.685,0,0,0,175.125,99.72A2.661,2.661,0,0,1,1777.6,1146.321Z" transform="translate(-551.232 -172.459)"/><path class="c" d="M1777.6,1146.321a2.677,2.677,0,0,1,3.513-1.355,1013.135,1013.135,0,0,1-174.217-99.193,1019.361,1019.361,0,0,1-150.412-130.567,2.663,2.663,0,0,0-3.87,3.659,1024.7,1024.7,0,0,0,151.208,131.249,1017.685,1017.685,0,0,0,175.125,99.72A2.661,2.661,0,0,1,1777.6,1146.321Z" transform="translate(-551.232 -172.459)"/><path class="a" d="M1858.152,1202.046a2.669,2.669,0,1,0-2.434,1.582A2.669,2.669,0,0,0,1858.152,1202.046Z" transform="translate(-626.92 -226.026)"/><path class="c" d="M1858.152,1202.046a2.669,2.669,0,1,0-2.434,1.582A2.669,2.669,0,0,0,1858.152,1202.046Z" transform="translate(-626.92 -226.026)"/><path class="c" d="M1858.152,1202.046a2.669,2.669,0,1,0-2.434,1.582A2.669,2.669,0,0,0,1858.152,1202.046Z" transform="translate(-626.92 -226.026)"/><path class="a" d="M1160.587,365.909A1013.144,1013.144,0,0,0,1302.57,643.384a2.661,2.661,0,1,0,4.308-3.124,1007.541,1007.541,0,0,1-191.928-593.2c0-15.634.373-31.358,1.1-47.057h-5.3c-.714,15.675-1.087,31.39-1.087,47.057a1016.4,1016.4,0,0,0,50.927,318.852Z" transform="translate(-486.665 0.057)"/><path class="c" d="M1160.587,365.909A1013.144,1013.144,0,0,0,1302.57,643.384a2.661,2.661,0,1,0,4.308-3.124,1007.541,1007.541,0,0,1-191.928-593.2c0-15.634.373-31.358,1.1-47.057h-5.3c-.714,15.675-1.087,31.39-1.087,47.057a1016.4,1016.4,0,0,0,50.927,318.852Z" transform="translate(-486.665 0.057)"/><path class="a" d="M1385.6,909.417A1072.614,1072.614,0,0,0,1550,1042.581a1065.084,1065.084,0,0,0,189.04,98.739,2.662,2.662,0,0,0,1.979-4.941,1059.561,1059.561,0,0,1-188.106-98.244A1066.086,1066.086,0,0,1,1255,743.623,1060.107,1060.107,0,0,1,1154.659,556.8a2.661,2.661,0,0,0-4.917,2.036A1065.388,1065.388,0,0,0,1250.591,746.6,1073.538,1073.538,0,0,0,1385.6,909.417Z" transform="translate(-494.189 -104.685)"/><path class="c" d="M1385.6,909.417A1072.614,1072.614,0,0,0,1550,1042.581a1065.084,1065.084,0,0,0,189.04,98.739,2.662,2.662,0,0,0,1.979-4.941,1059.561,1059.561,0,0,1-188.106-98.244A1066.086,1066.086,0,0,1,1255,743.623,1060.107,1060.107,0,0,1,1154.659,556.8a2.661,2.661,0,0,0-4.917,2.036A1065.388,1065.388,0,0,0,1250.591,746.6,1073.538,1073.538,0,0,0,1385.6,909.417Z" transform="translate(-494.189 -104.685)"/><path class="a" d="M1046.492,393.584a1108.765,1108.765,0,0,0,153.341,302.042,2.663,2.663,0,0,0,4.324-3.108,1103.216,1103.216,0,0,1-152.611-300.589A1107.146,1107.146,0,0,1,996.822,47.057c0-15.634.333-31.349.99-47.057h-5.33c-.649,15.675-.982,31.39-.982,47.057a1112.324,1112.324,0,0,0,54.992,346.527Z" transform="translate(-464.371 0.057)"/><path class="c" d="M1046.492,393.584a1108.765,1108.765,0,0,0,153.341,302.042,2.663,2.663,0,0,0,4.324-3.108,1103.216,1103.216,0,0,1-152.611-300.589A1107.146,1107.146,0,0,1,996.822,47.057c0-15.634.333-31.349.99-47.057h-5.33c-.649,15.675-.982,31.39-.982,47.057a1112.324,1112.324,0,0,0,54.992,346.527Z" transform="translate(-464.371 0.057)"/><path class="a" d="M1598.6,1178.813a2.66,2.66,0,0,0,2.686-4.592,1113.543,1113.543,0,0,1-310.5-270.116,2.663,2.663,0,1,0-4.178,3.3,1117.972,1117.972,0,0,0,312,271.406Z" transform="translate(-519.941 -170.331)"/><path class="c" d="M1598.6,1178.813a2.66,2.66,0,0,0,2.686-4.592,1113.543,1113.543,0,0,1-310.5-270.116,2.663,2.663,0,1,0-4.178,3.3,1117.972,1117.972,0,0,0,312,271.406Z" transform="translate(-519.941 -170.331)"/><path class="a" d="M935.093,49.686a2.661,2.661,0,0,0,2.669-2.629q0-23.451.941-47.057h-5.322q-.937,23.524-.941,47.057a2.661,2.661,0,0,0,2.653,2.629Z" transform="translate(-453.229 0.057)"/><path class="c" d="M935.093,49.686a2.661,2.661,0,0,0,2.669-2.629q0-23.451.941-47.057h-5.322q-.937,23.524-.941,47.057a2.661,2.661,0,0,0,2.653,2.629Z" transform="translate(-453.229 0.057)"/><path class="a" d="M1111.487,740.551a1167.042,1167.042,0,0,0,147.451,195.531,2.661,2.661,0,0,0,3.886-3.627,1161.937,1161.937,0,0,1-146.769-194.662,1152.265,1152.265,0,0,1-103.5-223.594,2.663,2.663,0,1,0-5.047,1.7A1157.751,1157.751,0,0,0,1111.487,740.551Z" transform="translate(-467.365 -96.616)"/><path class="c" d="M1111.487,740.551a1167.042,1167.042,0,0,0,147.451,195.531,2.661,2.661,0,0,0,3.886-3.627,1161.937,1161.937,0,0,1-146.769-194.662,1152.265,1152.265,0,0,1-103.5-223.594,2.663,2.663,0,1,0-5.047,1.7A1157.751,1157.751,0,0,0,1111.487,740.551Z" transform="translate(-467.365 -96.616)"/><path class="a" d="M1598.54,1258.564a2.669,2.669,0,0,1,3.643-.957,1162.175,1162.175,0,0,1-187.555-136.3,2.663,2.663,0,0,0-3.546,3.975,1167.031,1167.031,0,0,0,188.415,136.9A2.661,2.661,0,0,1,1598.54,1258.564Z" transform="translate(-543.367 -211.373)"/><path class="c" d="M1598.54,1258.564a2.669,2.669,0,0,1,3.643-.957,1162.175,1162.175,0,0,1-187.555-136.3,2.663,2.663,0,0,0-3.546,3.975,1167.031,1167.031,0,0,0,188.415,136.9A2.661,2.661,0,0,1,1598.54,1258.564Z" transform="translate(-543.367 -211.373)"/><path class="a" d="M1815.254,1373.278a2.661,2.661,0,0,1,3.423-1.55,1155.125,1155.125,0,0,1-172.472-82.269,2.661,2.661,0,0,1-1.347,4.957,2.61,2.61,0,0,1-1.339-.365,1159.944,1159.944,0,0,0,173.276,82.658A2.662,2.662,0,0,1,1815.254,1373.278Z" transform="translate(-587.389 -243.227)"/><path class="c" d="M1815.254,1373.278a2.661,2.661,0,0,1,3.423-1.55,1155.125,1155.125,0,0,1-172.472-82.269,2.661,2.661,0,0,1-1.347,4.957,2.61,2.61,0,0,1-1.339-.365,1159.944,1159.944,0,0,0,173.276,82.658A2.662,2.662,0,0,1,1815.254,1373.278Z" transform="translate(-587.389 -243.227)"/><path class="a" d="M1857.633,1395.972a2.661,2.661,0,0,0,.949-5.152h0a2.662,2.662,0,1,0-1.882,4.981h0A2.785,2.785,0,0,0,1857.633,1395.972Z" transform="translate(-627.285 -262.319)"/><path class="c" d="M1857.633,1395.972a2.661,2.661,0,0,0,.949-5.152h0a2.662,2.662,0,1,0-1.882,4.981h0A2.785,2.785,0,0,0,1857.633,1395.972Z" transform="translate(-627.285 -262.319)"/><path class="c" d="M1857.633,1395.972a2.661,2.661,0,0,0,.949-5.152h0a2.662,2.662,0,1,0-1.882,4.981h0A2.785,2.785,0,0,0,1857.633,1395.972Z" transform="translate(-627.285 -262.319)"/><path class="a" d="M1646.846,1293.01a2.661,2.661,0,1,0-3.643.957,2.6,2.6,0,0,0,1.339.365A2.654,2.654,0,0,0,1646.846,1293.01Z" transform="translate(-587.081 -243.142)"/><path class="c" d="M1646.846,1293.01a2.661,2.661,0,1,0-3.643.957,2.6,2.6,0,0,0,1.339.365A2.654,2.654,0,0,0,1646.846,1293.01Z" transform="translate(-587.081 -243.142)"/><path class="c" d="M1646.846,1293.01a2.661,2.661,0,1,0-3.643.957,2.6,2.6,0,0,0,1.339.365A2.654,2.654,0,0,0,1646.846,1293.01Z" transform="translate(-587.081 -243.142)"/><path class="a" d="M1171.655,941.552c-20.543-26.774-40.185-54.651-58.416-82.983a2.661,2.661,0,0,0-4.479,2.872c18.279,28.461,38.011,56.5,58.635,83.356,10.677,13.9,21.808,27.747,33.078,41.167a2.661,2.661,0,0,0,2.037.949,2.619,2.619,0,0,0,1.711-.625,2.653,2.653,0,0,0,.325-3.748C1193.358,969.178,1182.283,955.385,1171.655,941.552Z" transform="translate(-486.423 -161.711)"/><path class="c" d="M1171.655,941.552c-20.543-26.774-40.185-54.651-58.416-82.983a2.661,2.661,0,0,0-4.479,2.872c18.279,28.461,38.011,56.5,58.635,83.356,10.677,13.9,21.808,27.747,33.078,41.167a2.661,2.661,0,0,0,2.037.949,2.619,2.619,0,0,0,1.711-.625,2.653,2.653,0,0,0,.325-3.748C1193.358,969.178,1182.283,955.385,1171.655,941.552Z" transform="translate(-486.423 -161.711)"/><path class="a" d="M1746.135,1410.559a2.661,2.661,0,0,1,3.513-1.347c-16.121-7.172-32.307-14.8-48.1-22.717a2.662,2.662,0,1,0-2.377,4.763c15.87,7.919,32.121,15.578,48.323,22.774a2.653,2.653,0,0,1-1.355-3.473Z" transform="translate(-597.61 -261.482)"/><path class="c" d="M1746.135,1410.559a2.661,2.661,0,0,1,3.513-1.347c-16.121-7.172-32.307-14.8-48.1-22.717a2.662,2.662,0,1,0-2.377,4.763c15.87,7.919,32.121,15.578,48.323,22.774a2.653,2.653,0,0,1-1.355-3.473Z" transform="translate(-597.61 -261.482)"/><path class="a" d="M1897.961,1465.576a1200.534,1200.534,0,0,1-136.733-51.016,2.662,2.662,0,1,1-2.158,4.868,1204.4,1204.4,0,0,0,137.333,51.244,2.6,2.6,0,0,0,.811.122,2.661,2.661,0,0,0,.812-5.209Z" transform="translate(-609.19 -266.83)"/><path class="c" d="M1897.961,1465.576a1200.534,1200.534,0,0,1-136.733-51.016,2.662,2.662,0,1,1-2.158,4.868,1204.4,1204.4,0,0,0,137.333,51.244,2.6,2.6,0,0,0,.811.122,2.661,2.661,0,0,0,.812-5.209Z" transform="translate(-609.19 -266.83)"/><path class="a" d="M1762.213,1418.014a2.669,2.669,0,1,0-2.434,1.574A2.669,2.669,0,0,0,1762.213,1418.014Z" transform="translate(-608.82 -266.772)"/><path class="c" d="M1762.213,1418.014a2.669,2.669,0,1,0-2.434,1.574A2.669,2.669,0,0,0,1762.213,1418.014Z" transform="translate(-608.82 -266.772)"/><path class="c" d="M1762.213,1418.014a2.669,2.669,0,1,0-2.434,1.574A2.669,2.669,0,0,0,1762.213,1418.014Z" transform="translate(-608.82 -266.772)"/><path class="a" d="M838.4,293.117a1250.608,1250.608,0,0,0,69.157,229.874,1256.269,1256.269,0,0,0,109.611,209.023A1265.44,1265.44,0,0,0,1162.6,915.56a2.663,2.663,0,1,1,3.846-3.684,1260.984,1260.984,0,0,1-144.83-182.768A1251.134,1251.134,0,0,1,912.463,520.971a1245.456,1245.456,0,0,1-68.858-228.892A1261.628,1261.628,0,0,1,819.622,47.057c0-15.618.3-31.358.876-47.057h-5.331c-.576,15.667-.868,31.407-.868,47.057a1267.42,1267.42,0,0,0,24.121,246.181Z" transform="translate(-430.939 0.057)"/><path class="c" d="M838.4,293.117a1250.608,1250.608,0,0,0,69.157,229.874,1256.269,1256.269,0,0,0,109.611,209.023A1265.44,1265.44,0,0,0,1162.6,915.56a2.663,2.663,0,1,1,3.846-3.684,1260.984,1260.984,0,0,1-144.83-182.768A1251.134,1251.134,0,0,1,912.463,520.971a1245.456,1245.456,0,0,1-68.858-228.892A1261.628,1261.628,0,0,1,819.622,47.057c0-15.618.3-31.358.876-47.057h-5.331c-.576,15.667-.868,31.407-.868,47.057a1267.42,1267.42,0,0,0,24.121,246.181Z" transform="translate(-430.939 0.057)"/><path class="a" d="M1398.933,1262.124a2.67,2.67,0,0,1,3.732-.536,1262.106,1262.106,0,0,1-155.24-137.658,2.663,2.663,0,0,1-3.846,3.683,1268.854,1268.854,0,0,0,155.889,138.234A2.661,2.661,0,0,1,1398.933,1262.124Z" transform="translate(-511.932 -211.996)"/><path class="c" d="M1398.933,1262.124a2.67,2.67,0,0,1,3.732-.536,1262.106,1262.106,0,0,1-155.24-137.658,2.663,2.663,0,0,1-3.846,3.683,1268.854,1268.854,0,0,0,155.889,138.234A2.661,2.661,0,0,1,1398.933,1262.124Z" transform="translate(-511.932 -211.996)"/><path class="a" d="M1247.171,1127.5a2.669,2.669,0,1,0-1.842.738A2.669,2.669,0,0,0,1247.171,1127.5Z" transform="translate(-511.758 -211.802)"/><path class="c" d="M1247.171,1127.5a2.669,2.669,0,1,0-1.842.738A2.669,2.669,0,0,0,1247.171,1127.5Z" transform="translate(-511.758 -211.802)"/><path class="c" d="M1247.171,1127.5a2.669,2.669,0,1,0-1.842.738A2.669,2.669,0,0,0,1247.171,1127.5Z" transform="translate(-511.758 -211.802)"/><path class="a" d="M1730.078,1459.063a2.661,2.661,0,0,1,3.448-1.509,1249.812,1249.812,0,0,1-294.61-163.953,2.663,2.663,0,1,1-3.2,4.259,1255.136,1255.136,0,0,0,295.868,164.651A2.661,2.661,0,0,1,1730.078,1459.063Z" transform="translate(-548.183 -244.008)"/><path class="c" d="M1730.078,1459.063a2.661,2.661,0,0,1,3.448-1.509,1249.812,1249.812,0,0,1-294.61-163.953,2.663,2.663,0,1,1-3.2,4.259,1255.136,1255.136,0,0,0,295.868,164.651A2.661,2.661,0,0,1,1730.078,1459.063Z" transform="translate(-548.183 -244.008)"/><path class="a" d="M1803.441,1499.073a2.669,2.669,0,1,0-2.483,1.7A2.669,2.669,0,0,0,1803.441,1499.073Z" transform="translate(-616.589 -282.088)"/><path class="c" d="M1803.441,1499.073a2.669,2.669,0,1,0-2.483,1.7A2.669,2.669,0,0,0,1803.441,1499.073Z" transform="translate(-616.589 -282.088)"/><path class="c" d="M1803.441,1499.073a2.669,2.669,0,1,0-2.483,1.7A2.669,2.669,0,0,0,1803.441,1499.073Z" transform="translate(-616.589 -282.088)"/><path class="a" d="M1439.2,1297.192a2.677,2.677,0,1,0-2.134,1.063A2.677,2.677,0,0,0,1439.2,1297.192Z" transform="translate(-547.932 -243.876)"/><path class="c" d="M1439.2,1297.192a2.677,2.677,0,1,0-2.134,1.063A2.677,2.677,0,0,0,1439.2,1297.192Z" transform="translate(-547.932 -243.876)"/><path class="c" d="M1439.2,1297.192a2.677,2.677,0,1,0-2.134,1.063A2.677,2.677,0,0,0,1439.2,1297.192Z" transform="translate(-547.932 -243.876)"/><path class="a" d="M1349.216,1296.165c-23.942-19.107-47.5-39.309-70.034-60.039a2.662,2.662,0,1,0-3.6,3.919c22.62,20.827,46.246,41.11,70.318,60.3a2.661,2.661,0,0,0,3.318-4.162Z" transform="translate(-517.807 -233.032)"/><path class="c" d="M1349.216,1296.165c-23.942-19.107-47.5-39.309-70.034-60.039a2.662,2.662,0,1,0-3.6,3.919c22.62,20.827,46.246,41.11,70.318,60.3a2.661,2.661,0,0,0,3.318-4.162Z" transform="translate(-517.807 -233.032)"/><path class="a" d="M988.938,868.795A1307.7,1307.7,0,0,1,860.894,620.2a2.661,2.661,0,1,0-4.966,1.915A1313.136,1313.136,0,0,0,984.492,871.724a1302.7,1302.7,0,0,0,180.845,218.207,2.662,2.662,0,0,0,3.708-3.821A1296.7,1296.7,0,0,1,988.938,868.795Z" transform="translate(-438.759 -116.636)"/><path class="c" d="M988.938,868.795A1307.7,1307.7,0,0,1,860.894,620.2a2.661,2.661,0,1,0-4.966,1.915A1313.136,1313.136,0,0,0,984.492,871.724a1302.7,1302.7,0,0,0,180.845,218.207,2.662,2.662,0,0,0,3.708-3.821A1296.7,1296.7,0,0,1,988.938,868.795Z" transform="translate(-438.759 -116.636)"/><path class="a" d="M1458.657,1451c-20.657-13.127-41.224-27.009-61.15-41.256a2.661,2.661,0,0,0-3.091,4.324c20,14.312,40.648,28.242,61.385,41.426a2.6,2.6,0,0,0,1.42.414,2.661,2.661,0,0,0,1.436-4.868Z" transform="translate(-540.2 -265.841)"/><path class="c" d="M1458.657,1451c-20.657-13.127-41.224-27.009-61.15-41.256a2.661,2.661,0,0,0-3.091,4.324c20,14.312,40.648,28.242,61.385,41.426a2.6,2.6,0,0,0,1.42.414,2.661,2.661,0,0,0,1.436-4.868Z" transform="translate(-540.2 -265.841)"/><path class="a" d="M716.877,284.079h0a2.661,2.661,0,0,1,5.241-.925A1360.663,1360.663,0,0,1,701.5,47.057c0-15.618.268-31.35.811-47.057h-5.322c-.535,15.675-.811,31.407-.811,47.057A1366.188,1366.188,0,0,0,716.9,284.232Z" transform="translate(-408.653 0.057)"/><path class="c" d="M716.877,284.079h0a2.661,2.661,0,0,1,5.241-.925A1360.663,1360.663,0,0,1,701.5,47.057c0-15.618.268-31.35.811-47.057h-5.322c-.535,15.675-.811,31.407-.811,47.057A1366.188,1366.188,0,0,0,716.9,284.232Z" transform="translate(-408.653 0.057)"/><path class="a" d="M724.773,352.083a3.065,3.065,0,0,1-.47.041,2.661,2.661,0,0,1-2.613-2.2A1343.455,1343.455,0,0,0,838.968,708.792a2.661,2.661,0,1,0,4.77-2.345A1338.629,1338.629,0,0,1,726.931,349a2.669,2.669,0,0,1-2.158,3.083Z" transform="translate(-413.466 -65.79)"/><path class="c" d="M724.773,352.083a3.065,3.065,0,0,1-.47.041,2.661,2.661,0,0,1-2.613-2.2A1343.455,1343.455,0,0,0,838.968,708.792a2.661,2.661,0,1,0,4.77-2.345A1338.629,1338.629,0,0,1,726.931,349a2.669,2.669,0,0,1-2.158,3.083Z" transform="translate(-413.466 -65.79)"/><path class="a" d="M723.838,346.33a2.653,2.653,0,0,0-2.158,3.083h0a2.661,2.661,0,0,0,2.612,2.2,3.081,3.081,0,0,0,.471-.041,2.661,2.661,0,1,0-.925-5.241Z" transform="translate(-413.456 -65.278)"/><path class="c" d="M723.838,346.33a2.653,2.653,0,0,0-2.158,3.083h0a2.661,2.661,0,0,0,2.612,2.2,3.081,3.081,0,0,0,.471-.041,2.661,2.661,0,1,0-.925-5.241Z" transform="translate(-413.456 -65.278)"/><path class="c" d="M723.838,346.33a2.653,2.653,0,0,0-2.158,3.083h0a2.661,2.661,0,0,0,2.612,2.2,3.081,3.081,0,0,0,.471-.041,2.661,2.661,0,1,0-.925-5.241Z" transform="translate(-413.456 -65.278)"/><path class="a" d="M1788.464,1644.493a2.67,2.67,0,0,1,3.245-1.931,1387.181,1387.181,0,0,1-342.283-137.39A1400.672,1400.672,0,0,1,1159.133,1286.6a2.662,2.662,0,0,1-3.733,3.8,1406.15,1406.15,0,0,0,291.43,219.375A1392.629,1392.629,0,0,0,1790.419,1647.7h0a2.661,2.661,0,0,1-1.955-3.2Z" transform="translate(-495.295 -242.688)"/><path class="c" d="M1788.464,1644.493a2.67,2.67,0,0,1,3.245-1.931,1387.181,1387.181,0,0,1-342.283-137.39A1400.672,1400.672,0,0,1,1159.133,1286.6a2.662,2.662,0,0,1-3.733,3.8,1406.15,1406.15,0,0,0,291.43,219.375A1392.629,1392.629,0,0,0,1790.419,1647.7h0a2.661,2.661,0,0,1-1.955-3.2Z" transform="translate(-495.295 -242.688)"/><path class="a" d="M1940.781,1728.559a2.661,2.661,0,1,0-3.245,1.923h0a2.6,2.6,0,0,0,.657.081,2.653,2.653,0,0,0,2.588-2Z" transform="translate(-642.485 -325.447)"/><path class="c" d="M1940.781,1728.559a2.661,2.661,0,1,0-3.245,1.923h0a2.6,2.6,0,0,0,.657.081,2.653,2.653,0,0,0,2.588-2Z" transform="translate(-642.485 -325.447)"/><path class="c" d="M1940.781,1728.559a2.661,2.661,0,1,0-3.245,1.923h0a2.6,2.6,0,0,0,.657.081,2.653,2.653,0,0,0,2.588-2Z" transform="translate(-642.485 -325.447)"/><path class="a" d="M715.207,509.377h0a2.661,2.661,0,1,1,5.022-1.761,1392.3,1392.3,0,0,1-77.8-460.6c0-15.618.268-31.35.811-47.057h-5.331c-.519,15.675-.811,31.407-.811,47.057A1398.078,1398.078,0,0,0,715.207,509.377Z" transform="translate(-397.506 0.064)"/><path class="c" d="M715.207,509.377h0a2.661,2.661,0,1,1,5.022-1.761,1392.3,1392.3,0,0,1-77.8-460.6c0-15.618.268-31.35.811-47.057h-5.331c-.519,15.675-.811,31.407-.811,47.057A1398.078,1398.078,0,0,0,715.207,509.377Z" transform="translate(-397.506 0.064)"/><path class="a" d="M736.761,629.061a2.557,2.557,0,0,1-.876.154,2.669,2.669,0,0,1-2.515-1.785,1398.727,1398.727,0,0,0,69.271,163.758,2.661,2.661,0,0,0,4.763-2.377A1392.314,1392.314,0,0,1,738.392,625.67,2.661,2.661,0,0,1,736.761,629.061Z" transform="translate(-415.67 -117.989)"/><path class="c" d="M736.761,629.061a2.557,2.557,0,0,1-.876.154,2.669,2.669,0,0,1-2.515-1.785,1398.727,1398.727,0,0,0,69.271,163.758,2.661,2.661,0,0,0,4.763-2.377A1392.314,1392.314,0,0,1,738.392,625.67,2.661,2.661,0,0,1,736.761,629.061Z" transform="translate(-415.67 -117.989)"/><path class="a" d="M734.978,623.632a2.661,2.661,0,0,0-1.623,3.391h0a2.669,2.669,0,0,0,2.515,1.785,2.555,2.555,0,0,0,.876-.154,2.661,2.661,0,0,0-1.752-5.022Z" transform="translate(-415.638 -117.582)"/><path class="c" d="M734.978,623.632a2.661,2.661,0,0,0-1.623,3.391h0a2.669,2.669,0,0,0,2.515,1.785,2.555,2.555,0,0,0,.876-.154,2.661,2.661,0,0,0-1.752-5.022Z" transform="translate(-415.638 -117.582)"/><path class="c" d="M734.978,623.632a2.661,2.661,0,0,0-1.623,3.391h0a2.669,2.669,0,0,0,2.515,1.785,2.555,2.555,0,0,0,.876-.154,2.661,2.661,0,0,0-1.752-5.022Z" transform="translate(-415.638 -117.582)"/><path class="a" d="M1113.269,1236.263a2.669,2.669,0,0,1,3.765-.041h0A1404.764,1404.764,0,0,1,937.259,1020.8a2.661,2.661,0,1,0-4.406,2.986A1410.249,1410.249,0,0,0,1113.3,1240.028,2.661,2.661,0,0,1,1113.269,1236.263Z" transform="translate(-453.22 -192.318)"/><path class="c" d="M1113.269,1236.263a2.669,2.669,0,0,1,3.765-.041h0A1404.764,1404.764,0,0,1,937.259,1020.8a2.661,2.661,0,1,0-4.406,2.986A1410.249,1410.249,0,0,0,1113.3,1240.028,2.661,2.661,0,0,1,1113.269,1236.263Z" transform="translate(-453.22 -192.318)"/><path class="a" d="M1158.949,1290.181a2.653,2.653,0,0,0,0-3.756h0a2.69,2.69,0,1,0,0,3.756Z" transform="translate(-495.112 -242.512)"/><path class="c" d="M1158.949,1290.181a2.653,2.653,0,0,0,0-3.756h0a2.69,2.69,0,1,0,0,3.756Z" transform="translate(-495.112 -242.512)"/><path class="c" d="M1158.949,1290.181a2.653,2.653,0,0,0,0-3.756h0a2.69,2.69,0,1,0,0,3.756Z" transform="translate(-495.112 -242.512)"/><path class="a" d="M617.768,385.381A1440.976,1440.976,0,0,0,730.786,695.2a2.645,2.645,0,0,0,2.377,1.468,2.605,2.605,0,0,0,1.193-.284,2.661,2.661,0,0,0,1.185-3.57,1436.108,1436.108,0,0,1-112.6-308.7A1450.654,1450.654,0,0,1,583.376,47.057c0-15.618.251-31.35.754-47.057h-5.306c-.5,15.675-.754,31.407-.754,47.057a1455.949,1455.949,0,0,0,39.7,338.324Z" transform="translate(-386.369 0.057)"/><path class="c" d="M617.768,385.381A1440.976,1440.976,0,0,0,730.786,695.2a2.645,2.645,0,0,0,2.377,1.468,2.605,2.605,0,0,0,1.193-.284,2.661,2.661,0,0,0,1.185-3.57,1436.108,1436.108,0,0,1-112.6-308.7A1450.654,1450.654,0,0,1,583.376,47.057c0-15.618.251-31.35.754-47.057h-5.306c-.5,15.675-.754,31.407-.754,47.057a1455.949,1455.949,0,0,0,39.7,338.324Z" transform="translate(-386.369 0.057)"/><path class="a" d="M842.876,988.328a2.669,2.669,0,0,0-.868,3.667,1457.825,1457.825,0,0,0,93.424,134.161,2.661,2.661,0,0,1,4.195-3.245A1452.727,1452.727,0,0,1,846.535,989.2a2.653,2.653,0,0,0-3.659-.876Z" transform="translate(-436.092 -186.338)"/><path class="c" d="M842.876,988.328a2.669,2.669,0,0,0-.868,3.667,1457.825,1457.825,0,0,0,93.424,134.161,2.661,2.661,0,0,1,4.195-3.245A1452.727,1452.727,0,0,1,846.535,989.2a2.653,2.653,0,0,0-3.659-.876Z" transform="translate(-436.092 -186.338)"/><path class="a" d="M960.99,1158a2.661,2.661,0,0,1-3.74-.454,1458.523,1458.523,0,0,0,246.855,247.212,1449.827,1449.827,0,0,0,300.508,181.989,2.729,2.729,0,0,0,1.087.235,2.661,2.661,0,0,0,1.1-5.1,1444.055,1444.055,0,0,1-299.38-181.307A1453.285,1453.285,0,0,1,961.461,1154.3a2.669,2.669,0,0,1-.471,3.7Z" transform="translate(-457.91 -217.726)"/><path class="c" d="M960.99,1158a2.661,2.661,0,0,1-3.74-.454,1458.523,1458.523,0,0,0,246.855,247.212,1449.827,1449.827,0,0,0,300.508,181.989,2.729,2.729,0,0,0,1.087.235,2.661,2.661,0,0,0,1.1-5.1,1444.055,1444.055,0,0,1-299.38-181.307A1453.285,1453.285,0,0,1,961.461,1154.3a2.669,2.669,0,0,1-.471,3.7Z" transform="translate(-457.91 -217.726)"/><path class="a" d="M957.573,1153.568a2.661,2.661,0,1,0,3.74.455A2.661,2.661,0,0,0,957.573,1153.568Z" transform="translate(-457.778 -217.482)"/><path class="c" d="M957.573,1153.568a2.661,2.661,0,1,0,3.74.455A2.661,2.661,0,0,0,957.573,1153.568Z" transform="translate(-457.778 -217.482)"/><path class="c" d="M957.573,1153.568a2.661,2.661,0,1,0,3.74.455A2.661,2.661,0,0,0,957.573,1153.568Z" transform="translate(-457.778 -217.482)"/><path class="a" d="M543.127,316.2a2.669,2.669,0,0,0,2.612,2.191,2.43,2.43,0,0,0,.479-.049,2.653,2.653,0,0,0,2.142-3.091A1505.328,1505.328,0,0,1,524.312,47.057c0-15.618.251-31.342.738-47.057h-5.33c-.479,15.683-.73,31.407-.73,47.057a1511.07,1511.07,0,0,0,24.17,269.324Z" transform="translate(-375.222 0.057)"/><path class="c" d="M543.127,316.2a2.669,2.669,0,0,0,2.612,2.191,2.43,2.43,0,0,0,.479-.049,2.653,2.653,0,0,0,2.142-3.091A1505.328,1505.328,0,0,1,524.312,47.057c0-15.618.251-31.342.738-47.057h-5.33c-.479,15.683-.73,31.407-.73,47.057a1511.07,1511.07,0,0,0,24.17,269.324Z" transform="translate(-375.222 0.057)"/><path class="a" d="M677.12,798.633a2.669,2.669,0,0,1,3.521,1.339c-7.3-16.227-14.409-32.786-21.095-49.248a2.664,2.664,0,0,0-4.933,2.012c6.734,16.519,13.858,33.143,21.184,49.418A2.669,2.669,0,0,1,677.12,798.633Z" transform="translate(-400.773 -141.27)"/><path class="c" d="M677.12,798.633a2.669,2.669,0,0,1,3.521,1.339c-7.3-16.227-14.409-32.786-21.095-49.248a2.664,2.664,0,0,0-4.933,2.012c6.734,16.519,13.858,33.143,21.184,49.418A2.669,2.669,0,0,1,677.12,798.633Z" transform="translate(-400.773 -141.27)"/><path class="a" d="M777.339,989.32a2.67,2.67,0,0,1,3.667.812,1492.6,1492.6,0,0,1-95.4-178.322,2.669,2.669,0,0,1-1.339,3.521,2.735,2.735,0,0,1-1.087.235,2.669,2.669,0,0,1-2.434-1.574,1498.618,1498.618,0,0,0,95.737,179A2.661,2.661,0,0,1,777.339,989.32Z" transform="translate(-405.742 -153.108)"/><path class="c" d="M777.339,989.32a2.67,2.67,0,0,1,3.667.812,1492.6,1492.6,0,0,1-95.4-178.322,2.669,2.669,0,0,1-1.339,3.521,2.735,2.735,0,0,1-1.087.235,2.669,2.669,0,0,1-2.434-1.574,1498.618,1498.618,0,0,0,95.737,179A2.661,2.661,0,0,1,777.339,989.32Z" transform="translate(-405.742 -153.108)"/><path class="a" d="M683.13,815.2a2.737,2.737,0,0,0,1.087-.235,2.661,2.661,0,1,0-1.087.235Z" transform="translate(-405.687 -152.744)"/><path class="c" d="M683.13,815.2a2.737,2.737,0,0,0,1.087-.235,2.661,2.661,0,1,0-1.087.235Z" transform="translate(-405.687 -152.744)"/><path class="c" d="M683.13,815.2a2.737,2.737,0,0,0,1.087-.235,2.661,2.661,0,1,0-1.087.235Z" transform="translate(-405.687 -152.744)"/><path class="a" d="M1270.848,1505.21a2.661,2.661,0,0,1,3.675-.811A1499.12,1499.12,0,0,1,803.271,1031.67a2.661,2.661,0,1,1-4.511,2.824A1504.4,1504.4,0,0,0,1271.683,1508.9a2.669,2.669,0,0,1-.835-3.692Z" transform="translate(-428.007 -194.59)"/><path class="c" d="M1270.848,1505.21a2.661,2.661,0,0,1,3.675-.811A1499.12,1499.12,0,0,1,803.271,1031.67a2.661,2.661,0,1,1-4.511,2.824A1504.4,1504.4,0,0,0,1271.683,1508.9a2.669,2.669,0,0,1-.835-3.692Z" transform="translate(-428.007 -194.59)"/><path class="a" d="M1385.035,1617.867a2.669,2.669,0,1,0-2.247,1.242A2.669,2.669,0,0,0,1385.035,1617.867Z" transform="translate(-537.691 -304.415)"/><path class="c" d="M1385.035,1617.867a2.669,2.669,0,1,0-2.247,1.242A2.669,2.669,0,0,0,1385.035,1617.867Z" transform="translate(-537.691 -304.415)"/><path class="c" d="M1385.035,1617.867a2.669,2.669,0,1,0-2.247,1.242A2.669,2.669,0,0,0,1385.035,1617.867Z" transform="translate(-537.691 -304.415)"/><path class="a" d="M800.921,1035.422a2.661,2.661,0,1,0-2.255-1.249A2.661,2.661,0,0,0,800.921,1035.422Z" transform="translate(-427.913 -194.293)"/><path class="c" d="M800.921,1035.422a2.661,2.661,0,1,0-2.255-1.249A2.661,2.661,0,0,0,800.921,1035.422Z" transform="translate(-427.913 -194.293)"/><path class="c" d="M800.921,1035.422a2.661,2.661,0,1,0-2.255-1.249A2.661,2.661,0,0,0,800.921,1035.422Z" transform="translate(-427.913 -194.293)"/><path class="a" d="M909.389,1277.425a2.662,2.662,0,1,0,3.951-3.57A1548.02,1548.02,0,0,1,736.9,1036.331a2.662,2.662,0,1,0-4.56,2.75,1553.471,1553.471,0,0,0,177.049,238.344Z" transform="translate(-415.403 -195.226)"/><path class="c" d="M909.389,1277.425a2.662,2.662,0,1,0,3.951-3.57A1548.02,1548.02,0,0,1,736.9,1036.331a2.662,2.662,0,1,0-4.56,2.75,1553.471,1553.471,0,0,0,177.049,238.344Z" transform="translate(-415.403 -195.226)"/><path class="a" d="M1213.616,1566.773a2.661,2.661,0,1,0,3.067-4.349A1550.563,1550.563,0,0,1,980.31,1357.255a2.661,2.661,0,0,0-3.878,3.643,1556.034,1556.034,0,0,0,237.184,205.875Z" transform="translate(-461.4 -255.868)"/><path class="c" d="M1213.616,1566.773a2.661,2.661,0,1,0,3.067-4.349A1550.563,1550.563,0,0,1,980.31,1357.255a2.661,2.661,0,0,0-3.878,3.643,1556.034,1556.034,0,0,0,237.184,205.875Z" transform="translate(-461.4 -255.868)"/><path class="a" d="M591.52,746.491a2.768,2.768,0,0,0,1.006-.195,2.661,2.661,0,0,0,1.46-3.464c-16.729-41.069-31.772-83.332-44.818-125.659a2.663,2.663,0,0,0-5.087,1.574c13.087,42.465,28.218,84.881,44.972,126.064a2.669,2.669,0,0,0,2.466,1.68Z" transform="translate(-379.934 -116.032)"/><path class="c" d="M591.52,746.491a2.768,2.768,0,0,0,1.006-.195,2.661,2.661,0,0,0,1.46-3.464c-16.729-41.069-31.772-83.332-44.818-125.659a2.663,2.663,0,0,0-5.087,1.574c13.087,42.465,28.218,84.881,44.972,126.064a2.669,2.669,0,0,0,2.466,1.68Z" transform="translate(-379.934 -116.032)"/><path class="a" d="M424.892,324.2a2.664,2.664,0,0,1,5.249-.917h0A1602.018,1602.018,0,0,1,406.182,47.057c0-15.618.235-31.342.69-47.057H401.55c-.454,15.683-.69,31.407-.69,47.057a1608.939,1608.939,0,0,0,24.055,277.274Z" transform="translate(-352.935 0.057)"/><path class="c" d="M424.892,324.2a2.664,2.664,0,0,1,5.249-.917h0A1602.018,1602.018,0,0,1,406.182,47.057c0-15.618.235-31.342.69-47.057H401.55c-.454,15.683-.69,31.407-.69,47.057a1608.939,1608.939,0,0,0,24.055,277.274Z" transform="translate(-352.935 0.057)"/><path class="a" d="M433.563,401.535a2.227,2.227,0,0,1-.462.041,2.669,2.669,0,0,1-2.621-2.2,1589.187,1589.187,0,0,0,44.315,185.795,2.661,2.661,0,0,0,2.547,1.89,2.765,2.765,0,0,0,.771-.114,2.661,2.661,0,0,0,1.777-3.326A1581.673,1581.673,0,0,1,435.77,398.46a2.661,2.661,0,0,1-2.207,3.075Z" transform="translate(-358.523 -75.121)"/><path class="c" d="M433.563,401.535a2.227,2.227,0,0,1-.462.041,2.669,2.669,0,0,1-2.621-2.2,1589.187,1589.187,0,0,0,44.315,185.795,2.661,2.661,0,0,0,2.547,1.89,2.765,2.765,0,0,0,.771-.114,2.661,2.661,0,0,0,1.777-3.326A1581.673,1581.673,0,0,1,435.77,398.46a2.661,2.661,0,0,1-2.207,3.075Z" transform="translate(-358.523 -75.121)"/><path class="a" d="M432.639,395.781a2.661,2.661,0,0,0,.454,5.282,2.231,2.231,0,0,0,.462-.041,2.661,2.661,0,0,0,2.166-3.075h0A2.669,2.669,0,0,0,432.639,395.781Z" transform="translate(-358.516 -74.608)"/><path class="c" d="M432.639,395.781a2.661,2.661,0,0,0,.454,5.282,2.231,2.231,0,0,0,.462-.041,2.661,2.661,0,0,0,2.166-3.075h0A2.669,2.669,0,0,0,432.639,395.781Z" transform="translate(-358.516 -74.608)"/><path class="c" d="M432.639,395.781a2.661,2.661,0,0,0,.454,5.282,2.231,2.231,0,0,0,.462-.041,2.661,2.661,0,0,0,2.166-3.075h0A2.669,2.669,0,0,0,432.639,395.781Z" transform="translate(-358.516 -74.608)"/><path class="a" d="M566.18,840.277a2.669,2.669,0,0,0-1.371,3.505A1593.934,1593.934,0,0,0,707.6,1101.639a1604.265,1604.265,0,0,0,186.378,225.752,2.662,2.662,0,0,0,3.781-3.749,1599.337,1599.337,0,0,1-185.794-225.005,1588.6,1588.6,0,0,1-142.283-257A2.661,2.661,0,0,0,566.18,840.277Z" transform="translate(-383.825 -158.437)"/><path class="c" d="M566.18,840.277a2.669,2.669,0,0,0-1.371,3.505A1593.934,1593.934,0,0,0,707.6,1101.639a1604.265,1604.265,0,0,0,186.378,225.752,2.662,2.662,0,0,0,3.781-3.749,1599.337,1599.337,0,0,1-185.794-225.005,1588.6,1588.6,0,0,1-142.283-257A2.661,2.661,0,0,0,566.18,840.277Z" transform="translate(-383.825 -158.437)"/><path class="a" d="M1241.486,1735.967a2.661,2.661,0,0,0,.738,3.692,1640.728,1640.728,0,0,0,269.54,145.528,1632.98,1632.98,0,0,0,296.9,93.627,2.622,2.622,0,0,0,.56.057,2.661,2.661,0,0,0,.552-5.266,1626.772,1626.772,0,0,1-295.924-93.3,1634.813,1634.813,0,0,1-268.672-145.057,2.661,2.661,0,0,0-3.692.722Z" transform="translate(-511.452 -327.249)"/><path class="c" d="M1241.486,1735.967a2.661,2.661,0,0,0,.738,3.692,1640.728,1640.728,0,0,0,269.54,145.528,1632.98,1632.98,0,0,0,296.9,93.627,2.622,2.622,0,0,0,.56.057,2.661,2.661,0,0,0,.552-5.266,1626.772,1626.772,0,0,1-295.924-93.3,1634.813,1634.813,0,0,1-268.672-145.057,2.661,2.661,0,0,0-3.692.722Z" transform="translate(-511.452 -327.249)"/><path class="a" d="M1693.014,858.646a872.52,872.52,0,0,1-184.325-166.525A868.043,868.043,0,0,1,1378.308,479.18a2.661,2.661,0,1,1-4.868,2.093A873.169,873.169,0,0,0,1504.6,695.521,877.629,877.629,0,0,0,1690.045,863.06c144.116,96.889,312.467,148.1,486.8,148.1h2.661v-5.322h-2.661C2003.575,1005.838,1836.255,954.935,1693.014,858.646Z" transform="translate(-536.433 -90.351)"/><path class="a" d="M1693.014,858.646a872.52,872.52,0,0,1-184.325-166.525A868.043,868.043,0,0,1,1378.308,479.18a2.661,2.661,0,1,1-4.868,2.093A873.169,873.169,0,0,0,1504.6,695.521,877.629,877.629,0,0,0,1690.045,863.06c144.116,96.889,312.467,148.1,486.8,148.1h2.661v-5.322h-2.661C2003.575,1005.838,1836.255,954.935,1693.014,858.646Z" transform="translate(-536.433 -90.351)"/><path class="c" d="M1693.014,858.646a872.52,872.52,0,0,1-184.325-166.525A868.043,868.043,0,0,1,1378.308,479.18a2.661,2.661,0,1,1-4.868,2.093A873.169,873.169,0,0,0,1504.6,695.521,877.629,877.629,0,0,0,1690.045,863.06c144.116,96.889,312.467,148.1,486.8,148.1h2.661v-5.322h-2.661C2003.575,1005.838,1836.255,954.935,1693.014,858.646Z" transform="translate(-536.433 -90.351)"/><path class="a" d="M2298.614,1244.68a2.662,2.662,0,1,1-.138,5.322h-.146c17.557.941,35.406,1.42,53.053,1.42h2.661V1246.1h-2.661C2333.834,1246.1,2316.082,1245.621,2298.614,1244.68Z" transform="translate(-710.933 -234.778)"/><path class="a" d="M2298.614,1244.68a2.662,2.662,0,1,1-.138,5.322h-.146c17.557.941,35.406,1.42,53.053,1.42h2.661V1246.1h-2.661C2333.834,1246.1,2316.082,1245.621,2298.614,1244.68Z" transform="translate(-710.933 -234.778)"/><path class="c" d="M2298.614,1244.68a2.662,2.662,0,1,1-.138,5.322h-.146c17.557.941,35.406,1.42,53.053,1.42h2.661V1246.1h-2.661C2333.834,1246.1,2316.082,1245.621,2298.614,1244.68Z" transform="translate(-710.933 -234.778)"/><path class="a" d="M2054.694,1262.863a1006.7,1006.7,0,0,1-197.526-64.273,2.662,2.662,0,1,1-2.158,4.868,1012.2,1012.2,0,0,0,198.573,64.614,1024.011,1024.011,0,0,0,214.191,22.579h2.661v-5.322h-2.661a1018.933,1018.933,0,0,1-213.079-22.466Z" transform="translate(-627.291 -226.083)"/><path class="a" d="M2054.694,1262.863a1006.7,1006.7,0,0,1-197.526-64.273,2.662,2.662,0,1,1-2.158,4.868,1012.2,1012.2,0,0,0,198.573,64.614,1024.011,1024.011,0,0,0,214.191,22.579h2.661v-5.322h-2.661a1018.933,1018.933,0,0,1-213.079-22.466Z" transform="translate(-627.291 -226.083)"/><path class="c" d="M2054.694,1262.863a1006.7,1006.7,0,0,1-197.526-64.273,2.662,2.662,0,1,1-2.158,4.868,1012.2,1012.2,0,0,0,198.573,64.614,1024.011,1024.011,0,0,0,214.191,22.579h2.661v-5.322h-2.661a1018.933,1018.933,0,0,1-213.079-22.466Z" transform="translate(-627.291 -226.083)"/><path class="a" d="M1956.788,1362.2a2.661,2.661,0,1,0-1.582,5.079,1113.409,1113.409,0,0,0,331.071,50.059h2.662V1412h-2.662a1108.163,1108.163,0,0,1-329.489-49.808Z" transform="translate(-645.827 -256.923)"/><path class="a" d="M1956.788,1362.2a2.661,2.661,0,1,0-1.582,5.079,1113.409,1113.409,0,0,0,331.071,50.059h2.662V1412h-2.662a1108.163,1108.163,0,0,1-329.489-49.808Z" transform="translate(-645.827 -256.923)"/><path class="c" d="M1956.788,1362.2a2.661,2.661,0,1,0-1.582,5.079,1113.409,1113.409,0,0,0,331.071,50.059h2.662V1412h-2.662a1108.163,1108.163,0,0,1-329.489-49.808Z" transform="translate(-645.827 -256.923)"/><path class="a" d="M1858.98,1390.86h0a2.661,2.661,0,0,1-.949,5.152,2.789,2.789,0,0,1-.941-.171h0a1156.873,1156.873,0,0,0,411.043,74.845h2.662v-5.322h-2.662A1151.459,1151.459,0,0,1,1858.98,1390.86Z" transform="translate(-627.683 -262.359)"/><path class="a" d="M1858.98,1390.86h0a2.661,2.661,0,0,1-.949,5.152,2.789,2.789,0,0,1-.941-.171h0a1156.873,1156.873,0,0,0,411.043,74.845h2.662v-5.322h-2.662A1151.459,1151.459,0,0,1,1858.98,1390.86Z" transform="translate(-627.683 -262.359)"/><path class="c" d="M1858.98,1390.86h0a2.661,2.661,0,0,1-.949,5.152,2.789,2.789,0,0,1-.941-.171h0a1156.873,1156.873,0,0,0,411.043,74.845h2.662v-5.322h-2.662A1151.459,1151.459,0,0,1,1858.98,1390.86Z" transform="translate(-627.683 -262.359)"/><path class="a" d="M2022.564,1558.983a1246.466,1246.466,0,0,1-220.235-63.283,2.661,2.661,0,1,1-1.939,4.957,1251.951,1251.951,0,0,0,221.176,63.559,1267.691,1267.691,0,0,0,235.862,22.093h2.661v-5.322h-2.661a1263.094,1263.094,0,0,1-235.036-22.036Z" transform="translate(-616.986 -282.139)"/><path class="a" d="M2022.564,1558.983a1246.466,1246.466,0,0,1-220.235-63.283,2.661,2.661,0,1,1-1.939,4.957,1251.951,1251.951,0,0,0,221.176,63.559,1267.691,1267.691,0,0,0,235.862,22.093h2.661v-5.322h-2.661a1263.094,1263.094,0,0,1-235.036-22.036Z" transform="translate(-616.986 -282.139)"/><path class="c" d="M2022.564,1558.983a1246.466,1246.466,0,0,1-220.235-63.283,2.661,2.661,0,1,1-1.939,4.957,1251.951,1251.951,0,0,0,221.176,63.559,1267.691,1267.691,0,0,0,235.862,22.093h2.661v-5.322h-2.661a1263.094,1263.094,0,0,1-235.036-22.036Z" transform="translate(-616.986 -282.139)"/><path class="a" d="M1651.751,1552.988a2.661,2.661,0,1,0-2.337,4.779,1343.687,1343.687,0,0,0,581.9,136.547v-5.338a1337.989,1337.989,0,0,1-579.564-135.987Z" transform="translate(-588.205 -292.889)"/><path class="a" d="M1651.751,1552.988a2.661,2.661,0,1,0-2.337,4.779,1343.687,1343.687,0,0,0,581.9,136.547v-5.338a1337.989,1337.989,0,0,1-579.564-135.987Z" transform="translate(-588.205 -292.889)"/><path class="c" d="M1651.751,1552.988a2.661,2.661,0,1,0-2.337,4.779,1343.687,1343.687,0,0,0,581.9,136.547v-5.338a1337.989,1337.989,0,0,1-579.564-135.987Z" transform="translate(-588.205 -292.889)"/><path class="a" d="M1939.366,1725.34a2.661,2.661,0,0,1-.649,5.241,2.588,2.588,0,0,1-.657-.081,1406.239,1406.239,0,0,0,345.35,42.9h2.661v-5.33h-2.661A1400.757,1400.757,0,0,1,1939.366,1725.34Z" transform="translate(-642.96 -325.465)"/><path class="a" d="M1939.366,1725.34a2.661,2.661,0,0,1-.649,5.241,2.588,2.588,0,0,1-.657-.081,1406.239,1406.239,0,0,0,345.35,42.9h2.661v-5.33h-2.661A1400.757,1400.757,0,0,1,1939.366,1725.34Z" transform="translate(-642.96 -325.465)"/><path class="c" d="M1939.366,1725.34a2.661,2.661,0,0,1-.649,5.241,2.588,2.588,0,0,1-.657-.081,1406.239,1406.239,0,0,0,345.35,42.9h2.661v-5.33h-2.661A1400.757,1400.757,0,0,1,1939.366,1725.34Z" transform="translate(-642.96 -325.465)"/><path class="a" d="M1976.668,1790.447a1436.848,1436.848,0,0,1-249.978-70.488,2.662,2.662,0,0,0-1.9,4.974,1441.933,1441.933,0,0,0,250.9,70.788A1460.975,1460.975,0,0,0,2242.85,1820.3h2.661v-5.322h-2.661a1456.185,1456.185,0,0,1-266.182-24.535Z" transform="translate(-602.399 -324.417)"/><path class="a" d="M1976.668,1790.447a1436.848,1436.848,0,0,1-249.978-70.488,2.662,2.662,0,0,0-1.9,4.974,1441.933,1441.933,0,0,0,250.9,70.788A1460.975,1460.975,0,0,0,2242.85,1820.3h2.661v-5.322h-2.661a1456.185,1456.185,0,0,1-266.182-24.535Z" transform="translate(-602.399 -324.417)"/><path class="c" d="M1976.668,1790.447a1436.848,1436.848,0,0,1-249.978-70.488,2.662,2.662,0,0,0-1.9,4.974,1441.933,1441.933,0,0,0,250.9,70.788A1460.975,1460.975,0,0,0,2242.85,1820.3h2.661v-5.322h-2.661a1456.185,1456.185,0,0,1-266.182-24.535Z" transform="translate(-602.399 -324.417)"/><path class="a" d="M1758.246,1782.951A1484.036,1484.036,0,0,1,1384.5,1614.3a2.662,2.662,0,1,1-2.84,4.5,1489.657,1489.657,0,0,0,375.11,169.26,1498.73,1498.73,0,0,0,421.68,60.225h2.661v-5.323h-2.661A1493.258,1493.258,0,0,1,1758.246,1782.951Z" transform="translate(-537.983 -304.515)"/><path class="a" d="M1758.246,1782.951A1484.036,1484.036,0,0,1,1384.5,1614.3a2.662,2.662,0,1,1-2.84,4.5,1489.657,1489.657,0,0,0,375.11,169.26,1498.73,1498.73,0,0,0,421.68,60.225h2.661v-5.323h-2.661A1493.258,1493.258,0,0,1,1758.246,1782.951Z" transform="translate(-537.983 -304.515)"/><path class="c" d="M1758.246,1782.951A1484.036,1484.036,0,0,1,1384.5,1614.3a2.662,2.662,0,1,1-2.84,4.5,1489.657,1489.657,0,0,0,375.11,169.26,1498.73,1498.73,0,0,0,421.68,60.225h2.661v-5.323h-2.661A1493.258,1493.258,0,0,1,1758.246,1782.951Z" transform="translate(-537.983 -304.515)"/><path class="a" d="M1723.688,1895.491a1579.439,1579.439,0,0,1-395.376-176.869,2.661,2.661,0,1,0-2.816,4.511,1584.33,1584.33,0,0,0,396.74,177.486,1594.786,1594.786,0,0,0,445.379,63.113h2.629v-5.322h-2.661a1589.393,1589.393,0,0,1-443.894-62.919Z" transform="translate(-527.133 -324.11)"/><path class="a" d="M1723.688,1895.491a1579.439,1579.439,0,0,1-395.376-176.869,2.661,2.661,0,1,0-2.816,4.511,1584.33,1584.33,0,0,0,396.74,177.486,1594.786,1594.786,0,0,0,445.379,63.113h2.629v-5.322h-2.661a1589.393,1589.393,0,0,1-443.894-62.919Z" transform="translate(-527.133 -324.11)"/><path class="c" d="M1723.688,1895.491a1579.439,1579.439,0,0,1-395.376-176.869,2.661,2.661,0,1,0-2.816,4.511,1584.33,1584.33,0,0,0,396.74,177.486,1594.786,1594.786,0,0,0,445.379,63.113h2.629v-5.322h-2.661a1589.393,1589.393,0,0,1-443.894-62.919Z" transform="translate(-527.133 -324.11)"/><path class="a" d="M2225.685,2068.72a2.661,2.661,0,0,0-.357,5.306c36.98,2.491,74.643,3.757,111.834,3.757h2.662v-5.323h-2.662C2300.067,2072.46,2262.551,2071.194,2225.685,2068.72Z" transform="translate(-696.711 -390.251)"/><path class="a" d="M2225.685,2068.72a2.661,2.661,0,0,0-.357,5.306c36.98,2.491,74.643,3.757,111.834,3.757h2.662v-5.323h-2.662C2300.067,2072.46,2262.551,2071.194,2225.685,2068.72Z" transform="translate(-696.711 -390.251)"/><path class="c" d="M2225.685,2068.72a2.661,2.661,0,0,0-.357,5.306c36.98,2.491,74.643,3.757,111.834,3.757h2.662v-5.323h-2.662C2300.067,2072.46,2262.551,2071.194,2225.685,2068.72Z" transform="translate(-696.711 -390.251)"/><path class="a" d="M379.906,400.2A1631.629,1631.629,0,0,0,488.851,726.853a2.674,2.674,0,0,1,4.868-2.215h0A1626.036,1626.036,0,0,1,385.107,399.06a1645.437,1645.437,0,0,1-37.995-352c0-15.618.227-31.334.673-47.057h-5.33c-.438,15.691-.665,31.407-.665,47.057A1650.755,1650.755,0,0,0,379.906,400.2Z" transform="translate(-341.79 0.057)"/><path class="c" d="M379.906,400.2A1631.629,1631.629,0,0,0,488.851,726.853a2.674,2.674,0,0,1,4.868-2.215h0A1626.036,1626.036,0,0,1,385.107,399.06a1645.437,1645.437,0,0,1-37.995-352c0-15.618.227-31.334.673-47.057h-5.33c-.438,15.691-.665,31.407-.665,47.057A1650.755,1650.755,0,0,0,379.906,400.2Z" transform="translate(-341.79 0.057)"/><path class="a" d="M526.571,896.681a2.644,2.644,0,0,1-3.521-1.314A1641.771,1641.771,0,0,0,719.6,1220.3a2.653,2.653,0,0,0,2.109,1.03,2.594,2.594,0,0,0,1.623-.56,2.654,2.654,0,0,0,.479-3.732A1636.464,1636.464,0,0,1,527.878,893.161,2.661,2.661,0,0,1,526.571,896.681Z" transform="translate(-375.989 -168.457)"/><path class="c" d="M526.571,896.681a2.644,2.644,0,0,1-3.521-1.314A1641.771,1641.771,0,0,0,719.6,1220.3a2.653,2.653,0,0,0,2.109,1.03,2.594,2.594,0,0,0,1.623-.56,2.654,2.654,0,0,0,.479-3.732A1636.464,1636.464,0,0,1,527.878,893.161,2.661,2.661,0,0,1,526.571,896.681Z" transform="translate(-375.989 -168.457)"/><path class="a" d="M524.308,891.474a2.661,2.661,0,1,0,3.529,1.323h0A2.669,2.669,0,0,0,524.308,891.474Z" transform="translate(-375.932 -168.094)"/><path class="c" d="M524.308,891.474a2.661,2.661,0,1,0,3.529,1.323h0A2.669,2.669,0,0,0,524.308,891.474Z" transform="translate(-375.932 -168.094)"/><path class="c" d="M524.308,891.474a2.661,2.661,0,1,0,3.529,1.323h0A2.669,2.669,0,0,0,524.308,891.474Z" transform="translate(-375.932 -168.094)"/></g></g></g></svg>