<svg id="Grupo_918" data-name="Grupo 918" xmlns="http://www.w3.org/2000/svg" width="80.544" height="70" viewBox="0 0 80.544 70">
  <path id="Trazado_1017" data-name="Trazado 1017" d="M341.093,248a3.665,3.665,0,1,1,2.356,0v15.941a32.576,32.576,0,0,1,28.386,18.867l4.03.008a1.962,1.962,0,0,1,1.959,1.963v7.574a40.273,40.273,0,1,0-71.105,0v-7.57a1.962,1.962,0,0,1,1.963-1.962H312.7a32.575,32.575,0,0,1,28.391-18.879Z" transform="translate(-301.999 -233.146)" fill="#20a8d8"/>
  <path id="Icon_metro-dollar" data-name="Icon metro-dollar" d="M2.571,30.224V8.676H40.877V30.224H2.571ZM4.965,11V27.829H38.483V11H4.965ZM27.709,19.45c0-3.966-2.679-7.182-5.985-7.182H37.286V26.632H21.724C25.03,26.632,27.709,23.416,27.709,19.45ZM32.5,21.844c.991,0,1.8-1.073,1.8-2.394s-.8-2.394-1.8-2.394-1.8,1.073-1.8,2.394S31.507,21.844,32.5,21.844Zm-8.238-5.413a.305.305,0,0,1-.074.142.184.184,0,0,1-.13.044.626.626,0,0,1-.262-.1c-.12-.071-.267-.145-.441-.226a4.414,4.414,0,0,0-.606-.224,2.689,2.689,0,0,0-.755-.1,1.792,1.792,0,0,0-.561.078,1.159,1.159,0,0,0-.4.215.861.861,0,0,0-.239.332,1.092,1.092,0,0,0-.078.409.9.9,0,0,0,.176.558,1.686,1.686,0,0,0,.472.419,4.857,4.857,0,0,0,.67.344c.248.108.5.221.763.34a7.673,7.673,0,0,1,.763.408,3.036,3.036,0,0,1,.667.546,2.584,2.584,0,0,1,.472.747,2.619,2.619,0,0,1,.178,1.014,2.992,2.992,0,0,1-.283,1.338,2.77,2.77,0,0,1-.772.96,3.342,3.342,0,0,1-1.136.579c-.055.017-.115.024-.171.037V25.6H21.334V24.444l-.043,0a5.046,5.046,0,0,1-.931-.08,5.557,5.557,0,0,1-.759-.2,3.328,3.328,0,0,1-.549-.241,1.545,1.545,0,0,1-.317-.223.562.562,0,0,1-.139-.28,2.556,2.556,0,0,1-.042-.528c0-.154,0-.284.016-.389a1.16,1.16,0,0,1,.049-.255.273.273,0,0,1,.09-.139.22.22,0,0,1,.13-.041.623.623,0,0,1,.3.123,5.109,5.109,0,0,0,.49.273,4.477,4.477,0,0,0,.715.274,3.414,3.414,0,0,0,.961.123,2.21,2.21,0,0,0,.643-.086,1.428,1.428,0,0,0,.482-.243,1.049,1.049,0,0,0,.3-.389,1.234,1.234,0,0,0,.105-.518.915.915,0,0,0-.18-.565,1.8,1.8,0,0,0-.468-.419,4.882,4.882,0,0,0-.654-.344q-.366-.162-.755-.34a6.773,6.773,0,0,1-.755-.408,3.042,3.042,0,0,1-.654-.545,2.566,2.566,0,0,1-.467-.752,2.709,2.709,0,0,1-.18-1.039A2.754,2.754,0,0,1,18.978,16a2.5,2.5,0,0,1,.7-.874,2.981,2.981,0,0,1,1.032-.52,4.2,4.2,0,0,1,.63-.13V13.237h1.177v1.238c.047.006.093,0,.14.011a4.663,4.663,0,0,1,.643.141,3.434,3.434,0,0,1,.532.2,1.228,1.228,0,0,1,.306.186.567.567,0,0,1,.1.126.68.68,0,0,1,.044.139,1.336,1.336,0,0,1,.025.218c0,.086.007.2.007.324,0,.145,0,.268-.011.369a1.673,1.673,0,0,1-.041.243ZM15.739,19.45c0,3.966,2.679,7.182,5.985,7.182H6.162V12.267H21.724c-3.306,0-5.985,3.217-5.985,7.182ZM10.95,17.056c-.992,0-1.8,1.073-1.8,2.394s.8,2.394,1.8,2.394,1.8-1.073,1.8-2.394S11.941,17.056,10.95,17.056Z" transform="translate(19.304 39.777)" fill="#20a8d8"/>
</svg>
