<svg id="Grupo_917" data-name="Grupo 917" xmlns="http://www.w3.org/2000/svg" width="80.544" height="74" viewBox="0 0 80.544 74">
  <path id="Trazado_1017" data-name="Trazado 1017" d="M341.093,248a3.665,3.665,0,1,1,2.356,0v15.941a32.576,32.576,0,0,1,28.386,18.867l4.03.008a1.962,1.962,0,0,1,1.959,1.963v7.574a40.273,40.273,0,1,0-71.105,0v-7.57a1.962,1.962,0,0,1,1.963-1.962H312.7a32.575,32.575,0,0,1,28.391-18.879Z" transform="translate(-301.999 -233.146)" fill="#20a8d8"/>
  <path id="Icon_material-security" data-name="Icon material-security" d="M18,1.5,4.5,7.5v9c0,8.325,5.76,16.11,13.5,18,7.74-1.89,13.5-9.675,13.5-18v-9Zm0,16.485H28.5C27.7,24.165,23.58,29.67,18,31.4V18H7.5V9.45L18,4.785Z" transform="translate(22.5 39.5)" fill="#20a8d8"/>
</svg>
