<svg id="Grupo_915" data-name="Grupo 915" xmlns="http://www.w3.org/2000/svg" width="80.543" height="69.469" viewBox="0 0 80.543 69.469">
  <path id="Trazado_1017" data-name="Trazado 1017" d="M341.093,248a3.665,3.665,0,1,1,2.356,0v15.941a32.576,32.576,0,0,1,28.386,18.867l4.03.008a1.962,1.962,0,0,1,1.959,1.963v7.574a40.273,40.273,0,1,0-71.105,0v-7.57a1.962,1.962,0,0,1,1.963-1.962H312.7a32.575,32.575,0,0,1,28.391-18.879Z" transform="translate(-301.999 -233.146)" fill="#20a8d8"/>
  <path id="Icon_ionic-md-swap" data-name="Icon ionic-md-swap" d="M9.232,16.249l-6.982,7,6.982,6.989V24.989H21.5V21.495H9.232ZM33.75,12.755,26.768,5.766v5.245H14.5v3.495h12.27v5.245Z" transform="translate(22.75 39.234)" fill="#20a8d8"/>
</svg>
