<svg xmlns="http://www.w3.org/2000/svg" xmlns:xlink="http://www.w3.org/1999/xlink" width="257.74" height="55.39" viewBox="0 0 257.74 55.39"><defs><style>.a{fill:url(#a);}.b{fill:#fff;}</style><linearGradient id="a" y1="0.5" x2="1" y2="0.5" gradientUnits="objectBoundingBox"><stop offset="0" stop-color="#0cf"/><stop offset="1" stop-color="#3f9"/></linearGradient></defs><path class="a" d="M0,55.39,38.67,39.105,26.437,26.694ZM14.2,14.3,26.437,26.694,48.29,0Z"/><path class="b" d="M327.054,93.171H321V90h15.635v3.177H330.6V111.1h-3.547Z" transform="translate(-259.794 -72.839)"/><path class="b" d="M442.75,90h3.518v9.126h8.895V90h3.547v21.107h-3.547V102.3h-8.895v8.809H442.75Z" transform="translate(-358.33 -72.839)"/><path class="b" d="M574.932,109.585a5.4,5.4,0,0,1-2.717-3.108,19.019,19.019,0,0,1-.915-6.735,19.213,19.213,0,0,1,.929-6.778,5.6,5.6,0,0,1,2.732-3.2,11.571,11.571,0,0,1,4.833-.845,11.79,11.79,0,0,1,4.875.845,5.5,5.5,0,0,1,2.732,3.175,19.392,19.392,0,0,1,.915,6.794,18.8,18.8,0,0,1-.93,6.735,5.455,5.455,0,0,1-2.717,3.118,11.992,11.992,0,0,1-4.875.816A11.809,11.809,0,0,1,574.932,109.585Zm7.879-2.933a3.364,3.364,0,0,0,1.5-2.158,18.456,18.456,0,0,0,.458-4.767,18.973,18.973,0,0,0-.473-4.919,3.354,3.354,0,0,0-1.5-2.176,6.649,6.649,0,0,0-3-.542,6.3,6.3,0,0,0-2.946.557,3.434,3.434,0,0,0-1.516,2.174,18.3,18.3,0,0,0-.486,4.906,18.9,18.9,0,0,0,.442,4.767,3.4,3.4,0,0,0,1.484,2.158,8.254,8.254,0,0,0,6.039,0Z" transform="translate(-462.369 -71.965)"/><path class="b" d="M705.4,90h8.58a6.131,6.131,0,0,1,4.261,1.417q1.573,1.417,1.573,5.129a6.742,6.742,0,0,1-.988,4.088,5.338,5.338,0,0,1-2.587,1.832L720.3,111.1h-3.575l-3.661-8.121q-1.745,0-4.147-.059v8.18H705.4Zm7.98,10.153a2.819,2.819,0,0,0,2.13-.786,4.07,4.07,0,0,0,.763-2.816,3.639,3.639,0,0,0-.763-2.669,2.937,2.937,0,0,0-2.13-.715h-4.462v6.977Z" transform="translate(-570.899 -72.839)"/><path class="b" d="M825.839,109.557a5.486,5.486,0,0,1-2.446-3.19,20.946,20.946,0,0,1-.843-6.777,19.628,19.628,0,0,1,.858-6.536,5.725,5.725,0,0,1,2.517-3.232,8.931,8.931,0,0,1,4.29-.9,22.178,22.178,0,0,1,3.445.273,22.711,22.711,0,0,1,2.961.643v2.723q-.858-.17-2.446-.313t-3.241-.143a5.886,5.886,0,0,0-2.9.585,3.464,3.464,0,0,0-1.472,2.189,18.562,18.562,0,0,0-.458,4.767,19.875,19.875,0,0,0,.429,4.776,3.447,3.447,0,0,0,1.43,2.2,5.867,5.867,0,0,0,2.946.6,45.3,45.3,0,0,0,5.72-.315v2.717a23.711,23.711,0,0,1-6.492.774A9.233,9.233,0,0,1,825.839,109.557Z" transform="translate(-665.712 -71.965)"/><path class="b" d="M940,90h3.518v9.126h8.895V90h3.547v21.107h-3.547V102.3h-8.895v8.809H940Z" transform="translate(-760.768 -72.839)"/><path class="b" d="M1071.445,90h4.462l6.864,21.107h-3.689l-1.63-5.011h-7.627l-1.6,5.005H1064.6Zm5.148,12.928-2.974-9.894-2.974,9.894Z" transform="translate(-861.61 -72.839)"/><path class="b" d="M1200.55,90h3.518v21.107h-3.518Z" transform="translate(-971.638 -72.839)"/><path class="b" d="M1267.89,90h2.832l9.61,15.073V90h3.547v21.107h-2.831l-9.61-15.063v15.063h-3.547Z" transform="translate(-1026.138 -72.839)"/></svg>