<svg xmlns="http://www.w3.org/2000/svg" width="56" height="45.482" viewBox="0 0 56 45.482"><defs><style>.a{fill:#20a8d8;}</style></defs><path class="a" d="M50.244,16.594c.036.5.036.995.036,1.492,0,15.172-11.548,32.655-32.655,32.655A32.433,32.433,0,0,1,0,45.589a23.743,23.743,0,0,0,2.772.142,22.985,22.985,0,0,0,14.249-4.9A11.5,11.5,0,0,1,6.289,32.868a14.473,14.473,0,0,0,2.168.178,12.139,12.139,0,0,0,3.02-.391,11.479,11.479,0,0,1-9.2-11.264v-.142a11.559,11.559,0,0,0,5.188,1.457A11.494,11.494,0,0,1,3.909,7.355a32.623,32.623,0,0,0,23.665,12.01,12.956,12.956,0,0,1-.284-2.629A11.488,11.488,0,0,1,47.152,8.883a22.6,22.6,0,0,0,7.284-2.772,11.446,11.446,0,0,1-5.046,6.325A23.008,23.008,0,0,0,56,10.66,24.671,24.671,0,0,1,50.244,16.594Z" transform="translate(0 -5.259)"/></svg>