<svg id="Grupo_916" data-name="Grupo 916" xmlns="http://www.w3.org/2000/svg" width="80.544" height="70" viewBox="0 0 80.544 70">
  <path id="Trazado_1017" data-name="Trazado 1017" d="M341.093,248a3.665,3.665,0,1,1,2.356,0v15.941a32.576,32.576,0,0,1,28.386,18.867l4.03.008a1.962,1.962,0,0,1,1.959,1.963v7.574a40.273,40.273,0,1,0-71.105,0v-7.57a1.962,1.962,0,0,1,1.963-1.962H312.7a32.575,32.575,0,0,1,28.391-18.879Z" transform="translate(-301.999 -233.146)" fill="#20a8d8"/>
  <path id="Icon_awesome-chart-line" data-name="Icon awesome-chart-line" d="M34.875,27H4.5V5.625A1.125,1.125,0,0,0,3.375,4.5H1.125A1.125,1.125,0,0,0,0,5.625V29.25A2.25,2.25,0,0,0,2.25,31.5H34.875A1.125,1.125,0,0,0,36,30.375v-2.25A1.125,1.125,0,0,0,34.875,27ZM32.625,6.75h-8.3a1.687,1.687,0,0,0-1.193,2.881l2.278,2.278-5.159,5.16L15.091,11.91a2.249,2.249,0,0,0-3.182,0l-4.83,4.83a1.125,1.125,0,0,0,0,1.591l1.59,1.59a1.125,1.125,0,0,0,1.591,0L13.5,16.682l5.159,5.159a2.249,2.249,0,0,0,3.182,0l6.75-6.75,2.278,2.278a1.687,1.687,0,0,0,2.881-1.193v-8.3A1.124,1.124,0,0,0,32.625,6.75Z" transform="translate(22 38.5)" fill="#20a8d8"/>
</svg>
