<svg xmlns="http://www.w3.org/2000/svg" width="23.5" height="23.5" viewBox="0 0 23.5 23.5"><defs><style>.a{fill:#fff;}</style></defs><path class="a" d="M0,18.6v1.96C0,22.183,3.947,23.5,8.813,23.5s8.813-1.317,8.813-2.937V18.6c-1.9,1.336-5.361,1.96-8.812,1.96S1.9,19.938,0,18.6ZM14.688,5.875c4.865,0,8.813-1.317,8.813-2.937S19.553,0,14.688,0,5.875,1.317,5.875,2.938,9.822,5.875,14.688,5.875ZM0,13.788v2.368c0,1.62,3.947,2.938,8.813,2.938s8.813-1.317,8.813-2.937V13.788c-1.9,1.561-5.366,2.368-8.812,2.368S1.9,15.348,0,13.788Zm19.094.5c2.63-.509,4.406-1.455,4.406-2.543V9.79a11.271,11.271,0,0,1-4.406,1.583ZM8.813,7.344C3.947,7.344,0,8.987,0,11.016s3.947,3.672,8.813,3.672,8.813-1.643,8.813-3.672S13.678,7.344,8.813,7.344ZM18.878,9.928c2.754-.5,4.622-1.469,4.622-2.584V5.384C21.871,6.536,19.071,7.156,16.124,7.3A5.14,5.14,0,0,1,18.878,9.928Z"/></svg>