<svg xmlns="http://www.w3.org/2000/svg" width="24" height="20.858" viewBox="0 0 24 20.858"><defs><style>.a{fill:#fff;}</style></defs><path class="a" d="M1016.807,422.435h-10.274a2.056,2.056,0,0,1-2.056-2.056v-2.321a2.056,2.056,0,0,1,2.056-2.056h10.274a2.056,2.056,0,0,1,2.056,2.056v2.321A2.056,2.056,0,0,1,1016.807,422.435Zm-2.045-4.678a1.462,1.462,0,1,0,1.462,1.462A1.462,1.462,0,0,0,1014.762,417.756Zm-6.09,0a1.462,1.462,0,1,0,1.462,1.462A1.462,1.462,0,0,0,1008.672,417.756ZM1011.135,406a1.092,1.092,0,1,1,.7,0v4.75a9.707,9.707,0,0,1,8.458,5.622l1.2,0a.585.585,0,0,1,.584.585v2.257a12,12,0,1,0-21.188,0v-2.256a.585.585,0,0,1,.585-.585h1.2a9.707,9.707,0,0,1,8.46-5.625Z" transform="translate(-999.486 -401.577)"/></svg>