<svg xmlns="http://www.w3.org/2000/svg" width="23.997" height="20" viewBox="0 0 23.997 20">
  <g id="bar-chart" transform="translate(0 -41.511)">
    <path id="Trazado_1813" data-name="Trazado 1813" d="M23.894,65.762l-.987-.988a.352.352,0,1,0-.5.5l.387.387H21.1V52.727a.623.623,0,0,0-.622-.622H17.823a.623.623,0,0,0-.622.622V65.659h-.973V55.771a.623.623,0,0,0-.622-.622H12.954a.623.623,0,0,0-.622.622v9.888h-.973V57.764a.623.623,0,0,0-.622-.622H8.085a.623.623,0,0,0-.622.622v7.895H6.49V60.284a.623.623,0,0,0-.622-.622H3.216a.623.623,0,0,0-.622.622v5.376H1.717V48.726l.387.387a.352.352,0,1,0,.5-.5l-.987-.988a.352.352,0,0,0-.5,0l-.987.988a.352.352,0,0,0,.5.5l.387-.387V65.659H.352a.352.352,0,0,0,0,.7H22.8l-.387.387a.352.352,0,1,0,.5.5l.987-.988a.352.352,0,0,0,0-.5Z" transform="translate(0 -5.84)" fill="#fff"/>
    <path id="Trazado_1814" data-name="Trazado 1814" d="M55.289,46.51a.216.216,0,0,0,.216.216h1.053a9.911,9.911,0,0,0,8.264-4.44l.041.319a.216.216,0,0,0,.214.189l.028,0a.216.216,0,0,0,.187-.242l-.109-.851a.216.216,0,0,0-.242-.187l-.851.109a.216.216,0,1,0,.055.429l.344-.044a9.478,9.478,0,0,1-7.93,4.287H55.505A.216.216,0,0,0,55.289,46.51Z" transform="translate(-53.695 0)" fill="#fff"/>
  </g>
</svg>
