<svg xmlns="http://www.w3.org/2000/svg" width="26.241" height="31.621" viewBox="0 0 26.241 31.621"><defs><style>.a{fill:#fff;}</style></defs><path class="a" d="M-4357.212,3071.8a2.152,2.152,0,0,0-1.349.472l-4.63-4.63a4.847,4.847,0,0,0,1.425-2.361l3.327.389a1.476,1.476,0,0,0,1.47,1.343,1.476,1.476,0,0,0,1.476-1.477,1.477,1.477,0,0,0-1.476-1.477,1.475,1.475,0,0,0-1.309.8l-3.351-.391c.011-.133.018-.268.018-.4a4.829,4.829,0,0,0-.549-2.241l2.038-2.037a3.074,3.074,0,0,0,1.936.683,3.087,3.087,0,0,0,3.087-3.087,3.087,3.087,0,0,0-3.087-3.087,3.086,3.086,0,0,0-3.087,3.087,3.071,3.071,0,0,0,.582,1.8l-1.925,1.925a4.841,4.841,0,0,0-3.457-1.88v-8.572a3.087,3.087,0,0,0,2.7-3.062,3.087,3.087,0,0,0-3.087-3.087,3.087,3.087,0,0,0-3.086,3.087,3.087,3.087,0,0,0,2.648,3.055v8.582a4.842,4.842,0,0,0-3.209,1.633l-3.1-3.1a1.845,1.845,0,0,0,.325-1.049,1.856,1.856,0,0,0-1.856-1.856,1.856,1.856,0,0,0-1.856,1.856,1.856,1.856,0,0,0,1.856,1.856,1.844,1.844,0,0,0,.922-.247l3.211,3.211a4.831,4.831,0,0,0-.708,2.524,4.963,4.963,0,0,0,.039.606l-4.273,1.428a3,3,0,0,0-2.744-1.79,3,3,0,0,0-3,3,3,3,0,0,0,3,3,3,3,0,0,0,3-3,3.077,3.077,0,0,0-.029-.411l4.22-1.41a4.863,4.863,0,0,0,2.9,3.107l-.567,2.3c-.041,0-.081-.006-.122-.006a1.544,1.544,0,0,0-1.543,1.544,1.544,1.544,0,0,0,1.543,1.543,1.544,1.544,0,0,0,1.544-1.543,1.541,1.541,0,0,0-.64-1.25l.58-2.351a4.9,4.9,0,0,0,.95.094,4.828,4.828,0,0,0,2.608-.762l4.756,4.755a2.147,2.147,0,0,0-.276,1.058,2.163,2.163,0,0,0,2.162,2.163,2.163,2.163,0,0,0,2.163-2.163A2.162,2.162,0,0,0-4357.212,3071.8Z" transform="translate(4381.291 -3044.5)"/></svg>