<svg xmlns="http://www.w3.org/2000/svg" width="24" height="24" viewBox="0 0 24 24"><defs><style>.a{fill:#fff;}</style></defs><path class="a" d="M-29,178.2V157h-2.8v.8H-33v.8h1.2v4.8H-33v.8h1.2V169H-33v.8h1.2v4.8H-33v.8h1.2v5.2a.4.4,0,0,0,.4.4H-9v-2.8Z" transform="translate(33 -157)"/><path class="a" d="M61.057,330.358a2.057,2.057,0,0,0,2.057-2.057,2.024,2.024,0,0,0-.206-.881l1.218-3.1a2.024,2.024,0,0,0,.881.206,2.058,2.058,0,0,0,1.931-1.372l2-1.254a2.053,2.053,0,0,0,3.989-.686,2.024,2.024,0,0,0-.206-.881l1.863-4.389a2.023,2.023,0,0,0,.881.206,2.057,2.057,0,1,0-2.057-2.057,2.024,2.024,0,0,0,.206.881l-1.863,4.389a2.024,2.024,0,0,0-.881-.206,2.057,2.057,0,0,0-1.931,1.372l-2,1.254a2.053,2.053,0,0,0-3.989.686,2.024,2.024,0,0,0,.206.881l-1.218,3.1a2.024,2.024,0,0,0-.881-.206,2.057,2.057,0,1,0,0,4.115ZM75.463,313.4a.686.686,0,1,1-.686.686A.686.686,0,0,1,75.463,313.4Zm-4.6,7.122a.686.686,0,1,1-.686.686A.686.686,0,0,1,70.867,320.523Zm-5.859,1.254a.686.686,0,1,1-.686.686A.686.686,0,0,1,65.008,321.777Zm-3.951,5.837a.686.686,0,1,1-.686.686A.686.686,0,0,1,61.057,327.615Z" transform="translate(-54.349 -310.715)"/></svg>