<svg id="MDI_robot-happy-outline" data-name="MDI / robot-happy-outline" xmlns="http://www.w3.org/2000/svg" width="24" height="24" viewBox="0 0 24 24">
  <g id="Boundary" fill="#fff" stroke="rgba(0,0,0,0)" stroke-width="1" opacity="0">
    <rect width="24" height="24" stroke="none"/>
    <rect x="0.5" y="0.5" width="23" height="23" fill="none"/>
  </g>
  <path id="Path_robot-happy-outline" data-name="Path / robot-happy-outline" d="M10.5,15.5a1.906,1.906,0,0,1-.28,1,1.979,1.979,0,0,0-3.44,0,2,2,0,1,1,3.72-1M23,15v3a1,1,0,0,1-1,1H21v1a1.993,1.993,0,0,1-2,2H5a2,2,0,0,1-2-2V19H2a1,1,0,0,1-1-1V15a1,1,0,0,1,1-1H3a7,7,0,0,1,7-7h1V5.73A1.984,1.984,0,0,1,10,4a2,2,0,0,1,4,0,1.984,1.984,0,0,1-1,1.73V7h1a7,7,0,0,1,7,7h1a1,1,0,0,1,1,1m-2,1H19V14a5,5,0,0,0-5-5H10a5,5,0,0,0-5,5v2H3v1H5v3H19V17h2V16m-5.5-2.5a1.984,1.984,0,0,0-1.72,3,1.979,1.979,0,0,1,3.44,0,1.906,1.906,0,0,0,.28-1A2,2,0,0,0,15.5,13.5Z" fill="#fff"/>
</svg>
