<svg xmlns="http://www.w3.org/2000/svg" width="24" height="25.5" viewBox="0 0 24 25.5"><defs><style>.a{fill:#fff;}</style></defs><path class="a" d="M34.7,33.422a10.016,10.016,0,0,1-2.8,1.2l-.352,2.517a.424.424,0,0,1-.425.365H27.556a.435.435,0,0,1-.425-.365l-.352-2.517a10.094,10.094,0,0,1-4.7-2.717l-2.365.957a.433.433,0,0,1-.531-.179l-1.787-3.1a.431.431,0,0,1,.106-.551l2.006-1.568a10.3,10.3,0,0,1,0-5.427l-2.006-1.568a.431.431,0,0,1-.106-.551l1.787-3.1a.425.425,0,0,1,.531-.179l2.365.957a10.184,10.184,0,0,1,4.7-2.717l.352-2.517A.424.424,0,0,1,27.556,12H31.13a.435.435,0,0,1,.425.365l.352,2.517A10.094,10.094,0,0,1,36.6,17.6l2.365-.95a.433.433,0,0,1,.531.179l1.787,3.1a.431.431,0,0,1-.106.551l-2.006,1.568a10.3,10.3,0,0,1,0,5.427l2.006,1.568a.431.431,0,0,1,.106.551h0l-1.787,3.1a.425.425,0,0,1-.531.179L36.337,31.8m-9.492-.239a7.248,7.248,0,1,0-2.517-1.568c.173.166,2.3,1.488,2.517,1.568Zm0,0" transform="translate(-17.343 -12)"/></svg>