<svg xmlns="http://www.w3.org/2000/svg" width="27" height="27" viewBox="0 0 27 27">
  <g id="template" transform="translate(-4.5 -4.5)">
    <path id="Trazado_1858" data-name="Trazado 1858" d="M29.25,6.75v4.5H6.75V6.75h22.5m0-2.25H6.75A2.25,2.25,0,0,0,4.5,6.75v4.5A2.25,2.25,0,0,0,6.75,13.5h22.5a2.25,2.25,0,0,0,2.25-2.25V6.75A2.25,2.25,0,0,0,29.25,4.5Z" fill="#fff"/>
    <path id="Trazado_1859" data-name="Trazado 1859" d="M11.25,18V29.25H6.75V18h4.5m0-2.25H6.75A2.25,2.25,0,0,0,4.5,18V29.25A2.25,2.25,0,0,0,6.75,31.5h4.5a2.25,2.25,0,0,0,2.25-2.25V18A2.25,2.25,0,0,0,11.25,15.75Z" fill="#fff"/>
    <path id="Trazado_1860" data-name="Trazado 1860" d="M29.25,18V29.25H18V18H29.25m0-2.25H18A2.25,2.25,0,0,0,15.75,18V29.25A2.25,2.25,0,0,0,18,31.5H29.25a2.25,2.25,0,0,0,2.25-2.25V18A2.25,2.25,0,0,0,29.25,15.75Z" fill="#fff"/>
  </g>
</svg>
