<svg xmlns="http://www.w3.org/2000/svg" xmlns:xlink="http://www.w3.org/1999/xlink" width="277" height="141.838" viewBox="0 0 277 141.838">
  <defs>
    <filter id="Trazado_1738" x="0" y="8.838" width="132" height="54" filterUnits="userSpaceOnUse">
      <feOffset dy="3" input="SourceAlpha"/>
      <feGaussianBlur stdDeviation="3" result="blur"/>
      <feFlood flood-opacity="0.161"/>
      <feComposite operator="in" in2="blur"/>
      <feComposite in="SourceGraphic"/>
    </filter>
    <filter id="Trazado_1742" x="145" y="8.838" width="132" height="54" filterUnits="userSpaceOnUse">
      <feOffset dy="3" input="SourceAlpha"/>
      <feGaussianBlur stdDeviation="3" result="blur-2"/>
      <feFlood flood-opacity="0.161"/>
      <feComposite operator="in" in2="blur-2"/>
      <feComposite in="SourceGraphic"/>
    </filter>
    <filter id="Trazado_1743" x="21" y="75.838" width="240" height="66" filterUnits="userSpaceOnUse">
      <feOffset dy="3" input="SourceAlpha"/>
      <feGaussianBlur stdDeviation="3" result="blur-3"/>
      <feFlood flood-opacity="0.161"/>
      <feComposite operator="in" in2="blur-3"/>
      <feComposite in="SourceGraphic"/>
    </filter>
  </defs>
  <g id="Grupo_971" data-name="Grupo 971" transform="translate(447 -961.162)">
    <g transform="matrix(1, 0, 0, 1, -447, 961.16)" filter="url(#Trazado_1738)">
      <path id="Trazado_1738-2" data-name="Trazado 1738" d="M10,0h94a10,10,0,0,1,10,10V26a10,10,0,0,1-10,10H10A10,10,0,0,1,0,26V10A10,10,0,0,1,10,0Z" transform="translate(9 14.84)" fill="#fff"/>
    </g>
    <g transform="matrix(1, 0, 0, 1, -447, 961.16)" filter="url(#Trazado_1742)">
      <path id="Trazado_1742-2" data-name="Trazado 1742" d="M10,0h94a10,10,0,0,1,10,10V26a10,10,0,0,1-10,10H10A10,10,0,0,1,0,26V10A10,10,0,0,1,10,0Z" transform="translate(154 14.84)" fill="#fff"/>
    </g>
    <g transform="matrix(1, 0, 0, 1, -447, 961.16)" filter="url(#Trazado_1743)">
      <path id="Trazado_1743-2" data-name="Trazado 1743" d="M10,0H212a10,10,0,0,1,10,10V38a10,10,0,0,1-10,10H10A10,10,0,0,1,0,38V10A10,10,0,0,1,10,0Z" transform="translate(30 81.84)" fill="#4dbd74"/>
    </g>
    <path id="Trazado_1739" data-name="Trazado 1739" d="M-39.789-3.192l-1.35-3.5q-.06-.156-.126-.363t-.126-.441a6.537,6.537,0,0,1-.258.81L-43-3.192ZM-37.365,0h-.9a.387.387,0,0,1-.252-.078.48.48,0,0,1-.144-.2l-.8-2.076h-3.858l-.8,2.076a.421.421,0,0,1-.138.192A.383.383,0,0,1-44.517,0h-.9l3.438-8.6H-40.8Zm.858,0V-6.078h.642a.264.264,0,0,1,.282.222l.078.624a3.093,3.093,0,0,1,.756-.678,1.788,1.788,0,0,1,.972-.264,1.43,1.43,0,0,1,.993.342,1.924,1.924,0,0,1,.549.924,2,2,0,0,1,.339-.57,1.934,1.934,0,0,1,.465-.4,1.969,1.969,0,0,1,.549-.228,2.452,2.452,0,0,1,.591-.072,2.248,2.248,0,0,1,.855.153,1.693,1.693,0,0,1,.636.447,1.991,1.991,0,0,1,.4.723,3.2,3.2,0,0,1,.138.981V0h-1.074V-3.87a1.638,1.638,0,0,0-.312-1.083,1.113,1.113,0,0,0-.9-.369,1.359,1.359,0,0,0-.5.093,1.207,1.207,0,0,0-.417.273,1.28,1.28,0,0,0-.285.453,1.757,1.757,0,0,0-.1.633V0h-1.074V-3.87a1.7,1.7,0,0,0-.294-1.092,1.043,1.043,0,0,0-.858-.36,1.341,1.341,0,0,0-.732.213,2.429,2.429,0,0,0-.618.579V0Zm12.432-6.174a3.1,3.1,0,0,1,1.2.222,2.572,2.572,0,0,1,.912.63,2.765,2.765,0,0,1,.579.987,3.925,3.925,0,0,1,.2,1.293,3.917,3.917,0,0,1-.2,1.3,2.769,2.769,0,0,1-.579.984,2.539,2.539,0,0,1-.912.627,3.137,3.137,0,0,1-1.2.219,3.176,3.176,0,0,1-1.209-.219A2.533,2.533,0,0,1-26.2-.762a2.769,2.769,0,0,1-.579-.984,3.917,3.917,0,0,1-.2-1.3,3.924,3.924,0,0,1,.2-1.293,2.765,2.765,0,0,1,.579-.987,2.566,2.566,0,0,1,.915-.63A3.138,3.138,0,0,1-24.075-6.174Zm0,5.424a1.56,1.56,0,0,0,1.344-.6,2.792,2.792,0,0,0,.444-1.683,2.818,2.818,0,0,0-.444-1.692,1.557,1.557,0,0,0-1.344-.606,1.886,1.886,0,0,0-.795.156,1.477,1.477,0,0,0-.564.45,2,2,0,0,0-.336.723,3.876,3.876,0,0,0-.111.969,2.778,2.778,0,0,0,.447,1.683A1.582,1.582,0,0,0-24.075-.75Zm9.24-5.328V0h-.636a.272.272,0,0,1-.288-.222l-.084-.654a3.343,3.343,0,0,1-.888.7A2.327,2.327,0,0,1-17.859.1a2.195,2.195,0,0,1-.879-.165,1.743,1.743,0,0,1-.639-.465,1.975,1.975,0,0,1-.387-.726,3.241,3.241,0,0,1-.129-.942V-6.078h1.068V-2.2a1.623,1.623,0,0,0,.315,1.068,1.182,1.182,0,0,0,.963.378,1.814,1.814,0,0,0,.885-.225A2.811,2.811,0,0,0-15.9-1.6V-6.078Zm2.7.882a3.606,3.606,0,0,1,.42-.4,2.769,2.769,0,0,1,.471-.309,2.391,2.391,0,0,1,.528-.2,2.507,2.507,0,0,1,.6-.069,2.195,2.195,0,0,1,.879.165,1.7,1.7,0,0,1,.636.468,2.067,2.067,0,0,1,.387.729,3.172,3.172,0,0,1,.132.942V0H-9.153V-3.87a1.636,1.636,0,0,0-.315-1.071,1.17,1.17,0,0,0-.957-.381,1.8,1.8,0,0,0-.885.228,2.915,2.915,0,0,0-.759.618V0h-1.074V-6.078h.642a.264.264,0,0,1,.282.222ZM-4.665.1a1.465,1.465,0,0,1-1.107-.4,1.6,1.6,0,0,1-.387-1.158v-3.72h-.732a.239.239,0,0,1-.162-.057.222.222,0,0,1-.066-.177v-.426l1-.126.246-1.878A.261.261,0,0,1-5.8-7.995a.236.236,0,0,1,.165-.057h.54v2.094h1.758v.774H-5.091v3.648a.776.776,0,0,0,.186.57.65.65,0,0,0,.48.186.847.847,0,0,0,.291-.045,1.249,1.249,0,0,0,.213-.1q.09-.054.153-.1a.2.2,0,0,1,.111-.045.184.184,0,0,1,.15.1l.312.51a1.99,1.99,0,0,1-.666.4A2.262,2.262,0,0,1-4.665.1ZM2.709.1A1.465,1.465,0,0,1,1.6-.306a1.6,1.6,0,0,1-.387-1.158v-3.72H.483a.239.239,0,0,1-.162-.057.222.222,0,0,1-.066-.177v-.426l1-.126L1.5-7.848a.261.261,0,0,1,.081-.147.236.236,0,0,1,.165-.057h.54v2.094H4.041v.774H2.283v3.648a.776.776,0,0,0,.186.57.65.65,0,0,0,.48.186A.847.847,0,0,0,3.24-.825a1.249,1.249,0,0,0,.213-.1q.09-.054.153-.1a.2.2,0,0,1,.111-.045.184.184,0,0,1,.15.1l.312.51a1.99,1.99,0,0,1-.666.4A2.262,2.262,0,0,1,2.709.1Zm4.968-6.27a3.1,3.1,0,0,1,1.2.222,2.572,2.572,0,0,1,.912.63,2.765,2.765,0,0,1,.579.987,3.924,3.924,0,0,1,.2,1.293,3.917,3.917,0,0,1-.2,1.3,2.769,2.769,0,0,1-.579.984,2.539,2.539,0,0,1-.912.627,3.137,3.137,0,0,1-1.2.219A3.176,3.176,0,0,1,6.468-.135a2.533,2.533,0,0,1-.915-.627,2.769,2.769,0,0,1-.579-.984,3.917,3.917,0,0,1-.2-1.3,3.924,3.924,0,0,1,.2-1.293,2.765,2.765,0,0,1,.579-.987,2.566,2.566,0,0,1,.915-.63A3.138,3.138,0,0,1,7.677-6.174Zm0,5.424a1.56,1.56,0,0,0,1.344-.6,2.792,2.792,0,0,0,.444-1.683,2.818,2.818,0,0,0-.444-1.692,1.557,1.557,0,0,0-1.344-.606,1.886,1.886,0,0,0-.8.156,1.477,1.477,0,0,0-.564.45,2,2,0,0,0-.336.723,3.876,3.876,0,0,0-.111.969,2.778,2.778,0,0,0,.447,1.683A1.582,1.582,0,0,0,7.677-.75Zm8.442-5.328V0H15.051V-6.078Zm.228-1.908a.68.68,0,0,1-.063.291.838.838,0,0,1-.168.24.771.771,0,0,1-.246.165.751.751,0,0,1-.3.06.708.708,0,0,1-.291-.06.754.754,0,0,1-.237-.165.819.819,0,0,1-.162-.24.708.708,0,0,1-.06-.291.751.751,0,0,1,.06-.3.8.8,0,0,1,.162-.246.754.754,0,0,1,.237-.165.708.708,0,0,1,.291-.06.751.751,0,0,1,.3.06.771.771,0,0,1,.246.165.814.814,0,0,1,.168.246A.72.72,0,0,1,16.347-7.986ZM18.879-5.2a3.606,3.606,0,0,1,.42-.4,2.769,2.769,0,0,1,.471-.309,2.391,2.391,0,0,1,.528-.2,2.507,2.507,0,0,1,.6-.069,2.195,2.195,0,0,1,.879.165,1.7,1.7,0,0,1,.636.468,2.067,2.067,0,0,1,.387.729,3.172,3.172,0,0,1,.132.942V0H21.861V-3.87a1.636,1.636,0,0,0-.315-1.071,1.17,1.17,0,0,0-.957-.381,1.8,1.8,0,0,0-.885.228,2.915,2.915,0,0,0-.759.618V0H17.871V-6.078h.642a.264.264,0,0,1,.282.222Zm10.77-.882L27.171,0h-.96L23.733-6.078h.87a.339.339,0,0,1,.216.066.33.33,0,0,1,.114.156l1.542,3.912q.072.222.126.432t.1.42q.048-.21.1-.42t.132-.432L28.5-5.856a.348.348,0,0,1,.12-.159.321.321,0,0,1,.2-.063ZM34.533-3.7a2.106,2.106,0,0,0-.1-.681,1.53,1.53,0,0,0-.306-.534,1.365,1.365,0,0,0-.489-.348,1.651,1.651,0,0,0-.654-.123,1.642,1.642,0,0,0-1.215.447A2.094,2.094,0,0,0,31.209-3.7ZM35.4-.852a2.029,2.029,0,0,1-.474.417,2.951,2.951,0,0,1-.591.291,3.754,3.754,0,0,1-.651.171,3.976,3.976,0,0,1-.666.057,3.09,3.09,0,0,1-1.161-.213,2.548,2.548,0,0,1-.918-.624,2.863,2.863,0,0,1-.6-1.017,4.135,4.135,0,0,1-.216-1.392,3.542,3.542,0,0,1,.2-1.188,2.8,2.8,0,0,1,.561-.957,2.583,2.583,0,0,1,.894-.636,2.935,2.935,0,0,1,1.188-.231,2.737,2.737,0,0,1,1.011.183,2.287,2.287,0,0,1,.8.528,2.419,2.419,0,0,1,.531.852,3.245,3.245,0,0,1,.192,1.155.7.7,0,0,1-.054.336.224.224,0,0,1-.2.084H31.173a3.553,3.553,0,0,0,.159,1,2.013,2.013,0,0,0,.393.711,1.587,1.587,0,0,0,.6.426,2.061,2.061,0,0,0,.78.141A2.288,2.288,0,0,0,33.8-.849a3.3,3.3,0,0,0,.5-.2,3.822,3.822,0,0,0,.351-.2.465.465,0,0,1,.243-.093.235.235,0,0,1,.2.1Zm4.944-4.224a.237.237,0,0,1-.222.132.418.418,0,0,1-.2-.066q-.114-.066-.279-.147a2.62,2.62,0,0,0-.393-.15,1.875,1.875,0,0,0-.54-.069,1.594,1.594,0,0,0-.486.069,1.167,1.167,0,0,0-.369.189.836.836,0,0,0-.234.279.749.749,0,0,0-.081.345.575.575,0,0,0,.135.39,1.173,1.173,0,0,0,.357.27,3.112,3.112,0,0,0,.5.2q.282.087.579.186t.579.219a2.1,2.1,0,0,1,.5.3,1.372,1.372,0,0,1,.357.441,1.35,1.35,0,0,1,.135.627,1.986,1.986,0,0,1-.15.777,1.7,1.7,0,0,1-.444.618,2.141,2.141,0,0,1-.72.411,2.958,2.958,0,0,1-.984.15,3.069,3.069,0,0,1-1.152-.207,2.919,2.919,0,0,1-.876-.531l.252-.408a.366.366,0,0,1,.114-.12.308.308,0,0,1,.168-.042.4.4,0,0,1,.228.084q.12.084.291.186a2.214,2.214,0,0,0,.417.186,1.915,1.915,0,0,0,.612.084,1.669,1.669,0,0,0,.546-.081,1.147,1.147,0,0,0,.39-.219.867.867,0,0,0,.231-.318.988.988,0,0,0,.075-.384.637.637,0,0,0-.135-.417,1.139,1.139,0,0,0-.357-.282,2.909,2.909,0,0,0-.507-.2Q38.4-2.664,38.1-2.76t-.582-.219a2.046,2.046,0,0,1-.507-.309,1.4,1.4,0,0,1-.357-.459,1.484,1.484,0,0,1-.135-.663,1.617,1.617,0,0,1,.144-.669,1.641,1.641,0,0,1,.42-.564,2.068,2.068,0,0,1,.678-.387,2.713,2.713,0,0,1,.918-.144,2.9,2.9,0,0,1,1.077.189,2.549,2.549,0,0,1,.825.519ZM43.863.1a1.465,1.465,0,0,1-1.107-.4,1.6,1.6,0,0,1-.387-1.158v-3.72h-.732a.239.239,0,0,1-.162-.057.222.222,0,0,1-.066-.177v-.426l1-.126.246-1.878a.261.261,0,0,1,.081-.147.236.236,0,0,1,.165-.057h.54v2.094h1.758v.774H43.437v3.648a.776.776,0,0,0,.186.57.65.65,0,0,0,.48.186.847.847,0,0,0,.291-.045,1.249,1.249,0,0,0,.213-.1q.09-.054.153-.1a.2.2,0,0,1,.111-.045.184.184,0,0,1,.15.1l.312.51a1.99,1.99,0,0,1-.666.4A2.262,2.262,0,0,1,43.863.1Z" transform="translate(-381 970)" fill="#abafb3"/>
    <path id="Trazado_1740" data-name="Trazado 1740" d="M-23.341-1.641a2.212,2.212,0,0,0,1.364-.608,1.783,1.783,0,0,0,.463-1.279,1.307,1.307,0,0,0-.115-.565,1.35,1.35,0,0,0-.323-.429,2.092,2.092,0,0,0-.489-.323,6.223,6.223,0,0,0-.612-.255Zm-.544-8.984a3.058,3.058,0,0,0-.808.2,1.774,1.774,0,0,0-.544.344,1.256,1.256,0,0,0-.31.459,1.483,1.483,0,0,0-.1.535,1.307,1.307,0,0,0,.115.565,1.465,1.465,0,0,0,.315.434,2.211,2.211,0,0,0,.472.34,5.281,5.281,0,0,0,.595.276Zm.995,3.562q.612.187,1.215.412a4.36,4.36,0,0,1,1.084.582,2.794,2.794,0,0,1,.778.888,2.694,2.694,0,0,1,.3,1.33,4.137,4.137,0,0,1-.264,1.483,3.594,3.594,0,0,1-.774,1.224A4,4,0,0,1-21.8-.276a4.786,4.786,0,0,1-1.691.4l-.1,1.249a.553.553,0,0,1-.166.361.522.522,0,0,1-.4.166h-.774l.153-1.819a6.478,6.478,0,0,1-1.87-.544,5.256,5.256,0,0,1-1.487-1.011l.646-.961a.664.664,0,0,1,.225-.208.6.6,0,0,1,.3-.081.766.766,0,0,1,.4.132q.212.132.484.306t.621.353a2.937,2.937,0,0,0,.825.263l.314-3.8q-.6-.17-1.194-.4a4,4,0,0,1-1.062-.608,2.825,2.825,0,0,1-.761-.956,3.217,3.217,0,0,1-.289-1.445,3.273,3.273,0,0,1,.255-1.262,3.274,3.274,0,0,1,.752-1.1,4.031,4.031,0,0,1,1.22-.8,4.657,4.657,0,0,1,1.657-.357l.094-1.071a.593.593,0,0,1,.17-.366.525.525,0,0,1,.4-.161h.773l-.136,1.666a4.633,4.633,0,0,1,1.556.514,5.551,5.551,0,0,1,1.13.829l-.51.773a.933.933,0,0,1-.229.255.484.484,0,0,1-.289.085.769.769,0,0,1-.306-.081q-.178-.081-.4-.2t-.5-.234a3.556,3.556,0,0,0-.608-.2ZM-5.916-1.572V0h-6.8V-1.572h2.49V-8.738q0-.425.026-.876l-1.768,1.479a.731.731,0,0,1-.3.149.722.722,0,0,1-.28,0,.681.681,0,0,1-.234-.089.494.494,0,0,1-.153-.14L-13.6-9.12l3.749-3.188h1.725V-1.572Zm2.066,3.655A.394.394,0,0,1-4,1.768a.324.324,0,0,1,.047-.153.676.676,0,0,1,.115-.153l.23-.251a3.569,3.569,0,0,0,.272-.34A3.31,3.31,0,0,0-3.09.455a2.11,2.11,0,0,0,.174-.48,1.206,1.206,0,0,1-.493-.1,1.133,1.133,0,0,1-.378-.268,1.247,1.247,0,0,1-.247-.4,1.372,1.372,0,0,1-.089-.5,1.121,1.121,0,0,1,.089-.446A1.122,1.122,0,0,1-3.783-2.1a1.15,1.15,0,0,1,.391-.246,1.372,1.372,0,0,1,.5-.089,1.307,1.307,0,0,1,.565.115,1.1,1.1,0,0,1,.4.315,1.414,1.414,0,0,1,.238.459A1.833,1.833,0,0,1-1.607-1a3.254,3.254,0,0,1-.123.859,4.435,4.435,0,0,1-.361.9,5.11,5.11,0,0,1-.591.875,5.389,5.389,0,0,1-.8.782ZM8.56-6.145a10.071,10.071,0,0,1-.344,2.792,5.72,5.72,0,0,1-.952,1.959A3.85,3.85,0,0,1,5.827-.242,4.258,4.258,0,0,1,4.038.136,4.2,4.2,0,0,1,2.257-.242,3.834,3.834,0,0,1,.833-1.394,5.713,5.713,0,0,1-.11-3.353,10.19,10.19,0,0,1-.45-6.145a10.179,10.179,0,0,1,.34-2.8A5.715,5.715,0,0,1,.833-10.9a3.834,3.834,0,0,1,1.424-1.152,4.2,4.2,0,0,1,1.781-.378,4.258,4.258,0,0,1,1.789.378A3.85,3.85,0,0,1,7.263-10.9a5.723,5.723,0,0,1,.952,1.955A10.061,10.061,0,0,1,8.56-6.145Zm-2.168,0a10.392,10.392,0,0,0-.2-2.21,4.446,4.446,0,0,0-.523-1.394,1.907,1.907,0,0,0-.752-.727,1.985,1.985,0,0,0-.884-.208,1.941,1.941,0,0,0-.871.208,1.89,1.89,0,0,0-.744.727,4.455,4.455,0,0,0-.514,1.394,10.616,10.616,0,0,0-.191,2.21,10.616,10.616,0,0,0,.191,2.21,4.455,4.455,0,0,0,.514,1.394,1.89,1.89,0,0,0,.744.727,1.941,1.941,0,0,0,.871.208,1.985,1.985,0,0,0,.884-.208,1.907,1.907,0,0,0,.752-.727A4.446,4.446,0,0,0,6.2-3.935,10.392,10.392,0,0,0,6.392-6.145Zm12.027,0a10.071,10.071,0,0,1-.344,2.792,5.72,5.72,0,0,1-.952,1.959A3.85,3.85,0,0,1,15.687-.242,4.258,4.258,0,0,1,13.9.136a4.2,4.2,0,0,1-1.781-.378,3.834,3.834,0,0,1-1.424-1.152,5.713,5.713,0,0,1-.943-1.959,10.19,10.19,0,0,1-.34-2.792,10.179,10.179,0,0,1,.34-2.8,5.715,5.715,0,0,1,.943-1.955,3.834,3.834,0,0,1,1.424-1.152,4.2,4.2,0,0,1,1.781-.378,4.258,4.258,0,0,1,1.789.378A3.85,3.85,0,0,1,17.123-10.9a5.723,5.723,0,0,1,.952,1.955A10.061,10.061,0,0,1,18.419-6.145Zm-2.167,0a10.392,10.392,0,0,0-.2-2.21,4.446,4.446,0,0,0-.523-1.394,1.907,1.907,0,0,0-.752-.727,1.985,1.985,0,0,0-.884-.208,1.941,1.941,0,0,0-.871.208,1.89,1.89,0,0,0-.744.727,4.455,4.455,0,0,0-.514,1.394,10.616,10.616,0,0,0-.191,2.21,10.616,10.616,0,0,0,.191,2.21,4.455,4.455,0,0,0,.514,1.394,1.89,1.89,0,0,0,.744.727,1.941,1.941,0,0,0,.871.208,1.985,1.985,0,0,0,.884-.208,1.907,1.907,0,0,0,.752-.727,4.446,4.446,0,0,0,.523-1.394A10.392,10.392,0,0,0,16.252-6.145Zm12.028,0a10.071,10.071,0,0,1-.344,2.792,5.72,5.72,0,0,1-.952,1.959A3.85,3.85,0,0,1,25.547-.242a4.258,4.258,0,0,1-1.789.378,4.2,4.2,0,0,1-1.781-.378,3.834,3.834,0,0,1-1.424-1.152,5.713,5.713,0,0,1-.944-1.959,10.19,10.19,0,0,1-.34-2.792,10.179,10.179,0,0,1,.34-2.8,5.715,5.715,0,0,1,.944-1.955,3.834,3.834,0,0,1,1.424-1.152,4.2,4.2,0,0,1,1.781-.378,4.258,4.258,0,0,1,1.789.378A3.85,3.85,0,0,1,26.983-10.9a5.723,5.723,0,0,1,.952,1.955A10.061,10.061,0,0,1,28.279-6.145Zm-2.167,0a10.392,10.392,0,0,0-.2-2.21,4.446,4.446,0,0,0-.523-1.394,1.907,1.907,0,0,0-.752-.727,1.985,1.985,0,0,0-.884-.208,1.941,1.941,0,0,0-.871.208,1.89,1.89,0,0,0-.744.727,4.455,4.455,0,0,0-.514,1.394,10.616,10.616,0,0,0-.191,2.21,10.616,10.616,0,0,0,.191,2.21,4.455,4.455,0,0,0,.514,1.394,1.89,1.89,0,0,0,.744.727,1.941,1.941,0,0,0,.871.208,1.985,1.985,0,0,0,.884-.208,1.907,1.907,0,0,0,.752-.727,4.446,4.446,0,0,0,.523-1.394A10.392,10.392,0,0,0,26.112-6.145Z" transform="translate(-381 1000)" fill="#20a8d8"/>
    <path id="Trazado_1744" data-name="Trazado 1744" d="M-50.913,0h-1.164V-8.6h1.164Zm2.862-5.2a3.606,3.606,0,0,1,.42-.4,2.769,2.769,0,0,1,.471-.309,2.391,2.391,0,0,1,.528-.2,2.507,2.507,0,0,1,.6-.069,2.195,2.195,0,0,1,.879.165,1.7,1.7,0,0,1,.636.468,2.067,2.067,0,0,1,.387.729,3.172,3.172,0,0,1,.132.942V0h-1.074V-3.87a1.636,1.636,0,0,0-.315-1.071,1.17,1.17,0,0,0-.957-.381,1.8,1.8,0,0,0-.885.228,2.915,2.915,0,0,0-.759.618V0h-1.074V-6.078h.642a.264.264,0,0,1,.282.222Zm10.77-.882L-39.759,0h-.96L-43.2-6.078h.87a.339.339,0,0,1,.216.066A.33.33,0,0,1-42-5.856l1.542,3.912q.072.222.126.432t.1.42q.048-.21.1-.42t.132-.432l1.56-3.912a.348.348,0,0,1,.12-.159.321.321,0,0,1,.2-.063ZM-32.4-3.7a2.106,2.106,0,0,0-.105-.681,1.53,1.53,0,0,0-.306-.534,1.365,1.365,0,0,0-.489-.348,1.651,1.651,0,0,0-.654-.123,1.642,1.642,0,0,0-1.215.447A2.094,2.094,0,0,0-35.721-3.7Zm.864,2.85a2.029,2.029,0,0,1-.474.417,2.951,2.951,0,0,1-.591.291,3.754,3.754,0,0,1-.651.171,3.976,3.976,0,0,1-.666.057,3.09,3.09,0,0,1-1.161-.213,2.548,2.548,0,0,1-.918-.624,2.863,2.863,0,0,1-.6-1.017,4.135,4.135,0,0,1-.216-1.392,3.542,3.542,0,0,1,.195-1.188,2.8,2.8,0,0,1,.561-.957,2.583,2.583,0,0,1,.894-.636,2.935,2.935,0,0,1,1.188-.231,2.737,2.737,0,0,1,1.011.183,2.287,2.287,0,0,1,.8.528,2.419,2.419,0,0,1,.531.852,3.245,3.245,0,0,1,.192,1.155.7.7,0,0,1-.054.336.224.224,0,0,1-.2.084h-4.062a3.553,3.553,0,0,0,.159,1,2.013,2.013,0,0,0,.393.711,1.587,1.587,0,0,0,.6.426,2.061,2.061,0,0,0,.78.141,2.288,2.288,0,0,0,.693-.093,3.3,3.3,0,0,0,.5-.2,3.821,3.821,0,0,0,.351-.2.465.465,0,0,1,.243-.093.235.235,0,0,1,.2.1Zm4.944-4.224a.237.237,0,0,1-.222.132.418.418,0,0,1-.2-.066q-.114-.066-.279-.147a2.62,2.62,0,0,0-.393-.15,1.875,1.875,0,0,0-.54-.069,1.594,1.594,0,0,0-.486.069,1.167,1.167,0,0,0-.369.189.836.836,0,0,0-.234.279.749.749,0,0,0-.081.345.575.575,0,0,0,.135.39,1.173,1.173,0,0,0,.357.27,3.112,3.112,0,0,0,.5.2q.282.087.579.186t.579.219a2.1,2.1,0,0,1,.5.3,1.372,1.372,0,0,1,.357.441,1.35,1.35,0,0,1,.135.627,1.986,1.986,0,0,1-.15.777,1.7,1.7,0,0,1-.444.618,2.141,2.141,0,0,1-.72.411,2.958,2.958,0,0,1-.984.15A3.069,3.069,0,0,1-29.7-.111a2.919,2.919,0,0,1-.876-.531l.252-.408a.366.366,0,0,1,.114-.12.308.308,0,0,1,.168-.042.4.4,0,0,1,.228.084q.12.084.291.186a2.214,2.214,0,0,0,.417.186,1.915,1.915,0,0,0,.612.084,1.669,1.669,0,0,0,.546-.081,1.147,1.147,0,0,0,.39-.219.867.867,0,0,0,.231-.318.988.988,0,0,0,.075-.384.637.637,0,0,0-.135-.417,1.139,1.139,0,0,0-.357-.282,2.909,2.909,0,0,0-.507-.2q-.285-.087-.582-.183t-.582-.219a2.046,2.046,0,0,1-.507-.309,1.4,1.4,0,0,1-.357-.459,1.484,1.484,0,0,1-.135-.663,1.617,1.617,0,0,1,.144-.669,1.641,1.641,0,0,1,.42-.564,2.068,2.068,0,0,1,.678-.387,2.713,2.713,0,0,1,.918-.144,2.9,2.9,0,0,1,1.077.189,2.549,2.549,0,0,1,.825.519ZM-23.067.1a1.465,1.465,0,0,1-1.107-.4,1.6,1.6,0,0,1-.387-1.158v-3.72h-.732a.239.239,0,0,1-.162-.057.222.222,0,0,1-.066-.177v-.426l1-.126.246-1.878a.261.261,0,0,1,.081-.147.236.236,0,0,1,.165-.057h.54v2.094h1.758v.774h-1.758v3.648a.776.776,0,0,0,.186.57.65.65,0,0,0,.48.186.847.847,0,0,0,.291-.045,1.249,1.249,0,0,0,.213-.1q.09-.054.153-.1a.2.2,0,0,1,.111-.045.184.184,0,0,1,.15.1l.312.51a1.99,1.99,0,0,1-.666.4A2.262,2.262,0,0,1-23.067.1Zm2.436-.1V-6.078h.642a.264.264,0,0,1,.282.222l.078.624a3.094,3.094,0,0,1,.756-.678,1.788,1.788,0,0,1,.972-.264,1.43,1.43,0,0,1,.993.342,1.924,1.924,0,0,1,.549.924,2,2,0,0,1,.339-.57,1.934,1.934,0,0,1,.465-.4,1.969,1.969,0,0,1,.549-.228,2.452,2.452,0,0,1,.591-.072,2.248,2.248,0,0,1,.855.153,1.693,1.693,0,0,1,.636.447,1.991,1.991,0,0,1,.4.723,3.2,3.2,0,0,1,.138.981V0h-1.074V-3.87a1.638,1.638,0,0,0-.312-1.083,1.113,1.113,0,0,0-.9-.369,1.359,1.359,0,0,0-.5.093,1.207,1.207,0,0,0-.417.273,1.28,1.28,0,0,0-.285.453,1.757,1.757,0,0,0-.1.633V0h-1.074V-3.87a1.7,1.7,0,0,0-.294-1.092,1.043,1.043,0,0,0-.858-.36,1.341,1.341,0,0,0-.732.213,2.429,2.429,0,0,0-.618.579V0ZM-6.693-3.7A2.106,2.106,0,0,0-6.8-4.383,1.529,1.529,0,0,0-7.1-4.917a1.365,1.365,0,0,0-.489-.348,1.651,1.651,0,0,0-.654-.123,1.642,1.642,0,0,0-1.215.447A2.094,2.094,0,0,0-10.017-3.7Zm.864,2.85A2.029,2.029,0,0,1-6.3-.435a2.951,2.951,0,0,1-.591.291,3.754,3.754,0,0,1-.651.171,3.976,3.976,0,0,1-.666.057A3.09,3.09,0,0,1-9.372-.129a2.548,2.548,0,0,1-.918-.624,2.863,2.863,0,0,1-.6-1.017,4.135,4.135,0,0,1-.216-1.392,3.542,3.542,0,0,1,.195-1.188,2.8,2.8,0,0,1,.561-.957,2.583,2.583,0,0,1,.894-.636,2.935,2.935,0,0,1,1.188-.231,2.737,2.737,0,0,1,1.011.183,2.287,2.287,0,0,1,.8.528,2.419,2.419,0,0,1,.531.852,3.245,3.245,0,0,1,.192,1.155.7.7,0,0,1-.054.336.224.224,0,0,1-.2.084h-4.062a3.554,3.554,0,0,0,.159,1,2.013,2.013,0,0,0,.393.711A1.587,1.587,0,0,0-8.9-.9a2.061,2.061,0,0,0,.78.141,2.288,2.288,0,0,0,.693-.093,3.3,3.3,0,0,0,.5-.2,3.822,3.822,0,0,0,.351-.2.465.465,0,0,1,.243-.093.235.235,0,0,1,.2.1ZM-3.417-5.2A3.606,3.606,0,0,1-3-5.6a2.769,2.769,0,0,1,.471-.309A2.391,2.391,0,0,1-2-6.105a2.507,2.507,0,0,1,.6-.069,2.195,2.195,0,0,1,.879.165,1.7,1.7,0,0,1,.636.468,2.067,2.067,0,0,1,.387.729,3.172,3.172,0,0,1,.132.942V0H-.435V-3.87A1.636,1.636,0,0,0-.75-4.941a1.17,1.17,0,0,0-.957-.381,1.8,1.8,0,0,0-.885.228,2.915,2.915,0,0,0-.759.618V0H-4.425V-6.078h.642a.264.264,0,0,1,.282.222ZM4.053.1a1.465,1.465,0,0,1-1.107-.4,1.6,1.6,0,0,1-.387-1.158v-3.72H1.827a.239.239,0,0,1-.162-.057A.222.222,0,0,1,1.6-5.418v-.426l1-.126.246-1.878a.261.261,0,0,1,.081-.147.236.236,0,0,1,.165-.057h.54v2.094H5.385v.774H3.627v3.648a.776.776,0,0,0,.186.57.65.65,0,0,0,.48.186.847.847,0,0,0,.291-.045,1.249,1.249,0,0,0,.213-.1q.09-.054.153-.1a.2.2,0,0,1,.111-.045.184.184,0,0,1,.15.1l.312.51a1.99,1.99,0,0,1-.666.4A2.262,2.262,0,0,1,4.053.1Zm9.468-4.728a1.726,1.726,0,0,0-.648-.561,1.856,1.856,0,0,0-.78-.159,1.532,1.532,0,0,0-1.3.606,2.83,2.83,0,0,0-.456,1.728A4.394,4.394,0,0,0,10.437-2a1.957,1.957,0,0,0,.3.7,1.179,1.179,0,0,0,.486.4,1.616,1.616,0,0,0,.654.126,1.732,1.732,0,0,0,.921-.24,2.638,2.638,0,0,0,.723-.678Zm1.068-4.206V0h-.636a.272.272,0,0,1-.288-.222l-.1-.738a3.309,3.309,0,0,1-.888.756,2.26,2.26,0,0,1-1.152.288,2.194,2.194,0,0,1-.948-.2,1.966,1.966,0,0,1-.726-.591,2.815,2.815,0,0,1-.462-.972,5,5,0,0,1-.162-1.338,4.194,4.194,0,0,1,.18-1.251,3.082,3.082,0,0,1,.516-1.005,2.4,2.4,0,0,1,.825-.669,2.44,2.44,0,0,1,1.1-.243A2.219,2.219,0,0,1,12.81-6a2.319,2.319,0,0,1,.711.525V-8.838Zm6.69,2.76V0h-.636a.272.272,0,0,1-.288-.222l-.084-.654a3.343,3.343,0,0,1-.888.7A2.327,2.327,0,0,1,18.255.1a2.195,2.195,0,0,1-.879-.165,1.743,1.743,0,0,1-.639-.465,1.975,1.975,0,0,1-.387-.726,3.241,3.241,0,0,1-.129-.942V-6.078h1.068V-2.2A1.623,1.623,0,0,0,17.6-1.134a1.182,1.182,0,0,0,.963.378,1.814,1.814,0,0,0,.885-.225,2.811,2.811,0,0,0,.759-.621V-6.078ZM23.985-4.86a2.741,2.741,0,0,1,.708-.975,1.547,1.547,0,0,1,1.026-.351,1.593,1.593,0,0,1,.369.042.99.99,0,0,1,.315.132l-.078.8a.172.172,0,0,1-.18.15A1.239,1.239,0,0,1,25.9-5.1a1.694,1.694,0,0,0-.366-.036,1.46,1.46,0,0,0-.513.084,1.2,1.2,0,0,0-.4.249,1.76,1.76,0,0,0-.318.408,3.5,3.5,0,0,0-.255.555V0H22.971V-6.078h.612a.338.338,0,0,1,.24.066.4.4,0,0,1,.09.228Zm6.552,2.124a8.9,8.9,0,0,0-1.257.117,3.575,3.575,0,0,0-.846.243,1.168,1.168,0,0,0-.474.354.762.762,0,0,0-.147.456,1.006,1.006,0,0,0,.078.414.769.769,0,0,0,.213.285.855.855,0,0,0,.318.162,1.459,1.459,0,0,0,.393.051,2.18,2.18,0,0,0,.516-.057,1.944,1.944,0,0,0,.441-.165,2.487,2.487,0,0,0,.4-.258,3.431,3.431,0,0,0,.369-.342ZM27.087-5.22a3.471,3.471,0,0,1,1.086-.726,3.353,3.353,0,0,1,1.29-.24,2.3,2.3,0,0,1,.906.168,1.858,1.858,0,0,1,.666.468,1.982,1.982,0,0,1,.408.726,3.024,3.024,0,0,1,.138.936V0h-.474a.466.466,0,0,1-.24-.051.347.347,0,0,1-.132-.2l-.12-.576a5.955,5.955,0,0,1-.468.393,2.678,2.678,0,0,1-.48.288,2.607,2.607,0,0,1-.537.18A2.938,2.938,0,0,1,28.5.1a2.19,2.19,0,0,1-.666-.1,1.539,1.539,0,0,1-.543-.3,1.4,1.4,0,0,1-.366-.5,1.751,1.751,0,0,1-.135-.717,1.337,1.337,0,0,1,.2-.693,1.735,1.735,0,0,1,.642-.591,4.211,4.211,0,0,1,1.158-.423,8.83,8.83,0,0,1,1.752-.189v-.474a1.625,1.625,0,0,0-.306-1.071,1.1,1.1,0,0,0-.894-.363,1.922,1.922,0,0,0-.663.1A2.487,2.487,0,0,0,28.212-5q-.195.123-.336.222a.485.485,0,0,1-.279.1.307.307,0,0,1-.186-.057.523.523,0,0,1-.132-.141ZM38.769,0H37.7V-5.184H34.569v3.648a.776.776,0,0,0,.186.57.65.65,0,0,0,.48.186.847.847,0,0,0,.291-.045,1.249,1.249,0,0,0,.213-.1q.09-.054.153-.1A.2.2,0,0,1,36-1.068a.184.184,0,0,1,.15.1l.312.51a1.99,1.99,0,0,1-.666.4A2.262,2.262,0,0,1,35,.1a1.465,1.465,0,0,1-1.107-.4A1.6,1.6,0,0,1,33.5-1.464v-3.72h-.732a.239.239,0,0,1-.162-.057.222.222,0,0,1-.066-.177v-.426l1-.132.246-1.872a.261.261,0,0,1,.081-.147.236.236,0,0,1,.165-.057h.54v2.094h4.2Zm.264-8.028a.68.68,0,0,1-.063.291A.8.8,0,0,1,38.8-7.5a.807.807,0,0,1-.243.162.729.729,0,0,1-.294.06.708.708,0,0,1-.291-.06.78.78,0,0,1-.237-.162.78.78,0,0,1-.162-.237.708.708,0,0,1-.06-.291.751.751,0,0,1,.06-.3.8.8,0,0,1,.162-.246.754.754,0,0,1,.237-.165.708.708,0,0,1,.291-.06.729.729,0,0,1,.294.06.781.781,0,0,1,.243.165.814.814,0,0,1,.168.246A.72.72,0,0,1,39.033-8.028Zm4.05,1.854a3.1,3.1,0,0,1,1.2.222,2.572,2.572,0,0,1,.912.63,2.765,2.765,0,0,1,.579.987,3.925,3.925,0,0,1,.2,1.293,3.917,3.917,0,0,1-.2,1.3,2.769,2.769,0,0,1-.579.984,2.539,2.539,0,0,1-.912.627,3.137,3.137,0,0,1-1.2.219,3.176,3.176,0,0,1-1.209-.219,2.533,2.533,0,0,1-.915-.627,2.769,2.769,0,0,1-.579-.984,3.917,3.917,0,0,1-.2-1.3,3.925,3.925,0,0,1,.2-1.293,2.765,2.765,0,0,1,.579-.987,2.566,2.566,0,0,1,.915-.63A3.138,3.138,0,0,1,43.083-6.174Zm0,5.424a1.56,1.56,0,0,0,1.344-.6,2.792,2.792,0,0,0,.444-1.683,2.818,2.818,0,0,0-.444-1.692,1.557,1.557,0,0,0-1.344-.606,1.886,1.886,0,0,0-.8.156,1.477,1.477,0,0,0-.564.45,2,2,0,0,0-.336.723,3.875,3.875,0,0,0-.111.969,2.778,2.778,0,0,0,.447,1.683A1.582,1.582,0,0,0,43.083-.75ZM48.333-5.2a3.606,3.606,0,0,1,.42-.4,2.769,2.769,0,0,1,.471-.309,2.391,2.391,0,0,1,.528-.2,2.507,2.507,0,0,1,.6-.069,2.195,2.195,0,0,1,.879.165,1.7,1.7,0,0,1,.636.468,2.067,2.067,0,0,1,.387.729,3.172,3.172,0,0,1,.132.942V0H51.315V-3.87A1.636,1.636,0,0,0,51-4.941a1.17,1.17,0,0,0-.957-.381,1.8,1.8,0,0,0-.885.228,2.915,2.915,0,0,0-.759.618V0H47.325V-6.078h.642a.264.264,0,0,1,.282.222Z" transform="translate(-236 970)" fill="#abafb3"/>
    <path id="Trazado_1741" data-name="Trazado 1741" d="M-44.12-4.256l-1.8-4.664q-.08-.208-.168-.484t-.168-.588a8.716,8.716,0,0,1-.344,1.08l-1.8,4.656ZM-40.888,0h-1.2a.516.516,0,0,1-.336-.1.64.64,0,0,1-.192-.264l-1.072-2.768h-5.144L-49.9-.368a.562.562,0,0,1-.184.256A.511.511,0,0,1-50.424,0h-1.2l4.584-11.464h1.568ZM-37.7.128A1.954,1.954,0,0,1-39.18-.408,2.139,2.139,0,0,1-39.7-1.952v-4.96h-.976a.319.319,0,0,1-.216-.076.3.3,0,0,1-.088-.236v-.568l1.328-.168.328-2.5a.348.348,0,0,1,.108-.2.315.315,0,0,1,.22-.076h.72v2.792h2.344v1.032h-2.344v4.864a1.035,1.035,0,0,0,.248.76.866.866,0,0,0,.64.248A1.13,1.13,0,0,0-37-1.1a1.665,1.665,0,0,0,.284-.132q.12-.072.2-.132a.267.267,0,0,1,.148-.06.245.245,0,0,1,.2.136l.416.68a2.653,2.653,0,0,1-.888.54A3.015,3.015,0,0,1-37.7.128Zm9.832,0a1.954,1.954,0,0,1-1.476-.536,2.139,2.139,0,0,1-.516-1.544v-4.96h-.976a.319.319,0,0,1-.216-.076.3.3,0,0,1-.088-.236v-.568l1.328-.168.328-2.5a.348.348,0,0,1,.108-.2.315.315,0,0,1,.22-.076h.72v2.792H-26.1v1.032H-28.44v4.864a1.035,1.035,0,0,0,.248.76.866.866,0,0,0,.64.248,1.13,1.13,0,0,0,.388-.06,1.665,1.665,0,0,0,.284-.132q.12-.072.2-.132a.267.267,0,0,1,.148-.06.245.245,0,0,1,.2.136l.416.68a2.653,2.653,0,0,1-.888.54A3.015,3.015,0,0,1-27.872.128Zm4.68-7.152A4.3,4.3,0,0,1-22.04-7.9a3.116,3.116,0,0,1,1.456-.328,2.926,2.926,0,0,1,1.172.22,2.268,2.268,0,0,1,.848.624,2.756,2.756,0,0,1,.516.972,4.23,4.23,0,0,1,.176,1.256V0H-19.3V-5.16a2.181,2.181,0,0,0-.42-1.428A1.56,1.56,0,0,0-21-7.1a2.394,2.394,0,0,0-1.18.3,3.886,3.886,0,0,0-1.012.824V0h-1.432V-11.784h1.432Zm12.92,2.088a2.808,2.808,0,0,0-.14-.908,2.039,2.039,0,0,0-.408-.712,1.82,1.82,0,0,0-.652-.464,2.2,2.2,0,0,0-.872-.164,2.189,2.189,0,0,0-1.62.6,2.792,2.792,0,0,0-.74,1.652Zm1.152,3.8a2.7,2.7,0,0,1-.632.556,3.935,3.935,0,0,1-.788.388,5.005,5.005,0,0,1-.868.228A5.3,5.3,0,0,1-12.3.112a4.121,4.121,0,0,1-1.548-.284A3.4,3.4,0,0,1-15.068-1a3.817,3.817,0,0,1-.8-1.356,5.514,5.514,0,0,1-.288-1.856A4.722,4.722,0,0,1-15.9-5.8a3.733,3.733,0,0,1,.748-1.276,3.443,3.443,0,0,1,1.192-.848,3.913,3.913,0,0,1,1.584-.308,3.649,3.649,0,0,1,1.348.244,3.049,3.049,0,0,1,1.072.7,3.225,3.225,0,0,1,.708,1.136,4.327,4.327,0,0,1,.256,1.54.929.929,0,0,1-.072.448.3.3,0,0,1-.272.112h-5.416a4.738,4.738,0,0,0,.212,1.336,2.684,2.684,0,0,0,.524.948,2.116,2.116,0,0,0,.8.568,2.747,2.747,0,0,0,1.04.188,3.051,3.051,0,0,0,.924-.124,4.4,4.4,0,0,0,.668-.268,5.1,5.1,0,0,0,.468-.268.62.62,0,0,1,.324-.124.313.313,0,0,1,.272.136ZM1.24-3.648a11.869,11.869,0,0,0-1.676.156,4.766,4.766,0,0,0-1.128.324A1.557,1.557,0,0,0-2.2-2.7a1.015,1.015,0,0,0-.2.608,1.342,1.342,0,0,0,.1.552A1.026,1.026,0,0,0-2-1.156,1.14,1.14,0,0,0-1.58-.94a1.945,1.945,0,0,0,.524.068A2.907,2.907,0,0,0-.368-.948a2.592,2.592,0,0,0,.588-.22,3.315,3.315,0,0,0,.528-.344,4.574,4.574,0,0,0,.492-.456ZM-3.36-6.96a4.628,4.628,0,0,1,1.448-.968,4.471,4.471,0,0,1,1.72-.32,3.069,3.069,0,0,1,1.208.224A2.477,2.477,0,0,1,1.9-7.4a2.643,2.643,0,0,1,.544.968,4.032,4.032,0,0,1,.184,1.248V0H2a.621.621,0,0,1-.32-.068A.463.463,0,0,1,1.5-.336L1.344-1.1A7.941,7.941,0,0,1,.72-.58,3.571,3.571,0,0,1,.08-.2a3.476,3.476,0,0,1-.716.24A3.918,3.918,0,0,1-1.48.128,2.92,2.92,0,0,1-2.368,0a2.051,2.051,0,0,1-.724-.4,1.863,1.863,0,0,1-.488-.668,2.334,2.334,0,0,1-.18-.956A1.783,1.783,0,0,1-3.5-2.948a2.313,2.313,0,0,1,.856-.788A5.614,5.614,0,0,1-1.1-4.3,11.773,11.773,0,0,1,1.24-4.552v-.632A2.166,2.166,0,0,0,.832-6.612,1.471,1.471,0,0,0-.36-7.1a2.563,2.563,0,0,0-.884.132,3.316,3.316,0,0,0-.616.3q-.26.164-.448.3a.646.646,0,0,1-.372.132.409.409,0,0,1-.248-.076A.7.7,0,0,1-3.1-6.5ZM11.576-8.1,8.272,0H6.992l-3.3-8.1h1.16a.452.452,0,0,1,.288.088.44.44,0,0,1,.152.208L7.344-2.592q.1.3.168.576t.136.56q.064-.28.136-.56t.176-.576l2.08-5.216a.464.464,0,0,1,.16-.212.428.428,0,0,1,.264-.084ZM15.52-3.96a2.207,2.207,0,0,0,.76-.12,1.55,1.55,0,0,0,.552-.336,1.375,1.375,0,0,0,.336-.516,1.874,1.874,0,0,0,.112-.66,1.576,1.576,0,0,0-.452-1.184,1.8,1.8,0,0,0-1.308-.44,1.812,1.812,0,0,0-1.316.44,1.576,1.576,0,0,0-.452,1.184,1.816,1.816,0,0,0,.116.66,1.417,1.417,0,0,0,.34.516,1.55,1.55,0,0,0,.552.336A2.207,2.207,0,0,0,15.52-3.96ZM18.088.44a.684.684,0,0,0-.168-.48,1.12,1.12,0,0,0-.452-.288,2.908,2.908,0,0,0-.66-.148q-.376-.044-.8-.068L15.16-.592q-.432-.024-.832-.08a2.23,2.23,0,0,0-.732.524,1.072,1.072,0,0,0-.284.74.979.979,0,0,0,.14.508,1.193,1.193,0,0,0,.428.408,2.505,2.505,0,0,0,.724.272,4.644,4.644,0,0,0,1.028.1,4.659,4.659,0,0,0,1.032-.1,2.591,2.591,0,0,0,.772-.3,1.453,1.453,0,0,0,.484-.456A1.066,1.066,0,0,0,18.088.44Zm1.448-8.224v.528q0,.264-.336.336l-.92.12a2.512,2.512,0,0,1,.272,1.168,2.493,2.493,0,0,1-.228,1.076,2.464,2.464,0,0,1-.628.828,2.787,2.787,0,0,1-.96.528,3.874,3.874,0,0,1-1.216.184,4.1,4.1,0,0,1-1.072-.136,1.44,1.44,0,0,0-.392.34.6.6,0,0,0-.136.364.482.482,0,0,0,.236.436,1.689,1.689,0,0,0,.62.212,6.7,6.7,0,0,0,.876.08q.492.016,1.008.052a9.462,9.462,0,0,1,1.008.124,3.048,3.048,0,0,1,.876.288,1.652,1.652,0,0,1,.62.552A1.608,1.608,0,0,1,19.4.208a2.118,2.118,0,0,1-.26,1.008,2.727,2.727,0,0,1-.748.868,3.848,3.848,0,0,1-1.2.608,5.2,5.2,0,0,1-1.6.228,6.1,6.1,0,0,1-1.552-.176,3.642,3.642,0,0,1-1.1-.472,2.057,2.057,0,0,1-.66-.684,1.623,1.623,0,0,1-.22-.812A1.461,1.461,0,0,1,12.44-.24,2.6,2.6,0,0,1,13.472-.9a1.477,1.477,0,0,1-.572-.428,1.136,1.136,0,0,1-.212-.724,1.127,1.127,0,0,1,.064-.364,1.5,1.5,0,0,1,.2-.376,2.009,2.009,0,0,1,.324-.356,2.107,2.107,0,0,1,.448-.3,2.491,2.491,0,0,1-.936-.892,2.449,2.449,0,0,1-.336-1.292,2.494,2.494,0,0,1,.228-1.076,2.379,2.379,0,0,1,.636-.824,2.909,2.909,0,0,1,.972-.524A3.966,3.966,0,0,1,15.52-8.24a3.982,3.982,0,0,1,.984.116,3.117,3.117,0,0,1,.832.34Zm6.928,1.3a3.654,3.654,0,0,1,.944-1.3,2.062,2.062,0,0,1,1.368-.468,2.124,2.124,0,0,1,.492.056,1.32,1.32,0,0,1,.42.176l-.1,1.064a.229.229,0,0,1-.24.2,1.652,1.652,0,0,1-.328-.048,2.258,2.258,0,0,0-.488-.048,1.947,1.947,0,0,0-.684.112,1.6,1.6,0,0,0-.536.332,2.346,2.346,0,0,0-.424.544,4.663,4.663,0,0,0-.34.74V0H25.112V-8.1h.816a.45.45,0,0,1,.32.088.54.54,0,0,1,.12.3ZM35.2-3.648a11.869,11.869,0,0,0-1.676.156,4.766,4.766,0,0,0-1.128.324,1.557,1.557,0,0,0-.632.472,1.015,1.015,0,0,0-.2.608,1.342,1.342,0,0,0,.1.552,1.026,1.026,0,0,0,.284.38,1.14,1.14,0,0,0,.424.216,1.945,1.945,0,0,0,.524.068,2.907,2.907,0,0,0,.688-.076,2.592,2.592,0,0,0,.588-.22,3.315,3.315,0,0,0,.528-.344,4.574,4.574,0,0,0,.492-.456ZM30.6-6.96a4.628,4.628,0,0,1,1.448-.968,4.471,4.471,0,0,1,1.72-.32,3.069,3.069,0,0,1,1.208.224,2.477,2.477,0,0,1,.888.624,2.643,2.643,0,0,1,.544.968,4.032,4.032,0,0,1,.184,1.248V0H35.96a.621.621,0,0,1-.32-.068.463.463,0,0,1-.176-.268L35.3-1.1a7.941,7.941,0,0,1-.624.524,3.571,3.571,0,0,1-.64.384,3.476,3.476,0,0,1-.716.24,3.918,3.918,0,0,1-.844.084A2.92,2.92,0,0,1,31.592,0a2.051,2.051,0,0,1-.724-.4,1.863,1.863,0,0,1-.488-.668,2.334,2.334,0,0,1-.18-.956,1.783,1.783,0,0,1,.264-.924,2.313,2.313,0,0,1,.856-.788A5.614,5.614,0,0,1,32.864-4.3,11.773,11.773,0,0,1,35.2-4.552v-.632a2.166,2.166,0,0,0-.408-1.428A1.471,1.471,0,0,0,33.6-7.1a2.563,2.563,0,0,0-.884.132,3.316,3.316,0,0,0-.616.3q-.26.164-.448.3a.646.646,0,0,1-.372.132.409.409,0,0,1-.248-.076.7.7,0,0,1-.176-.188ZM41.144.128a1.954,1.954,0,0,1-1.476-.536,2.139,2.139,0,0,1-.516-1.544v-4.96h-.976a.319.319,0,0,1-.216-.076.3.3,0,0,1-.088-.236v-.568L39.2-7.96l.328-2.5a.348.348,0,0,1,.108-.2.315.315,0,0,1,.22-.076h.72v2.792H42.92v1.032H40.576v4.864a1.035,1.035,0,0,0,.248.76.866.866,0,0,0,.64.248,1.13,1.13,0,0,0,.388-.06,1.665,1.665,0,0,0,.284-.132q.12-.072.2-.132a.267.267,0,0,1,.148-.06.245.245,0,0,1,.2.136l.416.68a2.653,2.653,0,0,1-.888.54A3.015,3.015,0,0,1,41.144.128Zm8.632-5.064a2.808,2.808,0,0,0-.14-.908,2.039,2.039,0,0,0-.408-.712,1.82,1.82,0,0,0-.652-.464,2.2,2.2,0,0,0-.872-.164,2.189,2.189,0,0,0-1.62.6,2.792,2.792,0,0,0-.74,1.652Zm1.152,3.8A2.7,2.7,0,0,1,50.3-.58a3.935,3.935,0,0,1-.788.388,5.005,5.005,0,0,1-.868.228,5.3,5.3,0,0,1-.888.076A4.121,4.121,0,0,1,46.2-.172,3.4,3.4,0,0,1,44.98-1a3.817,3.817,0,0,1-.8-1.356,5.514,5.514,0,0,1-.288-1.856,4.722,4.722,0,0,1,.26-1.584A3.734,3.734,0,0,1,44.9-7.076a3.443,3.443,0,0,1,1.192-.848,3.913,3.913,0,0,1,1.584-.308,3.649,3.649,0,0,1,1.348.244,3.049,3.049,0,0,1,1.072.7A3.225,3.225,0,0,1,50.8-6.148a4.327,4.327,0,0,1,.256,1.54.929.929,0,0,1-.072.448.3.3,0,0,1-.272.112H45.3a4.738,4.738,0,0,0,.212,1.336,2.684,2.684,0,0,0,.524.948,2.116,2.116,0,0,0,.8.568,2.747,2.747,0,0,0,1.04.188,3.051,3.051,0,0,0,.924-.124,4.4,4.4,0,0,0,.668-.268,5.1,5.1,0,0,0,.468-.268.62.62,0,0,1,.324-.124.313.313,0,0,1,.272.136Z" transform="translate(-306 1037)" fill="#abafb3"/>
    <path id="Trazado_1745" data-name="Trazado 1745" d="M-28.6-1.572V0h-6.8V-1.572h2.49V-8.738q0-.425.026-.876l-1.768,1.479a.731.731,0,0,1-.3.149.722.722,0,0,1-.28,0,.681.681,0,0,1-.234-.089.494.494,0,0,1-.153-.14l-.663-.909,3.749-3.188h1.726V-1.572Zm9.4-.383a.748.748,0,0,1,.54.191.668.668,0,0,1,.2.506V0h-8.432V-.7a1.251,1.251,0,0,1,.089-.446,1.144,1.144,0,0,1,.285-.421l3.731-3.74q.467-.476.837-.91a5.871,5.871,0,0,0,.616-.859,4.038,4.038,0,0,0,.378-.863,3.183,3.183,0,0,0,.132-.922,2.183,2.183,0,0,0-.128-.778,1.551,1.551,0,0,0-.361-.565,1.5,1.5,0,0,0-.561-.344,2.212,2.212,0,0,0-.735-.115,2.178,2.178,0,0,0-.693.106,1.887,1.887,0,0,0-.565.3,1.886,1.886,0,0,0-.417.446,1.94,1.94,0,0,0-.255.561.93.93,0,0,1-.374.519,1.048,1.048,0,0,1-.663.059l-1.105-.2a4.558,4.558,0,0,1,.493-1.551,3.72,3.72,0,0,1,.914-1.114,3.785,3.785,0,0,1,1.258-.671,5.017,5.017,0,0,1,1.526-.225,4.617,4.617,0,0,1,1.556.251,3.5,3.5,0,0,1,1.207.71,3.213,3.213,0,0,1,.782,1.1,3.57,3.57,0,0,1,.281,1.437,3.828,3.828,0,0,1-.2,1.258A5.231,5.231,0,0,1-19.4-6.562a7.44,7.44,0,0,1-.786,1.02q-.45.493-.944,1L-23.9-1.709a6.293,6.293,0,0,1,.795-.183,4.73,4.73,0,0,1,.752-.064ZM1.148-12.291V0H-.867V-7.939q0-.476.051-1.028L-4.53-1.989a.859.859,0,0,1-.807.5h-.323a.859.859,0,0,1-.807-.5l-3.757-7q.026.281.043.553t.017.5V0H-12.18V-12.291h1.726q.153,0,.264.008a.713.713,0,0,1,.2.042.434.434,0,0,1,.161.111.944.944,0,0,1,.14.2L-6.009-5.1q.144.272.268.561t.242.6q.119-.315.247-.608t.272-.565l3.629-6.808a.858.858,0,0,1,.145-.2.472.472,0,0,1,.166-.111.713.713,0,0,1,.2-.042q.11-.008.264-.008Zm6,3.434a4.755,4.755,0,0,1,1.764.315,3.864,3.864,0,0,1,1.36.892,3.92,3.92,0,0,1,.871,1.411,5.367,5.367,0,0,1,.306,1.862,5.394,5.394,0,0,1-.306,1.87,4.006,4.006,0,0,1-.871,1.419,3.808,3.808,0,0,1-1.36.9A4.755,4.755,0,0,1,7.149.127,4.813,4.813,0,0,1,5.372-.187a3.8,3.8,0,0,1-1.364-.9,4.056,4.056,0,0,1-.875-1.419,5.327,5.327,0,0,1-.31-1.87,5.3,5.3,0,0,1,.31-1.862A3.968,3.968,0,0,1,4.008-7.65a3.856,3.856,0,0,1,1.364-.892A4.813,4.813,0,0,1,7.149-8.857Zm0,7.37a1.847,1.847,0,0,0,1.611-.731,3.665,3.665,0,0,0,.523-2.142,3.707,3.707,0,0,0-.523-2.15,1.838,1.838,0,0,0-1.611-.74,1.875,1.875,0,0,0-1.636.744,3.665,3.665,0,0,0-.531,2.146,3.623,3.623,0,0,0,.531,2.138A1.883,1.883,0,0,0,7.149-1.487ZM15.02-7.65a5.679,5.679,0,0,1,.557-.489,3.518,3.518,0,0,1,.62-.383,3.477,3.477,0,0,1,.7-.246,3.513,3.513,0,0,1,.816-.089,3.127,3.127,0,0,1,1.267.242,2.5,2.5,0,0,1,.922.68,2.989,2.989,0,0,1,.561,1.045,4.443,4.443,0,0,1,.191,1.339V0h-2.1V-5.55a1.877,1.877,0,0,0-.365-1.237,1.368,1.368,0,0,0-1.113-.438,2.186,2.186,0,0,0-1.02.247,3.655,3.655,0,0,0-.9.672V0h-2.1V-8.721H14.34a.516.516,0,0,1,.536.383ZM25.432.136a2.291,2.291,0,0,1-1.747-.642,2.474,2.474,0,0,1-.608-1.772v-4.87h-.892a.409.409,0,0,1-.289-.11.431.431,0,0,1-.119-.332v-.833l1.4-.229.442-2.38a.466.466,0,0,1,.162-.264.481.481,0,0,1,.306-.094h1.088v2.746h2.329v1.5H25.177v4.726a.939.939,0,0,0,.2.637.689.689,0,0,0,.548.229.988.988,0,0,0,.327-.047,1.8,1.8,0,0,0,.229-.1q.1-.051.174-.1a.291.291,0,0,1,.153-.047.24.24,0,0,1,.153.047.709.709,0,0,1,.128.14l.629,1.02a3.178,3.178,0,0,1-1.054.578A3.923,3.923,0,0,1,25.432.136Zm5.516-7.922a4.558,4.558,0,0,1,1.122-.773,3.251,3.251,0,0,1,1.437-.3,3.127,3.127,0,0,1,1.266.242,2.5,2.5,0,0,1,.922.68,2.989,2.989,0,0,1,.561,1.045,4.443,4.443,0,0,1,.191,1.339V0h-2.1V-5.55a1.877,1.877,0,0,0-.365-1.237,1.368,1.368,0,0,0-1.114-.438,2.186,2.186,0,0,0-1.02.247,3.656,3.656,0,0,0-.9.672V0h-2.1V-12.631h2.1Z" transform="translate(-236 1000)" fill="#20a8d8"/>
    <path id="Trazado_1746" data-name="Trazado 1746" d="M-31.579-2.22a2.993,2.993,0,0,0,1.846-.822,2.413,2.413,0,0,0,.627-1.731,1.769,1.769,0,0,0-.155-.765,1.827,1.827,0,0,0-.437-.581,2.83,2.83,0,0,0-.661-.437,8.42,8.42,0,0,0-.828-.345Zm-.736-12.155a4.137,4.137,0,0,0-1.092.27,2.4,2.4,0,0,0-.736.466,1.7,1.7,0,0,0-.42.621,2.007,2.007,0,0,0-.132.724,1.769,1.769,0,0,0,.155.765,1.982,1.982,0,0,0,.425.587,2.992,2.992,0,0,0,.638.46,7.145,7.145,0,0,0,.805.374Zm1.346,4.819q.828.253,1.644.558a5.9,5.9,0,0,1,1.466.788,3.78,3.78,0,0,1,1.052,1.2,3.645,3.645,0,0,1,.4,1.8A5.6,5.6,0,0,1-26.76-3.2a4.863,4.863,0,0,1-1.047,1.656A5.414,5.414,0,0,1-29.5-.374a6.475,6.475,0,0,1-2.288.535l-.138,1.691a.748.748,0,0,1-.224.489.706.706,0,0,1-.535.224h-1.047L-33.522.1a8.764,8.764,0,0,1-2.53-.736A7.111,7.111,0,0,1-38.065-2l.874-1.3a.9.9,0,0,1,.3-.282.8.8,0,0,1,.408-.109,1.036,1.036,0,0,1,.54.178q.288.178.656.414t.84.477a3.974,3.974,0,0,0,1.115.356l.425-5.141q-.816-.23-1.616-.54a5.416,5.416,0,0,1-1.437-.822,3.822,3.822,0,0,1-1.029-1.294,4.352,4.352,0,0,1-.391-1.955,4.428,4.428,0,0,1,.345-1.708,4.429,4.429,0,0,1,1.018-1.489,5.454,5.454,0,0,1,1.65-1.081,6.3,6.3,0,0,1,2.243-.483l.127-1.449a.8.8,0,0,1,.23-.494.71.71,0,0,1,.54-.219h1.047l-.184,2.254a6.268,6.268,0,0,1,2.1.7,7.51,7.51,0,0,1,1.53,1.121l-.69,1.047a1.262,1.262,0,0,1-.31.345.655.655,0,0,1-.391.115,1.04,1.04,0,0,1-.414-.109q-.242-.109-.541-.264t-.673-.316a4.81,4.81,0,0,0-.822-.264Zm12.305-2.438a6.167,6.167,0,0,1,.667-2.1A5.032,5.032,0,0,1-16.761-15.6a5.121,5.121,0,0,1,1.7-.909,6.788,6.788,0,0,1,2.064-.3,6.19,6.19,0,0,1,2.076.328,4.738,4.738,0,0,1,1.581.908,3.98,3.98,0,0,1,1.006,1.363,4.083,4.083,0,0,1,.351,1.691,4.948,4.948,0,0,1-.178,1.4,3.322,3.322,0,0,1-.512,1.052,3.022,3.022,0,0,1-.828.759,5.153,5.153,0,0,1-1.115.517A4.343,4.343,0,0,1-8.383-7.36a3.888,3.888,0,0,1,.736,2.426,5,5,0,0,1-.46,2.2,4.72,4.72,0,0,1-1.242,1.6,5.412,5.412,0,0,1-1.811.983A7.027,7.027,0,0,1-13.34.184,7.436,7.436,0,0,1-15.525-.1a4.744,4.744,0,0,1-1.622-.851,5.139,5.139,0,0,1-1.173-1.38,9.313,9.313,0,0,1-.828-1.886l1.253-.517a1.5,1.5,0,0,1,.926-.109.9.9,0,0,1,.627.466q.207.4.454.794a3.219,3.219,0,0,0,.592.7,2.819,2.819,0,0,0,.811.495,2.935,2.935,0,0,0,1.11.19,3.143,3.143,0,0,0,1.265-.236,2.748,2.748,0,0,0,.9-.615,2.523,2.523,0,0,0,.54-.845,2.6,2.6,0,0,0,.178-.937,4.338,4.338,0,0,0-.126-1.087,1.611,1.611,0,0,0-.529-.834A2.874,2.874,0,0,0-12.3-7.3a8.336,8.336,0,0,0-2.018-.2V-9.522a7.186,7.186,0,0,0,1.736-.2,2.957,2.957,0,0,0,1.1-.512,1.734,1.734,0,0,0,.569-.788,3.046,3.046,0,0,0,.161-1.012,2.316,2.316,0,0,0-.656-1.782,2.465,2.465,0,0,0-1.748-.609,2.894,2.894,0,0,0-.931.144,2.648,2.648,0,0,0-.765.4,2.5,2.5,0,0,0-.569.6,2.625,2.625,0,0,0-.345.759,1.246,1.246,0,0,1-.512.7,1.41,1.41,0,0,1-.891.08ZM-5.209,2.818a.533.533,0,0,1-.207-.426.439.439,0,0,1,.063-.207A.914.914,0,0,1-5.2,1.978l.311-.339a4.828,4.828,0,0,0,.368-.46A4.478,4.478,0,0,0-4.18.615a2.854,2.854,0,0,0,.236-.65,1.631,1.631,0,0,1-.667-.132,1.532,1.532,0,0,1-.512-.362,1.687,1.687,0,0,1-.333-.54,1.856,1.856,0,0,1-.121-.678,1.516,1.516,0,0,1,.121-.6,1.518,1.518,0,0,1,.339-.494,1.556,1.556,0,0,1,.529-.333A1.856,1.856,0,0,1-3.91-3.3a1.769,1.769,0,0,1,.765.155,1.485,1.485,0,0,1,.54.425,1.913,1.913,0,0,1,.322.621,2.48,2.48,0,0,1,.109.742A4.4,4.4,0,0,1-2.34-.2a6,6,0,0,1-.489,1.219,6.914,6.914,0,0,1-.8,1.184A7.291,7.291,0,0,1-4.715,3.266ZM.058-11.995a6.167,6.167,0,0,1,.667-2.1A5.032,5.032,0,0,1,1.961-15.6a5.121,5.121,0,0,1,1.7-.909,6.788,6.788,0,0,1,2.064-.3,6.19,6.19,0,0,1,2.076.328,4.738,4.738,0,0,1,1.581.908,3.98,3.98,0,0,1,1.006,1.363,4.083,4.083,0,0,1,.351,1.691,4.948,4.948,0,0,1-.178,1.4,3.322,3.322,0,0,1-.512,1.052,3.022,3.022,0,0,1-.828.759A5.153,5.153,0,0,1,8.108-8.8,4.343,4.343,0,0,1,10.339-7.36a3.888,3.888,0,0,1,.736,2.426,5,5,0,0,1-.46,2.2,4.72,4.72,0,0,1-1.242,1.6,5.412,5.412,0,0,1-1.811.983A7.027,7.027,0,0,1,5.382.184,7.436,7.436,0,0,1,3.2-.1,4.744,4.744,0,0,1,1.576-.954,5.139,5.139,0,0,1,.4-2.334,9.313,9.313,0,0,1-.425-4.22L.828-4.738a1.5,1.5,0,0,1,.926-.109.9.9,0,0,1,.627.466q.207.4.454.794a3.219,3.219,0,0,0,.592.7,2.819,2.819,0,0,0,.811.495,2.935,2.935,0,0,0,1.11.19,3.143,3.143,0,0,0,1.265-.236,2.748,2.748,0,0,0,.9-.615,2.523,2.523,0,0,0,.54-.845,2.6,2.6,0,0,0,.178-.937,4.338,4.338,0,0,0-.126-1.087,1.611,1.611,0,0,0-.529-.834A2.874,2.874,0,0,0,6.423-7.3,8.336,8.336,0,0,0,4.4-7.5V-9.522a7.186,7.186,0,0,0,1.737-.2,2.957,2.957,0,0,0,1.1-.512,1.734,1.734,0,0,0,.569-.788,3.046,3.046,0,0,0,.161-1.012,2.316,2.316,0,0,0-.656-1.782,2.465,2.465,0,0,0-1.748-.609,2.894,2.894,0,0,0-.932.144,2.648,2.648,0,0,0-.765.4,2.5,2.5,0,0,0-.569.6,2.625,2.625,0,0,0-.345.759,1.246,1.246,0,0,1-.512.7,1.41,1.41,0,0,1-.891.08Zm24,9.867V0h-9.2V-2.128h3.37v-9.694q0-.575.035-1.185l-2.392,2a.989.989,0,0,1-.408.2.977.977,0,0,1-.379.006.921.921,0,0,1-.316-.121.669.669,0,0,1-.207-.19l-.9-1.23,5.071-4.313h2.334V-2.128Zm12.719-.517a1.012,1.012,0,0,1,.73.259.9.9,0,0,1,.27.684V0H26.37V-.943a1.692,1.692,0,0,1,.121-.6,1.548,1.548,0,0,1,.385-.569l5.049-5.06q.632-.644,1.133-1.23a7.943,7.943,0,0,0,.834-1.161,5.464,5.464,0,0,0,.512-1.167,4.307,4.307,0,0,0,.178-1.248,2.954,2.954,0,0,0-.173-1.052,2.1,2.1,0,0,0-.489-.765,2.022,2.022,0,0,0-.759-.466,2.993,2.993,0,0,0-.995-.155,2.947,2.947,0,0,0-.937.144,2.553,2.553,0,0,0-.765.4,2.552,2.552,0,0,0-.564.6,2.625,2.625,0,0,0-.345.759,1.258,1.258,0,0,1-.506.7,1.418,1.418,0,0,1-.9.08l-1.495-.265a6.167,6.167,0,0,1,.667-2.1A5.032,5.032,0,0,1,28.56-15.6a5.121,5.121,0,0,1,1.7-.909,6.788,6.788,0,0,1,2.064-.3,6.246,6.246,0,0,1,2.1.339,4.733,4.733,0,0,1,1.633.96,4.347,4.347,0,0,1,1.058,1.5,4.83,4.83,0,0,1,.38,1.943,5.178,5.178,0,0,1-.27,1.7,7.077,7.077,0,0,1-.724,1.495A10.066,10.066,0,0,1,35.443-7.5q-.609.667-1.276,1.357L30.418-2.312a8.513,8.513,0,0,1,1.075-.247,6.4,6.4,0,0,1,1.018-.086Z" transform="translate(-306 1075)" fill="#fff"/>
    <path id="Trazado_1747" data-name="Trazado 1747" d="M5.418,0h-2.5a.682.682,0,0,1-.457-.147,1.388,1.388,0,0,1-.289-.336L-.1-4.232A2.909,2.909,0,0,1-.226-3.9,2.321,2.321,0,0,1-.378-3.6L-2.394-.483a1.673,1.673,0,0,1-.283.331A.6.6,0,0,1-3.1,0h-2.32l3.7-5.554-3.549-5.219h2.5a.867.867,0,0,1,.42.079.69.69,0,0,1,.241.257L.147-6.846a3.342,3.342,0,0,1,.325-.7l1.817-2.835a.684.684,0,0,1,.6-.389H5.271L1.732-5.67Z" transform="translate(-307 999)" fill="#20a8d8"/>
  </g>
</svg>
