<svg xmlns="http://www.w3.org/2000/svg" xmlns:xlink="http://www.w3.org/1999/xlink" width="266.043" height="226" viewBox="0 0 266.043 226">
  <defs>
    <filter id="Trazado_1730" x="3.5" y="0" width="260" height="68" filterUnits="userSpaceOnUse">
      <feOffset dy="2" input="SourceAlpha"/>
      <feGaussianBlur stdDeviation="3" result="blur"/>
      <feFlood flood-opacity="0.051"/>
      <feComposite operator="in" in2="blur"/>
      <feComposite in="SourceGraphic"/>
    </filter>
    <filter id="Trazado_1732" x="125.5" y="99" width="138" height="68" filterUnits="userSpaceOnUse">
      <feOffset dy="2" input="SourceAlpha"/>
      <feGaussianBlur stdDeviation="3" result="blur-2"/>
      <feFlood flood-opacity="0.051"/>
      <feComposite operator="in" in2="blur-2"/>
      <feComposite in="SourceGraphic"/>
    </filter>
    <filter id="Trazado_1734" x="3.5" y="99" width="118" height="68" filterUnits="userSpaceOnUse">
      <feOffset dy="2" input="SourceAlpha"/>
      <feGaussianBlur stdDeviation="3" result="blur-3"/>
      <feFlood flood-opacity="0.051"/>
      <feComposite operator="in" in2="blur-3"/>
      <feComposite in="SourceGraphic"/>
    </filter>
  </defs>
  <g id="Grupo_970" data-name="Grupo 970" transform="translate(-18121.5 1387)">
    <path id="Trazado_1729" data-name="Trazado 1729" d="M5.76-6.35H3.44V0H2.475V-6.35H.15v-.815H5.76ZM7.42-4.39a2.688,2.688,0,0,1,.72-.55,1.948,1.948,0,0,1,.91-.205,1.829,1.829,0,0,1,.733.138,1.417,1.417,0,0,1,.53.39,1.722,1.722,0,0,1,.323.608,2.644,2.644,0,0,1,.11.785V0h-.9V-3.225a1.363,1.363,0,0,0-.263-.892.975.975,0,0,0-.8-.318,1.5,1.5,0,0,0-.738.19,2.429,2.429,0,0,0-.632.515V0H6.525V-7.365H7.42Zm5.625-.675V0h-.89V-5.065Zm.19-1.59a.566.566,0,0,1-.052.242.7.7,0,0,1-.14.2.643.643,0,0,1-.2.137.626.626,0,0,1-.247.05.59.59,0,0,1-.243-.05.629.629,0,0,1-.2-.137.682.682,0,0,1-.135-.2.59.59,0,0,1-.05-.242.626.626,0,0,1,.05-.247.664.664,0,0,1,.135-.205.629.629,0,0,1,.2-.137.59.59,0,0,1,.243-.05.626.626,0,0,1,.247.05.643.643,0,0,1,.2.137.678.678,0,0,1,.14.205A.6.6,0,0,1,13.235-6.655Zm4.22,2.425a.2.2,0,0,1-.185.11.348.348,0,0,1-.17-.055q-.1-.055-.233-.123a2.184,2.184,0,0,0-.327-.125,1.562,1.562,0,0,0-.45-.057,1.328,1.328,0,0,0-.4.057.973.973,0,0,0-.307.158.7.7,0,0,0-.2.232.624.624,0,0,0-.068.288.479.479,0,0,0,.113.325.978.978,0,0,0,.3.225,2.594,2.594,0,0,0,.42.168q.235.072.483.155t.483.183a1.751,1.751,0,0,1,.42.25,1.143,1.143,0,0,1,.3.368,1.125,1.125,0,0,1,.112.523,1.655,1.655,0,0,1-.125.647,1.413,1.413,0,0,1-.37.515,1.784,1.784,0,0,1-.6.342,2.465,2.465,0,0,1-.82.125,2.558,2.558,0,0,1-.96-.173,2.433,2.433,0,0,1-.73-.443l.21-.34a.305.305,0,0,1,.1-.1.256.256,0,0,1,.14-.035.335.335,0,0,1,.19.07q.1.07.243.155a1.845,1.845,0,0,0,.347.155,1.6,1.6,0,0,0,.51.07,1.391,1.391,0,0,0,.455-.067A.956.956,0,0,0,16.65-.81a.723.723,0,0,0,.193-.265.824.824,0,0,0,.063-.32.531.531,0,0,0-.113-.347.949.949,0,0,0-.3-.235,2.424,2.424,0,0,0-.423-.17q-.238-.073-.485-.152T15.1-2.482a1.7,1.7,0,0,1-.422-.257,1.167,1.167,0,0,1-.3-.383,1.237,1.237,0,0,1-.112-.553,1.348,1.348,0,0,1,.12-.557,1.367,1.367,0,0,1,.35-.47,1.724,1.724,0,0,1,.565-.322,2.261,2.261,0,0,1,.765-.12,2.42,2.42,0,0,1,.9.158,2.124,2.124,0,0,1,.688.432Zm4.88-.835V0h-.89V-5.065Zm.19-1.59a.566.566,0,0,1-.053.242.7.7,0,0,1-.14.2.643.643,0,0,1-.2.137.626.626,0,0,1-.247.05.59.59,0,0,1-.243-.05.629.629,0,0,1-.2-.137.683.683,0,0,1-.135-.2.59.59,0,0,1-.05-.242.626.626,0,0,1,.05-.247.664.664,0,0,1,.135-.205.629.629,0,0,1,.2-.137.59.59,0,0,1,.243-.05.626.626,0,0,1,.247.05.643.643,0,0,1,.2.137.678.678,0,0,1,.14.205A.6.6,0,0,1,22.525-6.655Zm2.11,2.325a3,3,0,0,1,.35-.335,2.307,2.307,0,0,1,.392-.258,1.993,1.993,0,0,1,.44-.165,2.089,2.089,0,0,1,.5-.058,1.829,1.829,0,0,1,.733.138,1.417,1.417,0,0,1,.53.39,1.722,1.722,0,0,1,.323.608,2.644,2.644,0,0,1,.11.785V0h-.9V-3.225a1.363,1.363,0,0,0-.262-.892.975.975,0,0,0-.8-.318,1.5,1.5,0,0,0-.737.19,2.429,2.429,0,0,0-.632.515V0h-.9V-5.065h.535a.22.22,0,0,1,.235.185ZM29.625,0V-4.3l-.56-.065a.446.446,0,0,1-.173-.078.182.182,0,0,1-.067-.152v-.365h.8v-.49a2.257,2.257,0,0,1,.122-.773,1.566,1.566,0,0,1,.35-.57,1.483,1.483,0,0,1,.548-.352,2.039,2.039,0,0,1,.72-.12,1.876,1.876,0,0,1,.625.1l-.02.445a.129.129,0,0,1-.133.13q-.123.01-.327.01a1.365,1.365,0,0,0-.417.06.789.789,0,0,0-.323.195.883.883,0,0,0-.208.355,1.761,1.761,0,0,0-.073.545v.465h1.46v.645H30.52V0ZM34.77-5.145a2.583,2.583,0,0,1,1,.185,2.143,2.143,0,0,1,.76.525,2.3,2.3,0,0,1,.483.822,3.27,3.27,0,0,1,.167,1.078,3.265,3.265,0,0,1-.167,1.08,2.308,2.308,0,0,1-.483.82,2.116,2.116,0,0,1-.76.522,2.614,2.614,0,0,1-1,.183,2.647,2.647,0,0,1-1.007-.183A2.111,2.111,0,0,1,33-.635a2.308,2.308,0,0,1-.482-.82,3.265,3.265,0,0,1-.168-1.08,3.27,3.27,0,0,1,.168-1.078A2.3,2.3,0,0,1,33-4.435a2.138,2.138,0,0,1,.763-.525A2.615,2.615,0,0,1,34.77-5.145Zm0,4.52a1.3,1.3,0,0,0,1.12-.5,2.327,2.327,0,0,0,.37-1.4,2.348,2.348,0,0,0-.37-1.41,1.3,1.3,0,0,0-1.12-.505,1.571,1.571,0,0,0-.662.13,1.231,1.231,0,0,0-.47.375,1.666,1.666,0,0,0-.28.6,3.23,3.23,0,0,0-.093.808,2.315,2.315,0,0,0,.373,1.4A1.318,1.318,0,0,0,34.77-.625Zm7.035-4.44V0h-.89V-5.065Zm.19-1.59a.566.566,0,0,1-.052.242.7.7,0,0,1-.14.2.643.643,0,0,1-.205.137.626.626,0,0,1-.248.05.59.59,0,0,1-.243-.05.629.629,0,0,1-.2-.137.682.682,0,0,1-.135-.2.59.59,0,0,1-.05-.242.626.626,0,0,1,.05-.247.664.664,0,0,1,.135-.205.629.629,0,0,1,.2-.137.59.59,0,0,1,.243-.05.626.626,0,0,1,.248.05.643.643,0,0,1,.205.137.678.678,0,0,1,.14.205A.6.6,0,0,1,41.995-6.655Zm4.22,2.425a.2.2,0,0,1-.185.11.348.348,0,0,1-.17-.055q-.1-.055-.232-.123a2.184,2.184,0,0,0-.327-.125,1.562,1.562,0,0,0-.45-.057,1.328,1.328,0,0,0-.405.057.973.973,0,0,0-.307.158.7.7,0,0,0-.195.232.624.624,0,0,0-.068.288.479.479,0,0,0,.113.325.978.978,0,0,0,.3.225,2.594,2.594,0,0,0,.42.168q.235.072.482.155t.483.183a1.751,1.751,0,0,1,.42.25,1.143,1.143,0,0,1,.3.368,1.125,1.125,0,0,1,.112.523,1.655,1.655,0,0,1-.125.647,1.413,1.413,0,0,1-.37.515,1.784,1.784,0,0,1-.6.342,2.465,2.465,0,0,1-.82.125,2.558,2.558,0,0,1-.96-.173,2.433,2.433,0,0,1-.73-.443l.21-.34a.305.305,0,0,1,.1-.1.256.256,0,0,1,.14-.035.335.335,0,0,1,.19.07q.1.07.243.155a1.845,1.845,0,0,0,.347.155,1.6,1.6,0,0,0,.51.07,1.391,1.391,0,0,0,.455-.067A.956.956,0,0,0,45.41-.81a.723.723,0,0,0,.193-.265.824.824,0,0,0,.063-.32.531.531,0,0,0-.112-.347.949.949,0,0,0-.3-.235,2.424,2.424,0,0,0-.423-.17Q44.6-2.22,44.347-2.3t-.485-.182a1.7,1.7,0,0,1-.423-.257,1.167,1.167,0,0,1-.3-.383,1.237,1.237,0,0,1-.112-.553,1.348,1.348,0,0,1,.12-.557,1.367,1.367,0,0,1,.35-.47,1.724,1.724,0,0,1,.565-.322,2.261,2.261,0,0,1,.765-.12,2.42,2.42,0,0,1,.9.158,2.124,2.124,0,0,1,.688.432Zm8.04-.835L52.19,0h-.8L49.325-5.065h.725a.283.283,0,0,1,.18.055.275.275,0,0,1,.1.13L51.61-1.62q.06.185.1.36t.085.35q.04-.175.085-.35t.11-.36l1.3-3.26a.29.29,0,0,1,.1-.133.267.267,0,0,1,.165-.052ZM57.71-2.28a7.418,7.418,0,0,0-1.048.1,2.979,2.979,0,0,0-.705.2.973.973,0,0,0-.395.295.635.635,0,0,0-.123.38A.838.838,0,0,0,55.5-.96a.641.641,0,0,0,.178.238.713.713,0,0,0,.265.135,1.216,1.216,0,0,0,.327.043,1.817,1.817,0,0,0,.43-.048,1.62,1.62,0,0,0,.368-.137,2.072,2.072,0,0,0,.33-.215,2.859,2.859,0,0,0,.308-.285ZM54.835-4.35a2.892,2.892,0,0,1,.9-.605,2.794,2.794,0,0,1,1.075-.2,1.918,1.918,0,0,1,.755.14,1.548,1.548,0,0,1,.555.39,1.652,1.652,0,0,1,.34.605,2.52,2.52,0,0,1,.115.78V0h-.4a.388.388,0,0,1-.2-.043.29.29,0,0,1-.11-.167l-.1-.48a4.963,4.963,0,0,1-.39.328,2.232,2.232,0,0,1-.4.24,2.173,2.173,0,0,1-.447.15A2.448,2.448,0,0,1,56.01.08,1.825,1.825,0,0,1,55.455,0,1.282,1.282,0,0,1,55-.25,1.164,1.164,0,0,1,54.7-.667a1.459,1.459,0,0,1-.112-.6,1.114,1.114,0,0,1,.165-.577,1.446,1.446,0,0,1,.535-.493,3.509,3.509,0,0,1,.965-.352,7.358,7.358,0,0,1,1.46-.158V-3.24a1.354,1.354,0,0,0-.255-.893.92.92,0,0,0-.745-.3,1.6,1.6,0,0,0-.553.082,2.072,2.072,0,0,0-.385.185q-.163.1-.28.185a.4.4,0,0,1-.232.083.256.256,0,0,1-.155-.048.436.436,0,0,1-.11-.118Zm5.945.3a2.284,2.284,0,0,1,.59-.812,1.289,1.289,0,0,1,.855-.293,1.328,1.328,0,0,1,.308.035.825.825,0,0,1,.262.11l-.065.665a.143.143,0,0,1-.15.125,1.032,1.032,0,0,1-.2-.03,1.411,1.411,0,0,0-.305-.03,1.217,1.217,0,0,0-.428.07A1,1,0,0,0,61.307-4a1.466,1.466,0,0,0-.265.34,2.914,2.914,0,0,0-.213.463V0h-.895V-5.065h.51a.281.281,0,0,1,.2.055.337.337,0,0,1,.075.19Zm3.735-1.015V0h-.89V-5.065Zm.19-1.59a.566.566,0,0,1-.053.242.7.7,0,0,1-.14.2.643.643,0,0,1-.205.137.626.626,0,0,1-.247.05.59.59,0,0,1-.243-.05.629.629,0,0,1-.2-.137.682.682,0,0,1-.135-.2.59.59,0,0,1-.05-.242.626.626,0,0,1,.05-.247.664.664,0,0,1,.135-.205.629.629,0,0,1,.2-.137.59.59,0,0,1,.243-.05.626.626,0,0,1,.247.05.643.643,0,0,1,.205.137.678.678,0,0,1,.14.205A.6.6,0,0,1,64.705-6.655ZM68.72-2.28a7.418,7.418,0,0,0-1.047.1,2.979,2.979,0,0,0-.705.2.973.973,0,0,0-.4.295.635.635,0,0,0-.122.38.838.838,0,0,0,.065.345.641.641,0,0,0,.177.238.713.713,0,0,0,.265.135,1.215,1.215,0,0,0,.327.043,1.817,1.817,0,0,0,.43-.048,1.62,1.62,0,0,0,.368-.137,2.072,2.072,0,0,0,.33-.215,2.859,2.859,0,0,0,.307-.285ZM65.845-4.35a2.892,2.892,0,0,1,.905-.605,2.794,2.794,0,0,1,1.075-.2,1.918,1.918,0,0,1,.755.14,1.548,1.548,0,0,1,.555.39,1.652,1.652,0,0,1,.34.605,2.52,2.52,0,0,1,.115.78V0h-.395a.388.388,0,0,1-.2-.043.29.29,0,0,1-.11-.167l-.1-.48a4.962,4.962,0,0,1-.39.328,2.232,2.232,0,0,1-.4.24,2.173,2.173,0,0,1-.447.15A2.448,2.448,0,0,1,67.02.08,1.825,1.825,0,0,1,66.465,0a1.282,1.282,0,0,1-.452-.247,1.164,1.164,0,0,1-.305-.417,1.459,1.459,0,0,1-.113-.6,1.114,1.114,0,0,1,.165-.577,1.446,1.446,0,0,1,.535-.493,3.509,3.509,0,0,1,.965-.352,7.358,7.358,0,0,1,1.46-.158V-3.24a1.354,1.354,0,0,0-.255-.893.92.92,0,0,0-.745-.3,1.6,1.6,0,0,0-.552.082,2.073,2.073,0,0,0-.385.185q-.162.1-.28.185a.4.4,0,0,1-.232.083.256.256,0,0,1-.155-.048A.436.436,0,0,1,66-4.065Zm6,3.13a1.431,1.431,0,0,0,.537.465,1.515,1.515,0,0,0,.643.135,1.287,1.287,0,0,0,1.1-.5,2.485,2.485,0,0,0,.38-1.505A2.239,2.239,0,0,0,74.158-4a1.144,1.144,0,0,0-.963-.437,1.408,1.408,0,0,0-.757.2,2.231,2.231,0,0,0-.6.565Zm0-3.115a2.6,2.6,0,0,1,.723-.59,1.9,1.9,0,0,1,.927-.22,1.846,1.846,0,0,1,.8.17,1.666,1.666,0,0,1,.607.492,2.3,2.3,0,0,1,.383.783,3.738,3.738,0,0,1,.132,1.035,3.925,3.925,0,0,1-.15,1.12,2.542,2.542,0,0,1-.433.862,1.963,1.963,0,0,1-.687.555,2.049,2.049,0,0,1-.91.2,1.735,1.735,0,0,1-.843-.187,1.843,1.843,0,0,1-.6-.532l-.045.46a.214.214,0,0,1-.23.19h-.575V-7.365h.895Zm5.625-3.03V0h-.89V-7.365Zm4.83,4.28a1.755,1.755,0,0,0-.088-.567,1.275,1.275,0,0,0-.255-.445,1.138,1.138,0,0,0-.408-.29A1.376,1.376,0,0,0,81-4.49a1.368,1.368,0,0,0-1.013.372,1.745,1.745,0,0,0-.463,1.032Zm.72,2.375a1.69,1.69,0,0,1-.4.348,2.459,2.459,0,0,1-.493.242,3.128,3.128,0,0,1-.542.143A3.314,3.314,0,0,1,81.03.07a2.575,2.575,0,0,1-.967-.178,2.123,2.123,0,0,1-.765-.52,2.386,2.386,0,0,1-.5-.847,3.446,3.446,0,0,1-.18-1.16,2.951,2.951,0,0,1,.162-.99,2.333,2.333,0,0,1,.467-.8,2.152,2.152,0,0,1,.745-.53,2.446,2.446,0,0,1,.99-.193,2.28,2.28,0,0,1,.842.153,1.906,1.906,0,0,1,.67.44,2.016,2.016,0,0,1,.442.71,2.7,2.7,0,0,1,.16.962.58.58,0,0,1-.045.28.187.187,0,0,1-.17.07H79.495a2.961,2.961,0,0,0,.132.835,1.677,1.677,0,0,0,.327.592,1.322,1.322,0,0,0,.5.355,1.717,1.717,0,0,0,.65.118,1.907,1.907,0,0,0,.577-.077A2.748,2.748,0,0,0,82.1-.875a3.185,3.185,0,0,0,.292-.168.388.388,0,0,1,.2-.077.2.2,0,0,1,.17.085Z" transform="translate(18211 -1289)" fill="gray"/>
    <g transform="matrix(1, 0, 0, 1, 18121.5, -1387)" filter="url(#Trazado_1730)">
      <path id="Trazado_1730-2" data-name="Trazado 1730" d="M5,0H237a5,5,0,0,1,5,5V45a5,5,0,0,1-5,5H5a5,5,0,0,1-5-5V5A5,5,0,0,1,5,0Z" transform="translate(12.5 7)" fill="#fff"/>
    </g>
    <path id="Trazado_1731" data-name="Trazado 1731" d="M19.739,5.075V8.582h4.123V9.688H19.739V14H18.381V3.969h6.181V5.075Zm7.553,1.834V14H26.046V6.909Zm.266-2.226a.793.793,0,0,1-.073.339.978.978,0,0,1-.2.28A.9.9,0,0,1,27,5.495a.876.876,0,0,1-.347.07.826.826,0,0,1-.34-.07.88.88,0,0,1-.277-.192.955.955,0,0,1-.189-.28.826.826,0,0,1-.07-.339.876.876,0,0,1,.07-.347.93.93,0,0,1,.189-.287.88.88,0,0,1,.277-.193.826.826,0,0,1,.34-.07.876.876,0,0,1,.347.07.9.9,0,0,1,.287.193.949.949,0,0,1,.2.287A.84.84,0,0,1,27.558,4.683ZM35.16,14h-1.2a.343.343,0,0,1-.241-.08.743.743,0,0,1-.144-.179l-1.785-2.779q-.028.1-.059.193a.626.626,0,0,1-.087.172l-1.652,2.415a1.414,1.414,0,0,1-.151.179.3.3,0,0,1-.22.08H28.51l2.485-3.64L28.608,6.909h1.2a.4.4,0,0,1,.224.049.464.464,0,0,1,.126.14L31.9,9.758a1.465,1.465,0,0,1,.175-.392L33.6,7.126a.658.658,0,0,1,.137-.158.275.275,0,0,1,.178-.059h1.148L32.675,10.3Zm5.579-4.319a2.457,2.457,0,0,0-.123-.794,1.784,1.784,0,0,0-.357-.623,1.593,1.593,0,0,0-.571-.406,2.158,2.158,0,0,0-2.181.378,2.443,2.443,0,0,0-.647,1.445Zm1.008,3.325a2.367,2.367,0,0,1-.553.487,3.443,3.443,0,0,1-.689.339,4.379,4.379,0,0,1-.76.2,4.639,4.639,0,0,1-.777.066,3.606,3.606,0,0,1-1.354-.248,2.973,2.973,0,0,1-1.071-.728,3.34,3.34,0,0,1-.7-1.186,4.825,4.825,0,0,1-.252-1.624,4.132,4.132,0,0,1,.227-1.386,3.267,3.267,0,0,1,.655-1.116,3.013,3.013,0,0,1,1.043-.742A3.424,3.424,0,0,1,38.9,6.8a3.193,3.193,0,0,1,1.18.214,2.668,2.668,0,0,1,.938.616,2.822,2.822,0,0,1,.62.994,3.786,3.786,0,0,1,.224,1.347.813.813,0,0,1-.063.392.262.262,0,0,1-.238.1H36.819A4.146,4.146,0,0,0,37,11.627a2.348,2.348,0,0,0,.458.83,1.851,1.851,0,0,0,.7.5,2.4,2.4,0,0,0,.91.165,2.67,2.67,0,0,0,.808-.108,3.847,3.847,0,0,0,.584-.235,4.458,4.458,0,0,0,.41-.234.543.543,0,0,1,.284-.108.274.274,0,0,1,.238.119ZM48,8.6a2.013,2.013,0,0,0-.756-.654,2.165,2.165,0,0,0-.91-.186,1.787,1.787,0,0,0-1.519.707,3.3,3.3,0,0,0-.532,2.016,5.126,5.126,0,0,0,.119,1.186,2.283,2.283,0,0,0,.35.812,1.375,1.375,0,0,0,.567.465,1.886,1.886,0,0,0,.763.147,2.021,2.021,0,0,0,1.075-.28A3.077,3.077,0,0,0,48,12.019Zm1.246-4.907V14h-.742a.318.318,0,0,1-.336-.259l-.112-.861a3.861,3.861,0,0,1-1.036.882,2.636,2.636,0,0,1-1.344.336,2.56,2.56,0,0,1-1.106-.234,2.293,2.293,0,0,1-.847-.689,3.284,3.284,0,0,1-.539-1.134A5.838,5.838,0,0,1,43,10.479a4.893,4.893,0,0,1,.21-1.459,3.6,3.6,0,0,1,.6-1.173,2.794,2.794,0,0,1,.962-.78,2.847,2.847,0,0,1,1.285-.284A2.589,2.589,0,0,1,47.175,7,2.706,2.706,0,0,1,48,7.616V3.689Zm10.493,4.48a.556.556,0,0,1-.112.119.251.251,0,0,1-.154.042.415.415,0,0,1-.231-.087q-.126-.088-.312-.193a2.492,2.492,0,0,0-.455-.192,2.454,2.454,0,0,0-1.586.1,1.778,1.778,0,0,0-.668.536,2.423,2.423,0,0,0-.406.847,4.2,4.2,0,0,0-.137,1.113,4.066,4.066,0,0,0,.147,1.144,2.442,2.442,0,0,0,.417.84,1.793,1.793,0,0,0,.651.518,2,2,0,0,0,.857.179,2.06,2.06,0,0,0,1.236-.35q.193-.133.322-.241a.4.4,0,0,1,.256-.108.274.274,0,0,1,.238.119l.35.455a2.483,2.483,0,0,1-.525.49,3.234,3.234,0,0,1-.634.339,3.444,3.444,0,0,1-.71.2,4.508,4.508,0,0,1-.756.063,3.1,3.1,0,0,1-1.236-.245,2.817,2.817,0,0,1-.99-.71A3.327,3.327,0,0,1,54.648,12a4.663,4.663,0,0,1-.238-1.547,4.668,4.668,0,0,1,.22-1.463,3.315,3.315,0,0,1,.644-1.158,2.926,2.926,0,0,1,1.043-.76A3.5,3.5,0,0,1,57.742,6.8a3.362,3.362,0,0,1,1.32.242,3.16,3.16,0,0,1,1.011.682ZM64.357,6.8a3.616,3.616,0,0,1,1.4.259,3,3,0,0,1,1.064.735A3.226,3.226,0,0,1,67.5,8.942a4.579,4.579,0,0,1,.234,1.509,4.57,4.57,0,0,1-.234,1.512,3.231,3.231,0,0,1-.675,1.148,2.962,2.962,0,0,1-1.064.731,3.66,3.66,0,0,1-1.4.255,3.706,3.706,0,0,1-1.41-.255,2.956,2.956,0,0,1-1.067-.731,3.231,3.231,0,0,1-.676-1.148,4.57,4.57,0,0,1-.234-1.512A4.579,4.579,0,0,1,61.2,8.942a3.226,3.226,0,0,1,.676-1.151,2.993,2.993,0,0,1,1.067-.735A3.662,3.662,0,0,1,64.357,6.8Zm0,6.328a1.82,1.82,0,0,0,1.568-.7,3.257,3.257,0,0,0,.518-1.964,3.287,3.287,0,0,0-.518-1.974,1.817,1.817,0,0,0-1.568-.707,2.2,2.2,0,0,0-.927.182,1.723,1.723,0,0,0-.658.525,2.332,2.332,0,0,0-.392.843,4.521,4.521,0,0,0-.13,1.131,3.241,3.241,0,0,0,.521,1.964A1.845,1.845,0,0,0,64.357,13.125Zm9.079-5.047a.276.276,0,0,1-.259.154.487.487,0,0,1-.238-.077q-.133-.077-.326-.172a3.057,3.057,0,0,0-.459-.175,2.187,2.187,0,0,0-.63-.081,1.859,1.859,0,0,0-.567.081,1.362,1.362,0,0,0-.431.221.975.975,0,0,0-.273.325.874.874,0,0,0-.094.4.671.671,0,0,0,.157.455,1.369,1.369,0,0,0,.417.315,3.631,3.631,0,0,0,.588.234q.329.1.675.217t.676.255a2.451,2.451,0,0,1,.588.35,1.6,1.6,0,0,1,.416.515,1.575,1.575,0,0,1,.158.731,2.317,2.317,0,0,1-.175.906,1.978,1.978,0,0,1-.518.721,2.5,2.5,0,0,1-.84.479,3.451,3.451,0,0,1-1.148.175,3.581,3.581,0,0,1-1.344-.242,3.406,3.406,0,0,1-1.022-.619l.294-.476a.427.427,0,0,1,.133-.14.359.359,0,0,1,.2-.049.469.469,0,0,1,.266.1q.14.1.34.217a2.584,2.584,0,0,0,.486.217,2.234,2.234,0,0,0,.714.1,1.948,1.948,0,0,0,.637-.094,1.338,1.338,0,0,0,.455-.255,1.012,1.012,0,0,0,.27-.371,1.153,1.153,0,0,0,.088-.448.743.743,0,0,0-.158-.486,1.329,1.329,0,0,0-.416-.329,3.394,3.394,0,0,0-.591-.238q-.333-.1-.679-.214t-.679-.255a2.387,2.387,0,0,1-.591-.361,1.633,1.633,0,0,1-.417-.535,1.732,1.732,0,0,1-.158-.774,1.887,1.887,0,0,1,.168-.78,1.914,1.914,0,0,1,.49-.658,2.413,2.413,0,0,1,.791-.451A3.165,3.165,0,0,1,71.5,6.8a3.387,3.387,0,0,1,1.257.22,2.974,2.974,0,0,1,.963.606Zm4.109,6.034a1.709,1.709,0,0,1-1.292-.469,1.872,1.872,0,0,1-.451-1.351V7.952h-.854a.279.279,0,0,1-.189-.066.258.258,0,0,1-.077-.207v-.5l1.162-.147.287-2.191a.3.3,0,0,1,.094-.171.276.276,0,0,1,.193-.067h.63V7.049H79.1v.9H77.048v4.256a.905.905,0,0,0,.217.665.758.758,0,0,0,.56.217.989.989,0,0,0,.34-.052,1.457,1.457,0,0,0,.248-.116q.1-.063.179-.115a.234.234,0,0,1,.129-.053.215.215,0,0,1,.175.119l.364.6a2.321,2.321,0,0,1-.777.472A2.638,2.638,0,0,1,77.545,14.112Zm2.73-.882a.89.89,0,0,1,.066-.343.88.88,0,0,1,.182-.28.872.872,0,0,1,.963-.189.887.887,0,0,1,.469.469.884.884,0,0,1,0,.689.91.91,0,0,1-.189.276.851.851,0,0,1-.28.186.918.918,0,0,1-.686,0,.812.812,0,0,1-.277-.186.877.877,0,0,1-.248-.623Zm0-5.25a.89.89,0,0,1,.066-.343.88.88,0,0,1,.182-.28.872.872,0,0,1,.963-.189.887.887,0,0,1,.469.469.884.884,0,0,1,0,.689.91.91,0,0,1-.189.276.851.851,0,0,1-.28.186.918.918,0,0,1-.686,0,.812.812,0,0,1-.277-.186.877.877,0,0,1-.248-.623ZM41.36,26.77a11.848,11.848,0,0,1-.4,3.285,6.729,6.729,0,0,1-1.12,2.305,4.529,4.529,0,0,1-1.69,1.355,5.009,5.009,0,0,1-2.1.445,4.942,4.942,0,0,1-2.1-.445A4.51,4.51,0,0,1,32.27,32.36a6.721,6.721,0,0,1-1.11-2.305,11.988,11.988,0,0,1-.4-3.285,11.976,11.976,0,0,1,.4-3.29,6.724,6.724,0,0,1,1.11-2.3,4.51,4.51,0,0,1,1.675-1.355,4.942,4.942,0,0,1,2.1-.445,5.009,5.009,0,0,1,2.1.445,4.529,4.529,0,0,1,1.69,1.355,6.733,6.733,0,0,1,1.12,2.3A11.836,11.836,0,0,1,41.36,26.77Zm-2.55,0a12.226,12.226,0,0,0-.23-2.6,5.231,5.231,0,0,0-.615-1.64,2.244,2.244,0,0,0-.885-.855,2.336,2.336,0,0,0-1.04-.245,2.284,2.284,0,0,0-1.025.245,2.224,2.224,0,0,0-.875.855,5.241,5.241,0,0,0-.6,1.64,12.489,12.489,0,0,0-.225,2.6,12.489,12.489,0,0,0,.225,2.6,5.241,5.241,0,0,0,.6,1.64,2.224,2.224,0,0,0,.875.855,2.284,2.284,0,0,0,1.025.245,2.336,2.336,0,0,0,1.04-.245,2.244,2.244,0,0,0,.885-.855,5.231,5.231,0,0,0,.615-1.64A12.226,12.226,0,0,0,38.81,26.77Zm4.23,9.68a.464.464,0,0,1-.18-.37.381.381,0,0,1,.055-.18.8.8,0,0,1,.135-.18l.27-.3a4.2,4.2,0,0,0,.32-.4,3.894,3.894,0,0,0,.3-.49,2.482,2.482,0,0,0,.2-.565,1.419,1.419,0,0,1-.58-.115,1.332,1.332,0,0,1-.445-.315,1.467,1.467,0,0,1-.29-.47,1.614,1.614,0,0,1-.1-.59,1.317,1.317,0,0,1,.4-.955,1.353,1.353,0,0,1,.46-.29,1.614,1.614,0,0,1,.59-.1,1.538,1.538,0,0,1,.665.135,1.291,1.291,0,0,1,.47.37,1.664,1.664,0,0,1,.28.54,2.157,2.157,0,0,1,.1.645,3.828,3.828,0,0,1-.145,1.01,5.218,5.218,0,0,1-.425,1.06,6.012,6.012,0,0,1-.695,1.03,6.34,6.34,0,0,1-.945.92ZM50.6,24.79a9.017,9.017,0,0,1,.92-.145,8.359,8.359,0,0,1,.85-.045,5.5,5.5,0,0,1,2.01.34,4.116,4.116,0,0,1,1.46.94,3.944,3.944,0,0,1,.89,1.4,4.929,4.929,0,0,1,.3,1.735,5.3,5.3,0,0,1-.4,2.1A4.752,4.752,0,0,1,55.5,32.745a5.066,5.066,0,0,1-1.7,1.045,6.053,6.053,0,0,1-2.145.37,5.753,5.753,0,0,1-1.29-.14,6.387,6.387,0,0,1-2.135-.915,6.259,6.259,0,0,1-.815-.645l.76-1.05a.738.738,0,0,1,.63-.34.971.971,0,0,1,.51.16q.26.16.595.35a4.9,4.9,0,0,0,.79.35,3.315,3.315,0,0,0,1.1.16,3.058,3.058,0,0,0,1.2-.22,2.338,2.338,0,0,0,.865-.615,2.633,2.633,0,0,0,.52-.94,3.857,3.857,0,0,0,.175-1.185,2.452,2.452,0,0,0-.685-1.845,2.8,2.8,0,0,0-2.025-.665,6.336,6.336,0,0,0-2.11.38l-1.54-.44,1.2-7.02h7.14v1.05a1.163,1.163,0,0,1-.33.86,1.551,1.551,0,0,1-1.12.33H51.11Zm13.85,7.28a2.6,2.6,0,0,0,1.605-.715,2.1,2.1,0,0,0,.545-1.5,1.538,1.538,0,0,0-.135-.665,1.588,1.588,0,0,0-.38-.5,2.461,2.461,0,0,0-.575-.38,7.321,7.321,0,0,0-.72-.3ZM63.81,21.5a3.6,3.6,0,0,0-.95.235,2.087,2.087,0,0,0-.64.4,1.478,1.478,0,0,0-.365.54,1.745,1.745,0,0,0-.115.63,1.538,1.538,0,0,0,.135.665,1.723,1.723,0,0,0,.37.51,2.6,2.6,0,0,0,.555.4,6.213,6.213,0,0,0,.7.325Zm1.17,4.19q.72.22,1.43.485a5.129,5.129,0,0,1,1.275.685,3.287,3.287,0,0,1,.915,1.045,3.169,3.169,0,0,1,.35,1.565,4.867,4.867,0,0,1-.31,1.745,4.229,4.229,0,0,1-.91,1.44,4.708,4.708,0,0,1-1.47,1.02,5.63,5.63,0,0,1-1.99.465l-.12,1.47a.65.65,0,0,1-.2.425.614.614,0,0,1-.465.195h-.91l.18-2.14a7.621,7.621,0,0,1-2.2-.64,6.183,6.183,0,0,1-1.75-1.19l.76-1.13a.781.781,0,0,1,.265-.245.7.7,0,0,1,.355-.095.9.9,0,0,1,.47.155q.25.155.57.36t.73.415a3.455,3.455,0,0,0,.97.31l.37-4.47q-.71-.2-1.4-.47a4.71,4.71,0,0,1-1.25-.715,3.323,3.323,0,0,1-.9-1.125,3.785,3.785,0,0,1-.34-1.7A3.879,3.879,0,0,1,60.6,20.77a4.743,4.743,0,0,1,1.435-.94,5.479,5.479,0,0,1,1.95-.42l.11-1.26a.7.7,0,0,1,.2-.43.618.618,0,0,1,.47-.19h.91l-.16,1.96a5.451,5.451,0,0,1,1.83.605,6.53,6.53,0,0,1,1.33.975l-.6.91a1.1,1.1,0,0,1-.27.3.57.57,0,0,1-.34.1.9.9,0,0,1-.36-.1q-.21-.1-.47-.23t-.585-.275a4.183,4.183,0,0,0-.715-.23Z" transform="translate(18205 -1374)" fill="#20a8d8"/>
    <g transform="matrix(1, 0, 0, 1, 18121.5, -1387)" filter="url(#Trazado_1732)">
      <path id="Trazado_1732-2" data-name="Trazado 1732" d="M5,0H115a5,5,0,0,1,5,5V45a5,5,0,0,1-5,5H5a5,5,0,0,1-5-5V5A5,5,0,0,1,5,0Z" transform="translate(134.5 106)" fill="#fff"/>
    </g>
    <path id="Trazado_1733" data-name="Trazado 1733" d="M46.245,3.969,42.157,14H40.939L36.851,3.969h1.085a.452.452,0,0,1,.294.091.56.56,0,0,1,.168.231l2.828,7.077q.091.238.179.518t.157.588q.07-.308.147-.588t.168-.518L44.7,4.291a.512.512,0,0,1,.165-.22.451.451,0,0,1,.3-.1ZM49.213,6.8a3.616,3.616,0,0,1,1.4.259,3,3,0,0,1,1.064.735,3.226,3.226,0,0,1,.676,1.151,4.579,4.579,0,0,1,.234,1.509,4.57,4.57,0,0,1-.234,1.512,3.231,3.231,0,0,1-.676,1.148,2.962,2.962,0,0,1-1.064.731,3.66,3.66,0,0,1-1.4.255,3.706,3.706,0,0,1-1.411-.255,2.956,2.956,0,0,1-1.067-.731,3.231,3.231,0,0,1-.676-1.148,4.57,4.57,0,0,1-.234-1.512,4.579,4.579,0,0,1,.234-1.509,3.226,3.226,0,0,1,.676-1.151A2.993,2.993,0,0,1,47.8,7.056,3.662,3.662,0,0,1,49.213,6.8Zm0,6.328a1.82,1.82,0,0,0,1.568-.7,3.257,3.257,0,0,0,.518-1.964,3.287,3.287,0,0,0-.518-1.974,1.817,1.817,0,0,0-1.568-.707,2.2,2.2,0,0,0-.928.182,1.723,1.723,0,0,0-.658.525,2.332,2.332,0,0,0-.392.843,4.521,4.521,0,0,0-.13,1.131,3.241,3.241,0,0,0,.521,1.964A1.845,1.845,0,0,0,49.213,13.125ZM55.45,3.689V14H54.2V3.689ZM63.3,6.909V14h-.742a.318.318,0,0,1-.336-.259l-.1-.763a3.9,3.9,0,0,1-1.036.823,2.715,2.715,0,0,1-1.316.312,2.56,2.56,0,0,1-1.026-.193A2.033,2.033,0,0,1,58,13.377a2.3,2.3,0,0,1-.451-.847,3.781,3.781,0,0,1-.151-1.1V6.909h1.246v4.522a1.894,1.894,0,0,0,.368,1.246,1.379,1.379,0,0,0,1.124.441,2.116,2.116,0,0,0,1.033-.262,3.279,3.279,0,0,0,.885-.724V6.909ZM65.271,14V6.909h.749a.308.308,0,0,1,.329.259l.091.728a3.609,3.609,0,0,1,.882-.791A2.086,2.086,0,0,1,68.456,6.8a1.669,1.669,0,0,1,1.159.4,2.244,2.244,0,0,1,.641,1.078,2.337,2.337,0,0,1,.4-.665,2.257,2.257,0,0,1,.542-.462,2.3,2.3,0,0,1,.641-.266,2.86,2.86,0,0,1,.689-.084,2.622,2.622,0,0,1,1,.179,1.975,1.975,0,0,1,.742.521,2.323,2.323,0,0,1,.465.844,3.735,3.735,0,0,1,.161,1.145V14H73.636V9.485a1.911,1.911,0,0,0-.364-1.264,1.3,1.3,0,0,0-1.05-.431,1.586,1.586,0,0,0-.585.109,1.408,1.408,0,0,0-.487.319,1.493,1.493,0,0,0-.332.528,2.05,2.05,0,0,0-.122.739V14H69.443V9.485A1.987,1.987,0,0,0,69.1,8.211a1.217,1.217,0,0,0-1-.42,1.564,1.564,0,0,0-.854.249,2.833,2.833,0,0,0-.721.675V14ZM81.532,9.681a2.457,2.457,0,0,0-.122-.794,1.784,1.784,0,0,0-.357-.623,1.593,1.593,0,0,0-.571-.406,2.158,2.158,0,0,0-2.18.378,2.443,2.443,0,0,0-.647,1.445Zm1.008,3.325a2.367,2.367,0,0,1-.553.487,3.443,3.443,0,0,1-.69.339,4.38,4.38,0,0,1-.759.2,4.639,4.639,0,0,1-.777.066,3.606,3.606,0,0,1-1.354-.248,2.973,2.973,0,0,1-1.071-.728,3.34,3.34,0,0,1-.7-1.186,4.825,4.825,0,0,1-.252-1.624,4.132,4.132,0,0,1,.228-1.386,3.267,3.267,0,0,1,.654-1.116A3.013,3.013,0,0,1,78.3,7.067a3.424,3.424,0,0,1,1.386-.27,3.193,3.193,0,0,1,1.18.214,2.668,2.668,0,0,1,.938.616,2.822,2.822,0,0,1,.619.994,3.786,3.786,0,0,1,.224,1.347.813.813,0,0,1-.063.392.262.262,0,0,1-.238.1H77.612a4.146,4.146,0,0,0,.185,1.169,2.348,2.348,0,0,0,.459.83,1.851,1.851,0,0,0,.7.5,2.4,2.4,0,0,0,.91.165,2.67,2.67,0,0,0,.809-.108,3.847,3.847,0,0,0,.584-.235,4.458,4.458,0,0,0,.41-.234.543.543,0,0,1,.284-.108.274.274,0,0,1,.238.119ZM25.648,32.15V34h-8V32.15h2.93V23.72q0-.5.03-1.03l-2.08,1.74a.86.86,0,0,1-.355.175.849.849,0,0,1-.33.005.8.8,0,0,1-.275-.1.581.581,0,0,1-.18-.165l-.78-1.07,4.41-3.75h2.03V32.15ZM38,26.77a11.848,11.848,0,0,1-.405,3.285,6.729,6.729,0,0,1-1.12,2.305,4.529,4.529,0,0,1-1.69,1.355,5.009,5.009,0,0,1-2.1.445,4.942,4.942,0,0,1-2.1-.445,4.51,4.51,0,0,1-1.675-1.355,6.721,6.721,0,0,1-1.11-2.305,11.988,11.988,0,0,1-.4-3.285,11.976,11.976,0,0,1,.4-3.29,6.724,6.724,0,0,1,1.11-2.3,4.51,4.51,0,0,1,1.675-1.355,4.942,4.942,0,0,1,2.1-.445,5.009,5.009,0,0,1,2.1.445,4.529,4.529,0,0,1,1.69,1.355,6.733,6.733,0,0,1,1.12,2.3A11.836,11.836,0,0,1,38,26.77Zm-2.55,0a12.226,12.226,0,0,0-.23-2.6,5.23,5.23,0,0,0-.615-1.64,2.244,2.244,0,0,0-.885-.855,2.336,2.336,0,0,0-1.04-.245,2.284,2.284,0,0,0-1.025.245,2.224,2.224,0,0,0-.875.855,5.241,5.241,0,0,0-.6,1.64,12.489,12.489,0,0,0-.225,2.6,12.489,12.489,0,0,0,.225,2.6,5.241,5.241,0,0,0,.6,1.64,2.224,2.224,0,0,0,.875.855,2.284,2.284,0,0,0,1.025.245,2.336,2.336,0,0,0,1.04-.245,2.244,2.244,0,0,0,.885-.855,5.23,5.23,0,0,0,.615-1.64A12.226,12.226,0,0,0,35.449,26.77Zm14.15,0a11.848,11.848,0,0,1-.405,3.285,6.729,6.729,0,0,1-1.12,2.305,4.529,4.529,0,0,1-1.69,1.355,5.009,5.009,0,0,1-2.1.445,4.942,4.942,0,0,1-2.095-.445,4.51,4.51,0,0,1-1.675-1.355,6.721,6.721,0,0,1-1.11-2.305A11.988,11.988,0,0,1,39,26.77a11.976,11.976,0,0,1,.4-3.29,6.724,6.724,0,0,1,1.11-2.3,4.51,4.51,0,0,1,1.675-1.355,4.942,4.942,0,0,1,2.095-.445,5.009,5.009,0,0,1,2.1.445,4.529,4.529,0,0,1,1.69,1.355,6.733,6.733,0,0,1,1.12,2.3A11.836,11.836,0,0,1,49.6,26.77Zm-2.55,0a12.226,12.226,0,0,0-.23-2.6,5.23,5.23,0,0,0-.615-1.64,2.244,2.244,0,0,0-.885-.855,2.336,2.336,0,0,0-1.04-.245,2.284,2.284,0,0,0-1.025.245,2.224,2.224,0,0,0-.875.855,5.241,5.241,0,0,0-.6,1.64,12.489,12.489,0,0,0-.225,2.6,12.489,12.489,0,0,0,.225,2.6,5.241,5.241,0,0,0,.6,1.64,2.224,2.224,0,0,0,.875.855,2.284,2.284,0,0,0,1.025.245,2.336,2.336,0,0,0,1.04-.245,2.244,2.244,0,0,0,.885-.855,5.23,5.23,0,0,0,.615-1.64A12.226,12.226,0,0,0,47.049,26.77Zm14.15,0a11.848,11.848,0,0,1-.405,3.285,6.729,6.729,0,0,1-1.12,2.305,4.529,4.529,0,0,1-1.69,1.355,5.009,5.009,0,0,1-2.1.445,4.942,4.942,0,0,1-2.095-.445,4.51,4.51,0,0,1-1.675-1.355A6.721,6.721,0,0,1,51,30.055a11.988,11.988,0,0,1-.4-3.285,11.976,11.976,0,0,1,.4-3.29,6.724,6.724,0,0,1,1.11-2.3,4.51,4.51,0,0,1,1.675-1.355,4.942,4.942,0,0,1,2.095-.445,5.009,5.009,0,0,1,2.1.445,4.529,4.529,0,0,1,1.69,1.355,6.733,6.733,0,0,1,1.12,2.3A11.836,11.836,0,0,1,61.2,26.77Zm-2.55,0a12.226,12.226,0,0,0-.23-2.6,5.23,5.23,0,0,0-.615-1.64,2.244,2.244,0,0,0-.885-.855,2.336,2.336,0,0,0-1.04-.245,2.284,2.284,0,0,0-1.025.245,2.224,2.224,0,0,0-.875.855,5.241,5.241,0,0,0-.6,1.64,12.489,12.489,0,0,0-.225,2.6,12.489,12.489,0,0,0,.225,2.6,5.241,5.241,0,0,0,.6,1.64,2.224,2.224,0,0,0,.875.855,2.284,2.284,0,0,0,1.025.245,2.336,2.336,0,0,0,1.04-.245,2.244,2.244,0,0,0,.885-.855,5.23,5.23,0,0,0,.615-1.64A12.226,12.226,0,0,0,58.648,26.77Zm12.1,1.924a2.914,2.914,0,0,0,.928-.133,1.793,1.793,0,0,0,.651-.368,1.476,1.476,0,0,0,.382-.556,1.924,1.924,0,0,0,.126-.707,1.437,1.437,0,0,0-.508-1.183,2.428,2.428,0,0,0-1.55-.413h-1.2v3.36ZM75.589,34h-1.7a.746.746,0,0,1-.7-.378L71.06,30.381a.747.747,0,0,0-.262-.259.92.92,0,0,0-.424-.077h-.805V34H67.686V23.878h3.087a6.418,6.418,0,0,1,1.768.213,3.381,3.381,0,0,1,1.211.6,2.341,2.341,0,0,1,.7.921,3.2,3.2,0,0,1,.074,2.146,2.8,2.8,0,0,1-.434.826,2.925,2.925,0,0,1-.7.651,3.511,3.511,0,0,1-.949.441,1.841,1.841,0,0,1,.336.249,1.766,1.766,0,0,1,.28.34Zm6.734-7.182V34H81.266a.407.407,0,0,1-.434-.315l-.119-.574a3.858,3.858,0,0,1-.973.724,2.682,2.682,0,0,1-1.253.277,2.55,2.55,0,0,1-1.039-.2,2.082,2.082,0,0,1-.76-.563,2.467,2.467,0,0,1-.465-.864,3.659,3.659,0,0,1-.158-1.1V26.818h1.729v4.564a1.534,1.534,0,0,0,.3,1.019,1.129,1.129,0,0,0,.914.361,1.826,1.826,0,0,0,.84-.2,2.936,2.936,0,0,0,.742-.549V26.818Zm3.325.882a4.678,4.678,0,0,1,.458-.4,2.9,2.9,0,0,1,.511-.315,2.864,2.864,0,0,1,.577-.2,2.893,2.893,0,0,1,.672-.073,2.575,2.575,0,0,1,1.043.2,2.061,2.061,0,0,1,.759.56,2.462,2.462,0,0,1,.462.861,3.659,3.659,0,0,1,.158,1.1V34H88.56V29.429a1.546,1.546,0,0,0-.3-1.019,1.127,1.127,0,0,0-.917-.361,1.8,1.8,0,0,0-.84.2,3.01,3.01,0,0,0-.742.553V34H84.03V26.818h1.057a.425.425,0,0,1,.441.315Zm10.906,1.883a2.08,2.08,0,0,0-.095-.633,1.506,1.506,0,0,0-.284-.522,1.318,1.318,0,0,0-.479-.353,1.646,1.646,0,0,0-.675-.13,1.6,1.6,0,0,0-1.179.427,2.094,2.094,0,0,0-.549,1.211Zm-3.3,1.043a3.4,3.4,0,0,0,.2.956,1.954,1.954,0,0,0,.406.665,1.59,1.59,0,0,0,.6.392,2.174,2.174,0,0,0,.767.13,2.376,2.376,0,0,0,.725-.1,3.4,3.4,0,0,0,.532-.217q.227-.119.4-.217a.669.669,0,0,1,.332-.1.358.358,0,0,1,.322.161l.5.63a2.882,2.882,0,0,1-.644.563,3.612,3.612,0,0,1-.746.364,4.075,4.075,0,0,1-.791.193,5.664,5.664,0,0,1-.781.056,3.837,3.837,0,0,1-1.393-.249,3.118,3.118,0,0,1-1.12-.735,3.448,3.448,0,0,1-.749-1.2,4.659,4.659,0,0,1-.273-1.663,3.976,3.976,0,0,1,.238-1.382,3.324,3.324,0,0,1,.683-1.127,3.213,3.213,0,0,1,1.085-.76,3.574,3.574,0,0,1,1.446-.28,3.516,3.516,0,0,1,1.253.217,2.73,2.73,0,0,1,.987.633,2.934,2.934,0,0,1,.647,1.022,3.808,3.808,0,0,1,.234,1.383,1.122,1.122,0,0,1-.084.528.348.348,0,0,1-.322.136Zm10.528-2.408a.461.461,0,0,1-.147.157.381.381,0,0,1-.2.045.618.618,0,0,1-.27-.07q-.143-.07-.332-.157a3.045,3.045,0,0,0-.431-.158,2.062,2.062,0,0,0-.57-.07,1.313,1.313,0,0,0-.8.217.676.676,0,0,0-.291.567.541.541,0,0,0,.151.389,1.353,1.353,0,0,0,.4.277,3.905,3.905,0,0,0,.563.213q.315.094.641.206t.641.256a2.246,2.246,0,0,1,.563.364,1.6,1.6,0,0,1,.549,1.271,2.423,2.423,0,0,1-.186.955,2.064,2.064,0,0,1-.549.756,2.591,2.591,0,0,1-.9.5,4.216,4.216,0,0,1-1.96.112,4.276,4.276,0,0,1-.679-.186,3.758,3.758,0,0,1-.6-.28,2.922,2.922,0,0,1-.486-.35l.4-.658a.564.564,0,0,1,.182-.182.51.51,0,0,1,.266-.063.559.559,0,0,1,.3.091q.143.091.333.2a2.971,2.971,0,0,0,.444.2,1.956,1.956,0,0,0,.647.091,1.68,1.68,0,0,0,.529-.074,1.118,1.118,0,0,0,.364-.193.723.723,0,0,0,.21-.276.829.829,0,0,0,.066-.326.581.581,0,0,0-.15-.413,1.317,1.317,0,0,0-.4-.28,3.854,3.854,0,0,0-.567-.214q-.319-.094-.651-.206a6.022,6.022,0,0,1-.651-.263,2.219,2.219,0,0,1-.567-.381,1.727,1.727,0,0,1-.4-.567,1.979,1.979,0,0,1-.15-.812,2.069,2.069,0,0,1,.175-.84,1.97,1.97,0,0,1,.515-.7,2.555,2.555,0,0,1,.847-.476,3.528,3.528,0,0,1,1.173-.179,3.589,3.589,0,0,1,1.351.245,3.051,3.051,0,0,1,1.015.644Z" transform="translate(18256 -1275)" fill="#20a8d8"/>
    <g transform="matrix(1, 0, 0, 1, 18121.5, -1387)" filter="url(#Trazado_1734)">
      <path id="Trazado_1734-2" data-name="Trazado 1734" d="M5,0H95a5,5,0,0,1,5,5V45a5,5,0,0,1-5,5H5a5,5,0,0,1-5-5V5A5,5,0,0,1,5,0Z" transform="translate(12.5 106)" fill="#fff"/>
    </g>
    <path id="Trazado_1735" data-name="Trazado 1735" d="M20.936,11.928a.259.259,0,0,1,.2.091l.539.581a4.291,4.291,0,0,1-1.495,1.113,5.115,5.115,0,0,1-2.125.4,4.966,4.966,0,0,1-1.96-.375,4.311,4.311,0,0,1-1.505-1.05,4.746,4.746,0,0,1-.966-1.621,6.053,6.053,0,0,1-.343-2.079,5.839,5.839,0,0,1,.357-2.079,4.758,4.758,0,0,1,1-1.624,4.492,4.492,0,0,1,1.55-1.053,5.159,5.159,0,0,1,2-.375,4.86,4.86,0,0,1,1.89.343,4.758,4.758,0,0,1,1.442.931l-.448.623a.367.367,0,0,1-.108.116.311.311,0,0,1-.178.045.555.555,0,0,1-.308-.137,4.679,4.679,0,0,0-.476-.3,3.541,3.541,0,0,0-1.82-.441,3.646,3.646,0,0,0-1.421.27,3.1,3.1,0,0,0-1.11.78,3.6,3.6,0,0,0-.724,1.246,4.972,4.972,0,0,0-.259,1.659,4.839,4.839,0,0,0,.269,1.673,3.694,3.694,0,0,0,.735,1.242,3.106,3.106,0,0,0,1.1.774,3.5,3.5,0,0,0,1.368.266,5.645,5.645,0,0,0,.809-.052,3.3,3.3,0,0,0,.665-.165,2.8,2.8,0,0,0,.567-.283,4.04,4.04,0,0,0,.521-.41A.362.362,0,0,1,20.936,11.928ZM25.8,6.8a3.616,3.616,0,0,1,1.4.259,3,3,0,0,1,1.064.735,3.226,3.226,0,0,1,.675,1.151,4.579,4.579,0,0,1,.235,1.509,4.57,4.57,0,0,1-.235,1.512,3.231,3.231,0,0,1-.675,1.148,2.962,2.962,0,0,1-1.064.731,3.66,3.66,0,0,1-1.4.255,3.706,3.706,0,0,1-1.41-.255,2.956,2.956,0,0,1-1.068-.731,3.231,3.231,0,0,1-.675-1.148,4.57,4.57,0,0,1-.235-1.512,4.579,4.579,0,0,1,.235-1.509,3.226,3.226,0,0,1,.675-1.151,2.993,2.993,0,0,1,1.068-.735A3.661,3.661,0,0,1,25.8,6.8Zm0,6.328a1.82,1.82,0,0,0,1.568-.7,3.257,3.257,0,0,0,.518-1.964,3.287,3.287,0,0,0-.518-1.974A1.817,1.817,0,0,0,25.8,7.777a2.2,2.2,0,0,0-.927.182,1.723,1.723,0,0,0-.658.525,2.332,2.332,0,0,0-.392.843,4.522,4.522,0,0,0-.129,1.131,3.241,3.241,0,0,0,.522,1.964A1.845,1.845,0,0,0,25.8,13.125ZM30.75,14V6.909H31.5a.308.308,0,0,1,.329.259l.091.728a3.609,3.609,0,0,1,.882-.791A2.086,2.086,0,0,1,33.935,6.8a1.669,1.669,0,0,1,1.159.4,2.244,2.244,0,0,1,.64,1.078,2.337,2.337,0,0,1,.4-.665,2.257,2.257,0,0,1,.542-.462,2.3,2.3,0,0,1,.641-.266A2.86,2.86,0,0,1,38,6.8a2.622,2.622,0,0,1,1,.179,1.975,1.975,0,0,1,.742.521,2.323,2.323,0,0,1,.465.844,3.735,3.735,0,0,1,.161,1.145V14H39.115V9.485a1.911,1.911,0,0,0-.364-1.264,1.3,1.3,0,0,0-1.05-.431,1.586,1.586,0,0,0-.585.109,1.408,1.408,0,0,0-.486.319,1.493,1.493,0,0,0-.333.528,2.05,2.05,0,0,0-.122.739V14H34.922V9.485a1.987,1.987,0,0,0-.343-1.274,1.217,1.217,0,0,0-1-.42,1.564,1.564,0,0,0-.854.249A2.833,2.833,0,0,0,32,8.715V14Zm11.515,0V6.909h.749a.308.308,0,0,1,.329.259l.091.728a3.609,3.609,0,0,1,.882-.791A2.086,2.086,0,0,1,45.45,6.8a1.669,1.669,0,0,1,1.159.4,2.244,2.244,0,0,1,.64,1.078,2.337,2.337,0,0,1,.4-.665,2.257,2.257,0,0,1,.542-.462,2.3,2.3,0,0,1,.64-.266,2.86,2.86,0,0,1,.69-.084,2.622,2.622,0,0,1,1,.179,1.975,1.975,0,0,1,.742.521,2.323,2.323,0,0,1,.465.844,3.735,3.735,0,0,1,.161,1.145V14H50.63V9.485a1.911,1.911,0,0,0-.364-1.264,1.3,1.3,0,0,0-1.05-.431,1.586,1.586,0,0,0-.584.109,1.408,1.408,0,0,0-.486.319,1.493,1.493,0,0,0-.333.528,2.05,2.05,0,0,0-.123.739V14H46.437V9.485a1.987,1.987,0,0,0-.343-1.274,1.217,1.217,0,0,0-1-.42,1.564,1.564,0,0,0-.854.249,2.833,2.833,0,0,0-.721.675V14ZM55.1,6.909V14H53.85V6.909Zm.266-2.226a.793.793,0,0,1-.074.339.977.977,0,0,1-.2.28.9.9,0,0,1-.287.192.876.876,0,0,1-.347.07.826.826,0,0,1-.34-.07.88.88,0,0,1-.277-.192.955.955,0,0,1-.189-.28.826.826,0,0,1-.07-.339.876.876,0,0,1,.07-.347.93.93,0,0,1,.189-.287.88.88,0,0,1,.277-.193.826.826,0,0,1,.34-.07.876.876,0,0,1,.347.07.9.9,0,0,1,.287.193.949.949,0,0,1,.2.287A.84.84,0,0,1,55.362,4.683ZM61.27,8.078a.276.276,0,0,1-.259.154.487.487,0,0,1-.238-.077q-.133-.077-.326-.172a3.057,3.057,0,0,0-.458-.175,2.187,2.187,0,0,0-.63-.081,1.859,1.859,0,0,0-.567.081,1.362,1.362,0,0,0-.431.221.975.975,0,0,0-.273.325.874.874,0,0,0-.095.4.671.671,0,0,0,.158.455,1.369,1.369,0,0,0,.417.315,3.631,3.631,0,0,0,.588.234q.329.1.676.217t.675.255a2.451,2.451,0,0,1,.588.35,1.6,1.6,0,0,1,.417.515,1.575,1.575,0,0,1,.157.731,2.317,2.317,0,0,1-.175.906,1.978,1.978,0,0,1-.518.721,2.5,2.5,0,0,1-.84.479,3.451,3.451,0,0,1-1.148.175,3.581,3.581,0,0,1-1.344-.242,3.406,3.406,0,0,1-1.022-.619l.294-.476a.427.427,0,0,1,.133-.14.359.359,0,0,1,.2-.049.469.469,0,0,1,.266.1q.14.1.339.217a2.583,2.583,0,0,0,.487.217,2.234,2.234,0,0,0,.714.1,1.948,1.948,0,0,0,.637-.094,1.338,1.338,0,0,0,.455-.255,1.012,1.012,0,0,0,.269-.371,1.153,1.153,0,0,0,.088-.448.743.743,0,0,0-.158-.486,1.329,1.329,0,0,0-.417-.329,3.394,3.394,0,0,0-.591-.238q-.333-.1-.679-.214t-.679-.255a2.387,2.387,0,0,1-.592-.361,1.633,1.633,0,0,1-.417-.535,1.732,1.732,0,0,1-.157-.774,1.887,1.887,0,0,1,.168-.78,1.914,1.914,0,0,1,.49-.658,2.413,2.413,0,0,1,.791-.451A3.165,3.165,0,0,1,59.331,6.8a3.387,3.387,0,0,1,1.256.22,2.974,2.974,0,0,1,.963.606Zm6.062,0a.276.276,0,0,1-.259.154.487.487,0,0,1-.238-.077q-.133-.077-.326-.172a3.057,3.057,0,0,0-.459-.175,2.187,2.187,0,0,0-.63-.081,1.859,1.859,0,0,0-.567.081,1.362,1.362,0,0,0-.43.221.975.975,0,0,0-.273.325.874.874,0,0,0-.094.4.671.671,0,0,0,.157.455,1.369,1.369,0,0,0,.417.315,3.631,3.631,0,0,0,.588.234q.329.1.675.217t.675.255a2.451,2.451,0,0,1,.588.35,1.6,1.6,0,0,1,.416.515,1.575,1.575,0,0,1,.158.731,2.317,2.317,0,0,1-.175.906,1.978,1.978,0,0,1-.518.721,2.5,2.5,0,0,1-.84.479,3.451,3.451,0,0,1-1.148.175,3.581,3.581,0,0,1-1.344-.242,3.406,3.406,0,0,1-1.022-.619l.294-.476a.427.427,0,0,1,.133-.14.359.359,0,0,1,.2-.049.469.469,0,0,1,.266.1q.14.1.339.217a2.583,2.583,0,0,0,.486.217,2.234,2.234,0,0,0,.714.1,1.948,1.948,0,0,0,.637-.094,1.338,1.338,0,0,0,.455-.255,1.012,1.012,0,0,0,.27-.371,1.153,1.153,0,0,0,.088-.448.743.743,0,0,0-.158-.486,1.329,1.329,0,0,0-.416-.329,3.394,3.394,0,0,0-.591-.238q-.333-.1-.679-.214t-.679-.255a2.387,2.387,0,0,1-.592-.361,1.633,1.633,0,0,1-.417-.535,1.732,1.732,0,0,1-.157-.774,1.887,1.887,0,0,1,.168-.78,1.914,1.914,0,0,1,.49-.658,2.413,2.413,0,0,1,.791-.451A3.165,3.165,0,0,1,65.393,6.8a3.387,3.387,0,0,1,1.257.22,2.974,2.974,0,0,1,.963.606ZM70.58,6.909V14H69.334V6.909Zm.266-2.226a.793.793,0,0,1-.074.339.978.978,0,0,1-.2.28.9.9,0,0,1-.287.192.876.876,0,0,1-.346.07.826.826,0,0,1-.34-.07.88.88,0,0,1-.276-.192.955.955,0,0,1-.189-.28.826.826,0,0,1-.07-.339.876.876,0,0,1,.07-.347.93.93,0,0,1,.189-.287.88.88,0,0,1,.276-.193.826.826,0,0,1,.34-.07.876.876,0,0,1,.346.07.9.9,0,0,1,.287.193.949.949,0,0,1,.2.287A.84.84,0,0,1,70.846,4.683ZM75.613,6.8a3.616,3.616,0,0,1,1.4.259,3,3,0,0,1,1.064.735,3.226,3.226,0,0,1,.675,1.151,4.579,4.579,0,0,1,.234,1.509,4.57,4.57,0,0,1-.234,1.512,3.231,3.231,0,0,1-.675,1.148,2.962,2.962,0,0,1-1.064.731,3.66,3.66,0,0,1-1.4.255,3.706,3.706,0,0,1-1.41-.255,2.956,2.956,0,0,1-1.067-.731,3.231,3.231,0,0,1-.675-1.148,4.57,4.57,0,0,1-.235-1.512,4.579,4.579,0,0,1,.235-1.509,3.226,3.226,0,0,1,.675-1.151A2.993,2.993,0,0,1,74.2,7.056,3.662,3.662,0,0,1,75.613,6.8Zm0,6.328a1.82,1.82,0,0,0,1.568-.7,3.257,3.257,0,0,0,.518-1.964,3.287,3.287,0,0,0-.518-1.974,1.817,1.817,0,0,0-1.568-.707,2.2,2.2,0,0,0-.927.182,1.723,1.723,0,0,0-.658.525,2.332,2.332,0,0,0-.392.843,4.522,4.522,0,0,0-.129,1.131,3.241,3.241,0,0,0,.521,1.964A1.845,1.845,0,0,0,75.613,13.125Zm6.125-5.187a4.207,4.207,0,0,1,.49-.469,3.23,3.23,0,0,1,.549-.36,2.79,2.79,0,0,1,.616-.231,2.925,2.925,0,0,1,.7-.08,2.56,2.56,0,0,1,1.025.193,1.984,1.984,0,0,1,.742.546,2.411,2.411,0,0,1,.451.85,3.7,3.7,0,0,1,.154,1.1V14H85.217V9.485a1.909,1.909,0,0,0-.368-1.25,1.365,1.365,0,0,0-1.117-.445,2.094,2.094,0,0,0-1.032.266,3.4,3.4,0,0,0-.886.721V14H80.562V6.909h.749a.308.308,0,0,1,.329.259ZM37.675,31.7a.88.88,0,0,1,.635.225.786.786,0,0,1,.235.6V34h-9.92v-.82a1.471,1.471,0,0,1,.1-.525,1.346,1.346,0,0,1,.335-.495l4.39-4.4q.55-.56.985-1.07a6.907,6.907,0,0,0,.725-1.01,4.751,4.751,0,0,0,.445-1.015,3.745,3.745,0,0,0,.155-1.085,2.569,2.569,0,0,0-.15-.915A1.824,1.824,0,0,0,35.19,22a1.758,1.758,0,0,0-.66-.4,2.6,2.6,0,0,0-.865-.135,2.563,2.563,0,0,0-.815.125,2.2,2.2,0,0,0-1.155.875,2.282,2.282,0,0,0-.3.66,1.094,1.094,0,0,1-.44.61,1.233,1.233,0,0,1-.78.07l-1.3-.23a5.363,5.363,0,0,1,.58-1.825,4.376,4.376,0,0,1,1.075-1.31,4.453,4.453,0,0,1,1.48-.79,5.9,5.9,0,0,1,1.8-.265,5.432,5.432,0,0,1,1.83.295,4.116,4.116,0,0,1,1.42.835,3.78,3.78,0,0,1,.92,1.3,4.2,4.2,0,0,1,.33,1.69,4.5,4.5,0,0,1-.235,1.48,6.154,6.154,0,0,1-.63,1.3,8.753,8.753,0,0,1-.925,1.2q-.53.58-1.11,1.18l-3.26,3.33a7.4,7.4,0,0,1,.935-.215,5.565,5.565,0,0,1,.885-.075Zm2.97,4.75a.464.464,0,0,1-.18-.37.381.381,0,0,1,.055-.18.8.8,0,0,1,.135-.18l.27-.3a4.2,4.2,0,0,0,.32-.4,3.894,3.894,0,0,0,.3-.49,2.482,2.482,0,0,0,.2-.565,1.419,1.419,0,0,1-.58-.115,1.332,1.332,0,0,1-.445-.315,1.467,1.467,0,0,1-.29-.47,1.614,1.614,0,0,1-.1-.59,1.317,1.317,0,0,1,.4-.955,1.353,1.353,0,0,1,.46-.29,1.614,1.614,0,0,1,.59-.1,1.538,1.538,0,0,1,.665.135,1.291,1.291,0,0,1,.47.37,1.664,1.664,0,0,1,.28.54,2.157,2.157,0,0,1,.1.645,3.828,3.828,0,0,1-.145,1.01,5.218,5.218,0,0,1-.425,1.06,6.012,6.012,0,0,1-.695,1.03,6.34,6.34,0,0,1-.945.92Zm7.56-11.66a9.017,9.017,0,0,1,.92-.145,8.359,8.359,0,0,1,.85-.045,5.5,5.5,0,0,1,2.01.34,4.116,4.116,0,0,1,1.46.94,3.944,3.944,0,0,1,.89,1.4,4.929,4.929,0,0,1,.3,1.735,5.3,5.3,0,0,1-.405,2.1A4.752,4.752,0,0,1,53.1,32.745a5.066,5.066,0,0,1-1.7,1.045,6.053,6.053,0,0,1-2.145.37,5.753,5.753,0,0,1-1.29-.14A6.387,6.387,0,0,1,45.83,33.1a6.259,6.259,0,0,1-.815-.645l.76-1.05a.738.738,0,0,1,.63-.34.971.971,0,0,1,.51.16q.26.16.6.35a4.9,4.9,0,0,0,.79.35,3.315,3.315,0,0,0,1.1.16,3.058,3.058,0,0,0,1.2-.22,2.338,2.338,0,0,0,.865-.615,2.633,2.633,0,0,0,.52-.94,3.857,3.857,0,0,0,.175-1.185,2.452,2.452,0,0,0-.685-1.845,2.8,2.8,0,0,0-2.025-.665,6.336,6.336,0,0,0-2.11.38l-1.54-.44,1.2-7.02h7.14v1.05a1.163,1.163,0,0,1-.33.86,1.551,1.551,0,0,1-1.12.33h-3.97Zm14.99-1.75a3.814,3.814,0,0,1-.275,1.48,3.483,3.483,0,0,1-.735,1.125,3.192,3.192,0,0,1-1.07.715,3.318,3.318,0,0,1-1.27.25,3.474,3.474,0,0,1-1.33-.25,3.035,3.035,0,0,1-1.055-.715,3.289,3.289,0,0,1-.695-1.125,4.152,4.152,0,0,1-.25-1.48,4.379,4.379,0,0,1,.25-1.52,3.308,3.308,0,0,1,.695-1.15,3.061,3.061,0,0,1,1.055-.725,3.414,3.414,0,0,1,1.33-.255,3.451,3.451,0,0,1,1.335.255,3.1,3.1,0,0,1,1.065.725,3.269,3.269,0,0,1,.7,1.15A4.379,4.379,0,0,1,63.195,23.04Zm-1.9,0a3.483,3.483,0,0,0-.115-.97,1.8,1.8,0,0,0-.31-.63,1.12,1.12,0,0,0-.46-.345,1.52,1.52,0,0,0-.565-.1,1.481,1.481,0,0,0-.56.1,1.057,1.057,0,0,0-.445.345,1.846,1.846,0,0,0-.3.63,3.632,3.632,0,0,0-.11.97,3.375,3.375,0,0,0,.11.935,1.737,1.737,0,0,0,.3.605,1.048,1.048,0,0,0,.445.33,1.547,1.547,0,0,0,.56.1,1.587,1.587,0,0,0,.565-.1,1.112,1.112,0,0,0,.46-.33,1.692,1.692,0,0,0,.31-.605A3.237,3.237,0,0,0,61.295,23.04ZM68,19.93a1.592,1.592,0,0,1,.305-.27.869.869,0,0,1,.5-.12h1.8L59.865,33.63a1.129,1.129,0,0,1-.31.265.86.86,0,0,1-.44.1h-1.84Zm3.36,10.67a3.814,3.814,0,0,1-.275,1.48,3.483,3.483,0,0,1-.735,1.125,3.3,3.3,0,0,1-2.34.975,3.414,3.414,0,0,1-1.33-.255,3.094,3.094,0,0,1-1.055-.72,3.289,3.289,0,0,1-.695-1.125,4.152,4.152,0,0,1-.25-1.48,4.379,4.379,0,0,1,.25-1.52,3.308,3.308,0,0,1,.695-1.15,3.061,3.061,0,0,1,1.055-.725,3.414,3.414,0,0,1,1.33-.255,3.451,3.451,0,0,1,1.335.255,3.05,3.05,0,0,1,1.06.725,3.369,3.369,0,0,1,.7,1.15A4.3,4.3,0,0,1,71.365,30.6Zm-1.91,0a3.632,3.632,0,0,0-.11-.97A1.736,1.736,0,0,0,69.04,29a1.12,1.12,0,0,0-.46-.345,1.52,1.52,0,0,0-.565-.1,1.481,1.481,0,0,0-.56.1A1.092,1.092,0,0,0,67,29a1.73,1.73,0,0,0-.295.63,3.8,3.8,0,0,0-.105.97,3.585,3.585,0,0,0,.105.94,1.628,1.628,0,0,0,.295.61,1.083,1.083,0,0,0,.45.33,1.547,1.547,0,0,0,.56.1,1.587,1.587,0,0,0,.565-.1,1.112,1.112,0,0,0,.46-.33,1.635,1.635,0,0,0,.305-.61A3.43,3.43,0,0,0,69.455,30.6Z" transform="translate(18134 -1275)" fill="#20a8d8"/>
    <g id="Grupo_899" data-name="Grupo 899" transform="translate(18267 -1211)">
      <rect id="Rectángulo_962" data-name="Rectángulo 962" width="265" height="50" rx="5" transform="translate(-145)" fill="#4dbd74"/>
      <text id="Estimated_price_4_84_" data-name="Estimated price
4,84 $" transform="translate(-72 5)" fill="#fff" font-size="16" font-family="Lato-Regular, Lato"><tspan x="5.66" y="16">Estimated price</tspan><tspan font-size="20" font-family="Lato-Bold, Lato" font-weight="700"><tspan x="32.03" y="36">4,84 $</tspan></tspan></text>
    </g>
    <path id="Trazado_1736" data-name="Trazado 1736" d="M7.2-9.06H1.08v6.45H-1.095V-9.06h-6.09v-2.025h6.09v-6.4H1.08v6.4H7.2Z" transform="translate(18255 -1305)" fill="#20a8d8"/>
    <path id="Trazado_1737" data-name="Trazado 1737" d="M7.125,0H4.56a.735.735,0,0,1-.517-.172,1.592,1.592,0,0,1-.307-.383L-.09-6.51q-.06.21-.128.412a1.342,1.342,0,0,1-.188.368L-3.945-.555a3.03,3.03,0,0,1-.323.383A.638.638,0,0,1-4.74,0H-7.125L-1.8-7.8l-5.115-7.395H-4.35a.854.854,0,0,1,.48.1.994.994,0,0,1,.27.3L.135-9.09A3.139,3.139,0,0,1,.51-9.93l3.27-4.8a1.409,1.409,0,0,1,.293-.338.589.589,0,0,1,.382-.127h2.46L1.8-7.935Z" transform="translate(18245 -1246)" fill="#20a8d8"/>
    <g id="Grupo_900" data-name="Grupo 900" transform="translate(979.334 199)">
      <path id="Trazado_1330" data-name="Trazado 1330" d="M17193.709,6446.4h-21.043v62.278h21.043" transform="translate(-30 -7932.901)" fill="none" stroke="#20a8d8" stroke-width="1"/>
      <path id="Trazado_1331" data-name="Trazado 1331" d="M21.043,0H0V62.278H21.043" transform="translate(17407.709 -1424.222) rotate(180)" fill="none" stroke="#20a8d8" stroke-width="1"/>
    </g>
  </g>
</svg>
