<?xml version="1.0" encoding="utf-8"?>
<!-- Generator: Adobe Illustrator 16.0.0, SVG Export Plug-In . SVG Version: 6.00 Build 0)  -->
<!DOCTYPE svg PUBLIC "-//W3C//DTD SVG 1.1//EN" "http://www.w3.org/Graphics/SVG/1.1/DTD/svg11.dtd">
<svg version="1.1" id="Capa_1" xmlns="http://www.w3.org/2000/svg" xmlns:xlink="http://www.w3.org/1999/xlink" x="0px" y="0px"
	 fill="white" width="48.042px" height="18px" viewBox="0 0 48.042 18" enable-background="new 0 0 48.042 18" xml:space="preserve">
<g>
	<path d="M6.934,11.191c0.056,0.142,0.111,0.284,0.164,0.428c0.053-0.148,0.109-0.291,0.168-0.428
		c0.059-0.136,0.125-0.273,0.2-0.412l3.88-7.048c0.069-0.123,0.141-0.197,0.216-0.224c0.075-0.027,0.181-0.04,0.32-0.04h1.144
		v11.464h-1.36V6.508c0-0.112,0.002-0.232,0.008-0.36c0.005-0.128,0.014-0.258,0.024-0.392L7.77,12.924
		c-0.133,0.24-0.32,0.359-0.56,0.359H6.985c-0.24,0-0.427-0.119-0.56-0.359L2.41,5.731C2.426,5.871,2.438,6.006,2.446,6.14
		c0.008,0.133,0.012,0.256,0.012,0.368v8.424h-1.36V3.468h1.144c0.139,0,0.245,0.013,0.32,0.04c0.075,0.026,0.146,0.101,0.216,0.224
		l3.96,7.056C6.812,10.916,6.877,11.051,6.934,11.191z"/>
	<path d="M23.897,12.563c0.086,0,0.163,0.035,0.232,0.104l0.607,0.664c-0.469,0.543-1.038,0.968-1.708,1.271
		c-0.669,0.305-1.476,0.456-2.42,0.456c-0.827,0-1.576-0.143-2.248-0.428c-0.672-0.286-1.246-0.686-1.72-1.2
		s-0.843-1.132-1.104-1.852c-0.261-0.721-0.392-1.512-0.392-2.376c0-0.864,0.14-1.656,0.42-2.376c0.28-0.72,0.673-1.338,1.18-1.856
		c0.507-0.517,1.113-0.918,1.82-1.204c0.707-0.285,1.486-0.428,2.34-0.428c0.843,0,1.569,0.13,2.18,0.392
		c0.61,0.262,1.153,0.616,1.628,1.064l-0.504,0.712c-0.037,0.053-0.08,0.097-0.129,0.132c-0.047,0.035-0.117,0.052-0.207,0.052
		c-0.07,0-0.143-0.025-0.22-0.076c-0.078-0.051-0.169-0.113-0.276-0.188c-0.107-0.075-0.232-0.155-0.376-0.24
		c-0.144-0.085-0.315-0.165-0.512-0.24s-0.427-0.137-0.688-0.188s-0.563-0.076-0.904-0.076c-0.614,0-1.175,0.105-1.684,0.316
		c-0.509,0.211-0.948,0.511-1.316,0.9c-0.368,0.39-0.655,0.864-0.86,1.424c-0.205,0.56-0.308,1.187-0.308,1.88
		c0,0.715,0.103,1.352,0.308,1.912c0.206,0.561,0.485,1.033,0.84,1.42c0.354,0.387,0.774,0.682,1.26,0.885s1.008,0.304,1.568,0.304
		c0.341,0,0.648-0.021,0.92-0.06c0.272-0.041,0.524-0.104,0.756-0.188s0.448-0.193,0.648-0.323c0.2-0.131,0.401-0.287,0.604-0.469
		C23.724,12.604,23.812,12.563,23.897,12.563z"/>
	<path d="M34.857,12.563c0.086,0,0.163,0.035,0.232,0.104l0.607,0.664c-0.469,0.543-1.038,0.968-1.708,1.271
		c-0.669,0.305-1.476,0.456-2.42,0.456c-0.826,0-1.576-0.143-2.248-0.428c-0.672-0.286-1.245-0.686-1.72-1.2
		s-0.843-1.132-1.104-1.852c-0.261-0.721-0.391-1.512-0.391-2.376c0-0.864,0.139-1.656,0.42-2.376
		c0.279-0.72,0.673-1.338,1.18-1.856c0.506-0.517,1.113-0.918,1.82-1.204c0.706-0.285,1.486-0.428,2.34-0.428
		c0.842,0,1.568,0.13,2.18,0.392c0.61,0.262,1.153,0.616,1.628,1.064l-0.504,0.712c-0.037,0.053-0.08,0.097-0.128,0.132
		s-0.117,0.052-0.208,0.052c-0.069,0-0.143-0.025-0.221-0.076c-0.077-0.051-0.169-0.113-0.275-0.188s-0.232-0.155-0.376-0.24
		c-0.145-0.085-0.314-0.165-0.512-0.24s-0.428-0.137-0.688-0.188s-0.563-0.076-0.903-0.076c-0.614,0-1.176,0.105-1.685,0.316
		c-0.509,0.211-0.948,0.511-1.315,0.9c-0.369,0.39-0.655,0.864-0.861,1.424c-0.205,0.56-0.307,1.187-0.307,1.88
		c0,0.715,0.102,1.352,0.307,1.912c0.206,0.561,0.486,1.033,0.841,1.42s0.774,0.682,1.26,0.885s1.009,0.304,1.567,0.304
		c0.342,0,0.648-0.021,0.921-0.06c0.272-0.041,0.524-0.104,0.756-0.188c0.232-0.085,0.448-0.193,0.647-0.323
		c0.2-0.131,0.401-0.287,0.604-0.469C34.684,12.604,34.772,12.563,34.857,12.563z"/>
	<path d="M38.845,3.52c0.066,0.035,0.143,0.105,0.228,0.212l6.641,8.64c-0.017-0.139-0.027-0.272-0.032-0.403
		s-0.008-0.257-0.008-0.38v-8.12h1.36v11.464H46.25c-0.123,0-0.226-0.021-0.309-0.064c-0.082-0.042-0.164-0.114-0.244-0.215
		L39.065,6.02c0.011,0.133,0.019,0.264,0.024,0.392c0.005,0.128,0.008,0.246,0.008,0.352v8.168h-1.36V3.468h0.801
		C38.676,3.468,38.779,3.485,38.845,3.52z"/>
</g>
<g>
</g>
<g>
</g>
<g>
</g>
<g>
</g>
<g>
</g>
<g>
</g>
<g>
</g>
<g>
</g>
<g>
</g>
<g>
</g>
<g>
</g>
<g>
</g>
<g>
</g>
<g>
</g>
<g>
</g>
</svg>
