<?xml version="1.0" encoding="utf-8"?>
<!-- Generator: Adobe Illustrator 16.0.0, SVG Export Plug-In . SVG Version: 6.00 Build 0)  -->
<!DOCTYPE svg PUBLIC "-//W3C//DTD SVG 1.1//EN" "http://www.w3.org/Graphics/SVG/1.1/DTD/svg11.dtd">
<svg version="1.1" id="Capa_1" xmlns="http://www.w3.org/2000/svg" xmlns:xlink="http://www.w3.org/1999/xlink" x="0px" y="0px"
	 fill="white" width="41.969px" height="18px" viewBox="0 0 41.969 18" enable-background="new 0 0 41.969 18" xml:space="preserve">
<g>
	<path d="M7.392,5.26c-0.048,0.08-0.099,0.14-0.152,0.18S7.117,5.5,7.032,5.5c-0.09,0-0.196-0.045-0.316-0.136
		s-0.272-0.191-0.456-0.3c-0.184-0.109-0.405-0.209-0.664-0.3c-0.258-0.091-0.572-0.136-0.94-0.136c-0.347,0-0.653,0.047-0.92,0.14
		s-0.489,0.22-0.668,0.38c-0.179,0.16-0.313,0.348-0.404,0.564c-0.091,0.216-0.136,0.45-0.136,0.7c0,0.32,0.079,0.585,0.236,0.796
		c0.157,0.211,0.365,0.391,0.624,0.54c0.259,0.149,0.552,0.279,0.88,0.388c0.328,0.109,0.664,0.223,1.008,0.34
		c0.344,0.117,0.68,0.25,1.008,0.396c0.328,0.147,0.622,0.332,0.88,0.556c0.258,0.224,0.466,0.499,0.624,0.824
		c0.157,0.325,0.236,0.725,0.236,1.199c0,0.502-0.085,0.973-0.256,1.412c-0.171,0.44-0.42,0.823-0.748,1.148
		s-0.731,0.581-1.208,0.768c-0.478,0.188-1.02,0.28-1.628,0.28c-0.742,0-1.417-0.135-2.028-0.403
		c-0.61-0.27-1.132-0.634-1.564-1.093l0.448-0.735c0.042-0.059,0.095-0.108,0.156-0.148c0.062-0.04,0.129-0.061,0.204-0.061
		c0.112,0,0.24,0.061,0.384,0.181c0.144,0.12,0.324,0.252,0.54,0.396c0.216,0.145,0.478,0.276,0.784,0.396
		c0.307,0.119,0.681,0.18,1.124,0.18c0.368,0,0.696-0.051,0.984-0.152c0.288-0.101,0.532-0.244,0.732-0.428
		c0.2-0.184,0.354-0.404,0.46-0.66c0.107-0.256,0.16-0.541,0.16-0.855c0-0.347-0.079-0.631-0.236-0.852
		c-0.158-0.222-0.364-0.407-0.62-0.557s-0.548-0.276-0.876-0.38s-0.664-0.21-1.008-0.32c-0.344-0.109-0.68-0.236-1.008-0.38
		S2.2,8.857,1.944,8.627c-0.256-0.229-0.463-0.516-0.62-0.86C1.167,7.424,1.088,6.999,1.088,6.492c0-0.405,0.079-0.797,0.236-1.176
		c0.157-0.378,0.385-0.714,0.684-1.008S2.676,3.78,3.116,3.604C3.556,3.428,4.061,3.34,4.632,3.34c0.64,0,1.224,0.101,1.752,0.304
		c0.528,0.203,0.989,0.496,1.384,0.88L7.392,5.26z"/>
	<path d="M18.08,12.563c0.085,0,0.163,0.035,0.232,0.104l0.608,0.664c-0.469,0.543-1.039,0.968-1.708,1.271
		c-0.669,0.305-1.476,0.456-2.42,0.456c-0.827,0-1.576-0.143-2.248-0.428c-0.672-0.286-1.246-0.686-1.72-1.2S9.981,12.3,9.72,11.58
		c-0.261-0.721-0.392-1.512-0.392-2.376c0-0.864,0.14-1.656,0.42-2.376c0.28-0.72,0.673-1.338,1.18-1.856
		c0.507-0.517,1.113-0.918,1.82-1.204c0.707-0.285,1.486-0.428,2.34-0.428c0.843,0,1.569,0.13,2.18,0.392
		c0.61,0.262,1.153,0.616,1.628,1.064l-0.504,0.712c-0.038,0.053-0.08,0.097-0.128,0.132c-0.048,0.035-0.117,0.052-0.208,0.052
		c-0.07,0-0.143-0.025-0.22-0.076c-0.078-0.051-0.169-0.113-0.276-0.188c-0.107-0.075-0.232-0.155-0.376-0.24
		c-0.144-0.085-0.315-0.165-0.512-0.24s-0.427-0.137-0.688-0.188s-0.563-0.076-0.904-0.076c-0.614,0-1.175,0.105-1.684,0.316
		c-0.509,0.211-0.948,0.511-1.316,0.9c-0.368,0.39-0.655,0.864-0.86,1.424c-0.205,0.56-0.308,1.187-0.308,1.88
		c0,0.715,0.103,1.352,0.308,1.912c0.206,0.561,0.485,1.033,0.84,1.42c0.354,0.387,0.774,0.682,1.26,0.885s1.008,0.304,1.568,0.304
		c0.341,0,0.648-0.021,0.92-0.06c0.272-0.041,0.524-0.104,0.756-0.188s0.448-0.193,0.648-0.323c0.2-0.131,0.401-0.287,0.604-0.469
		C17.907,12.604,17.995,12.563,18.08,12.563z"/>
	<path d="M29.04,12.563c0.085,0,0.163,0.035,0.231,0.104l0.608,0.664c-0.47,0.543-1.038,0.968-1.708,1.271
		c-0.67,0.305-1.477,0.456-2.42,0.456c-0.826,0-1.576-0.143-2.248-0.428c-0.672-0.286-1.246-0.686-1.721-1.2
		S20.941,12.3,20.68,11.58c-0.261-0.721-0.392-1.512-0.392-2.376c0-0.864,0.14-1.656,0.42-2.376c0.28-0.72,0.673-1.338,1.18-1.856
		c0.507-0.517,1.113-0.918,1.82-1.204c0.706-0.285,1.486-0.428,2.34-0.428c0.843,0,1.569,0.13,2.181,0.392
		c0.609,0.262,1.152,0.616,1.627,1.064l-0.504,0.712c-0.037,0.053-0.08,0.097-0.128,0.132s-0.117,0.052-0.208,0.052
		c-0.069,0-0.143-0.025-0.22-0.076s-0.169-0.113-0.276-0.188c-0.106-0.075-0.231-0.155-0.375-0.24
		C28,5.103,27.829,5.022,27.632,4.948s-0.427-0.137-0.688-0.188c-0.261-0.051-0.563-0.076-0.903-0.076
		c-0.614,0-1.175,0.105-1.685,0.316c-0.509,0.211-0.947,0.511-1.315,0.9c-0.368,0.39-0.655,0.864-0.86,1.424
		s-0.308,1.187-0.308,1.88c0,0.715,0.103,1.352,0.308,1.912c0.205,0.561,0.485,1.033,0.84,1.42c0.355,0.387,0.775,0.682,1.26,0.885
		c0.486,0.203,1.009,0.304,1.568,0.304c0.342,0,0.648-0.021,0.92-0.06c0.272-0.041,0.524-0.104,0.756-0.188
		c0.232-0.085,0.448-0.193,0.648-0.323c0.2-0.131,0.401-0.287,0.604-0.469C28.867,12.604,28.955,12.563,29.04,12.563z"/>
	<path d="M33.027,3.52c0.066,0.035,0.143,0.105,0.228,0.212l6.641,8.64c-0.017-0.139-0.027-0.272-0.032-0.403
		s-0.008-0.257-0.008-0.38v-8.12h1.36v11.464h-0.784c-0.123,0-0.226-0.021-0.309-0.064c-0.082-0.042-0.164-0.114-0.244-0.215
		L33.247,6.02c0.011,0.133,0.019,0.264,0.024,0.392c0.005,0.128,0.008,0.246,0.008,0.352v8.168h-1.36V3.468h0.801
		C32.858,3.468,32.961,3.485,33.027,3.52z"/>
</g>
<g>
</g>
<g>
</g>
<g>
</g>
<g>
</g>
<g>
</g>
<g>
</g>
<g>
</g>
<g>
</g>
<g>
</g>
<g>
</g>
<g>
</g>
<g>
</g>
<g>
</g>
<g>
</g>
<g>
</g>
</svg>
