<?xml version="1.0" encoding="utf-8"?>
<!-- Generator: Adobe Illustrator 16.0.0, SVG Export Plug-In . SVG Version: 6.00 Build 0)  -->
<!DOCTYPE svg PUBLIC "-//W3C//DTD SVG 1.1//EN" "http://www.w3.org/Graphics/SVG/1.1/DTD/svg11.dtd">
<svg version="1.1" id="Capa_1" xmlns="http://www.w3.org/2000/svg" xmlns:xlink="http://www.w3.org/1999/xlink" x="0px" y="0px"
	 width="589px" height="236.57px" viewBox="0 0 589 236.57" enable-background="new 0 0 589 236.57" xml:space="preserve">
<g id="Capa_2">
	<g id="Grupo_5" transform="translate(-1061.818 -125.674)">
		<path id="Trazado_9" fill="#23A8D7" d="M1410.975,341.964h-97.454c-10.771,0-19.502-8.731-19.502-19.503v-22.01
			c0-10.771,8.731-19.502,19.501-19.5h0.001h97.454c10.769,0,19.501,8.729,19.501,19.5v22.01
			C1430.474,333.233,1421.744,341.964,1410.975,341.964L1410.975,341.964z M1391.582,297.591c-7.659,0-13.866,6.21-13.866,13.866
			c0,7.658,6.208,13.866,13.866,13.866c7.657,0,13.865-6.208,13.865-13.865S1399.239,297.594,1391.582,297.591L1391.582,297.591z
			 M1333.81,297.591c-7.658,0.003-13.867,6.211-13.864,13.868c0,7.658,6.21,13.866,13.868,13.864
			c7.657-0.001,13.863-6.208,13.863-13.865C1347.676,303.799,1341.468,297.592,1333.81,297.591
			C1333.811,297.592,1333.81,297.592,1333.81,297.591L1333.81,297.591z M1357.178,186.117c-5.417-1.839-8.319-7.72-6.48-13.138
			c1.839-5.418,7.72-8.318,13.137-6.479c5.417,1.839,8.317,7.72,6.479,13.139c-1.033,3.049-3.428,5.444-6.479,6.479v45.052
			c34.65,1.25,65.659,21.858,80.229,53.319l11.394,0.021c3.058,0.006,5.536,2.488,5.536,5.548v21.406
			c29.533-55.51,8.475-124.451-47.034-153.983c-17.153-9.124-36.351-13.708-55.772-13.315
			c-60.824,1.213-110.244,50.612-111.475,111.425c-0.43,19.46,4.155,38.7,13.314,55.872v-21.396
			c0.001-3.063,2.484-5.547,5.548-5.547h11.367c14.563-31.477,45.581-52.101,80.243-53.349L1357.178,186.117z"/>
		<g id="x-circle" transform="translate(1133.114 275.234)">
			<path id="Trazado_11" fill="#23A8D7" d="M207.293,29.534c0.341,0.338,0.342,0.886,0.006,1.225
				c-0.001,0.003-0.003,0.004-0.006,0.006l-12.13,12.127c-0.339,0.34-0.89,0.34-1.23,0s-0.34-0.891,0-1.231l0,0l12.135-12.126
				c0.337-0.34,0.886-0.342,1.225-0.006c0.002,0.003,0.004,0.005,0.006,0.006H207.293z"/>
			<path id="Trazado_12" fill="#23A8D7" d="M193.937,29.534c-0.341,0.338-0.343,0.886-0.006,1.225
				c0.002,0.003,0.004,0.004,0.006,0.006l12.131,12.127c0.339,0.34,0.89,0.34,1.23,0c0.34-0.34,0.34-0.891,0-1.231l0,0
				l-12.135-12.126c-0.336-0.34-0.885-0.342-1.225-0.006c-0.002,0.003-0.004,0.005-0.005,0.006H193.937z"/>
		</g>
		<g id="x-circle-2" transform="translate(1189.563 275.234)">
			<path id="Trazado_11-2" fill="#23A8D7" d="M208.734,29.534c0.338,0.338,0.342,0.886,0.004,1.225
				c-0.002,0.003-0.002,0.004-0.004,0.006l-12.133,12.127c-0.338,0.34-0.888,0.34-1.229,0s-0.341-0.891,0-1.231l0,0l12.134-12.126
				c0.339-0.34,0.886-0.342,1.226-0.006c0.002,0.003,0.004,0.005,0.006,0.006H208.734z"/>
			<path id="Trazado_12-2" fill="#23A8D7" d="M195.377,29.534c-0.338,0.338-0.341,0.886-0.004,1.225
				c0.002,0.003,0.004,0.004,0.004,0.006l12.132,12.127c0.341,0.34,0.891,0.34,1.229,0c0.34-0.34,0.34-0.891,0-1.231l0,0
				l-12.134-12.126c-0.337-0.34-0.885-0.342-1.226-0.006c-0.002,0.003-0.004,0.005-0.006,0.006H195.377z"/>
		</g>
	</g>
	<rect x="-89.581" fill="none" width="190.284" height="193.316"/>
	<rect x="488.352" y="27.181" fill="none" width="165.108" height="170.237"/>
	<g enable-background="new    ">
		<path fill="#23A8D7" d="M541.054,141.937h24.83v19.509c0,1.82-0.593,3.391-1.773,4.707c-1.184,1.32-2.912,1.979-5.185,1.979
			h-17.872v48.159h-29.469v-48.159h-83.221c-2.275,0-4.276-0.703-6.003-2.115c-1.729-1.408-2.82-3.158-3.274-5.252l-3.411-17.054
			l93.453-124.832h31.925V141.937z M511.585,77.406c0-2.91,0.09-6.047,0.273-9.414c0.181-3.364,0.498-6.866,0.954-10.505
			l-61.256,84.449h60.028V77.406z"/>
	</g>
	<g enable-background="new    ">
		<path fill="#23A8D7" d="M147.178,141.937h24.83v19.509c0,1.82-0.593,3.391-1.774,4.707c-1.183,1.32-2.912,1.979-5.184,1.979
			h-17.872v48.159h-29.469v-48.159H34.488c-2.274,0-4.276-0.703-6.003-2.115c-1.729-1.408-2.82-3.158-3.274-5.252L21.8,143.71
			l93.454-124.832h31.924V141.937z M117.709,77.406c0-2.91,0.09-6.047,0.273-9.414c0.181-3.364,0.499-6.866,0.955-10.505
			l-61.256,84.449h60.028V77.406z"/>
	</g>
</g>
<g>
</g>
<g>
</g>
<g>
</g>
<g>
</g>
<g>
</g>
<g>
</g>
</svg>
