<svg version="1.1" id="Capa_1" xmlns="http://www.w3.org/2000/svg" xmlns:xlink="http://www.w3.org/1999/xlink" x="0px" y="0px" viewBox="0 0 500 500" style="enable-background:new 0 0 500 500;" xml:space="preserve" class="animate-svg">
<style type="text/css">
.animate-svg path{
	-webkit-animation:draw ease-out forwards;
	animation:draw ease-out forwards;
	stroke:#0094BC
}
.animate-svg{
	-webkit-animation:fillopacity 9s ease-out infinite forwards;
	animation:fillopacity 9s ease-out infinite forwards
}
@-webkit-keyframes draw{
	100%{stroke-dashoffset:0}
}
@keyframes draw{
	100%{stroke-dashoffset:0}
}
@-webkit-keyframes fillopacity{
	0%,20%{fill-opacity:0;stroke-width:0.5%}
	30%,70%{fill-opacity:1;stroke-width:0}
	80%,100%{fill-opacity:0;stroke-width:0.5%}
}
@keyframes fillopacity{
	0%,20%{fill-opacity:0;stroke-width:0.5%}
	30%,70%{fill-opacity:1;stroke-width:0}
	80%,100%{fill-opacity:0;stroke-width:0.5%}
}
	.st0{fill:#0094BC;}
</style>
<path class="st0" d="M325.6,199.6c-7.7-14.6-18.5-25.9-32.3-34s-29.9-12.1-48-12.1h-67c-0.2,0-0.3,0-0.5,0s-0.3,0-0.5,0h-0.7v0.1
	c-7.7,0.6-13.7,6.9-13.7,14.8c0,0.1,0,0.1,0,0.2l0,0v123.1c0,8.2,6.7,14.9,14.9,14.9s14.9-6.7,14.9-14.9V183l0.1,0.2h52.4
	c11.1,0,25.9,2.8,34.5,8.3c8.7,5.6,15.4,13.4,20.2,23.6c4.7,10.2,7.1,21.9,7.1,35s-2.4,24.8-7.1,34.9s-11.4,17.9-20,23.3
	c-8.6,5.5-23.4,8.2-34.7,8.2h-27.5c-8.3,0-15,6.7-15,15s6.7,15,15,15h27.5c18.2,0,34.2-4,48-12s24.6-19.2,32.3-33.8
	c7.7-14.6,11.5-31.4,11.5-50.6S333.3,214.1,325.6,199.6z" style="stroke-dasharray: 2061.6; stroke-dashoffset: 2061.6; animation-delay: 0s; animation-duration: 4.5s; animation-iteration-count: infinite; animation-direction: alternate;"></path>
<circle class="st0" cx="177.9" cy="331.6" r="15"></circle>
</svg>